font.ufo
<glyph name="ampersand" format="2">
	<unicode hex="0026"/>
	<advance width="699"/>
	<outline>
		<contour>
			<point x="311" y="-15" type="curve" smooth="yes"/>
			<point x="461" y="-15"/>
			<point x="551" y="67"/>
			<point x="551" y="175" type="curve" smooth="yes"/>
			<point x="551" y="233"/>
			<point x="520" y="287"/>
			<point x="445" y="298" type="curve"/>
			<point x="444" y="279" type="line"/>
			<point x="579" y="291"/>
			<point x="664" y="346"/>
			<point x="718" y="468" type="curve"/>
			<point x="636" y="505" type="line"/>
			<point x="593" y="386"/>
			<point x="528" y="321"/>
			<point x="403" y="312" type="curve"/>
			<point x="395" y="267" type="line"/>
			<point x="466" y="261"/>
			<point x="493" y="228"/>
			<point x="493" y="181" type="curve" smooth="yes"/>
			<point x="493" y="116"/>
			<point x="430" y="70"/>
			<point x="331" y="70" type="curve" smooth="yes"/>
			<point x="229" y="70"/>
			<point x="149" y="125"/>
			<point x="149" y="229" type="curve" smooth="yes"/>
			<point x="149" y="289"/>
			<point x="173" y="352"/>
			<point x="244" y="389" type="curve"/>
			<point x="222" y="391" type="line"/>
			<point x="259" y="355"/>
			<point x="298" y="338"/>
			<point x="340" y="338" type="curve" smooth="yes"/>
			<point x="372" y="338"/>
			<point x="391" y="352"/>
			<point x="391" y="380" type="curve" smooth="yes"/>
			<point x="391" y="409"/>
			<point x="359" y="430"/>
			<point x="298" y="430" type="curve" smooth="yes"/>
			<point x="281" y="430"/>
			<point x="267" y="428"/>
			<point x="251" y="428" type="curve"/>
			<point x="283" y="415" type="line"/>
			<point x="262" y="446"/>
			<point x="257" y="473"/>
			<point x="257" y="502" type="curve" smooth="yes"/>
			<point x="257" y="588"/>
			<point x="308" y="645"/>
			<point x="401" y="645" type="curve" smooth="yes"/>
			<point x="423" y="645"/>
			<point x="443" y="641"/>
			<point x="464" y="635" type="curve"/>
			<point x="403" y="662" type="line"/>
			<point x="431" y="600" type="line" smooth="yes"/>
			<point x="447" y="563"/>
			<point x="466" y="549"/>
			<point x="492" y="549" type="curve" smooth="yes"/>
			<point x="521" y="549"/>
			<point x="534" y="566"/>
			<point x="538" y="589" type="curve"/>
			<point x="525" y="646"/>
			<point x="469" y="680"/>
			<point x="387" y="680" type="curve" smooth="yes"/>
			<point x="252" y="680"/>
			<point x="178" y="594"/>
			<point x="178" y="501" type="curve" smooth="yes"/>
			<point x="178" y="468"/>
			<point x="188" y="436"/>
			<point x="212" y="402" type="curve"/>
			<point x="217" y="417" type="line"/>
			<point x="101" y="383"/>
			<point x="45" y="292"/>
			<point x="45" y="197" type="curve" smooth="yes"/>
			<point x="45" y="70"/>
			<point x="144" y="-15"/>
		</contour>
	</outline>
</glyph>
<glyph name="hyphen" format="2">
	<unicode hex="002D"/>
	<unicode hex="00AD"/>
	<unicode hex="2010"/>
	<advance width="320"/>
	<outline>
		<contour>
			<point x="36" y="227" type="line"/>
			<point x="276" y="227" type="line"/>
			<point x="276" y="293" type="line"/>
			<point x="36" y="293" type="line"/>
		</contour>
	</outline>
</glyph>
<glyph name="period" format="2">
	<unicode hex="002E"/>
	<advance width="293"/>
	<outline>
		<contour>
			<point x="103" y="-11" type="curve" smooth="yes"/>
			<point x="146" y="-11"/>
			<point x="183" y="22"/>
			<point x="183" y="67" type="curve" smooth="yes"/>
			<point x="183" y="102"/>
			<point x="156" y="132"/>
			<point x="117" y="132" type="curve" smooth="yes"/>
			<point x="74" y="132"/>
			<point x="36" y="98"/>
			<point x="36" y="53" type="curve" smooth="yes"/>
			<point x="36" y="17"/>
			<point x="64" y="-11"/>
		</contour>
	</outline>
</glyph>
<glyph name="less" format="2">
	<unicode hex="003C"/>
	<advance width="528"/>
	<outline>
		<contour>
			<point x="62" y="303" type="line"/>
			<point x="441" y="89" type="line"/>
			<point x="472" y="146" type="line"/>
			<point x="110" y="342" type="line"/>
			<point x="110" y="311" type="line"/>
			<point x="472" y="506" type="line"/>
			<point x="441" y="563" type="line"/>
			<point x="62" y="351" type="line"/>
		</contour>
	</outline>
</glyph>
<glyph name="at" format="2">
	<unicode hex="0040"/>
	<advance width="860"/>
	<outline>
		<contour>
			<point x="322" y="42" type="curve" smooth="yes"/>
			<point x="385" y="42"/>
			<point x="454" y="103"/>
			<point x="511" y="181" type="curve"/>
			<point x="521" y="181" type="line"/>
			<point x="505" y="205" type="line"/>
			<point x="447" y="138"/>
			<point x="409" y="113"/>
			<point x="377" y="113" type="curve" smooth="yes"/>
			<point x="345" y="113"/>
			<point x="327" y="139"/>
			<point x="327" y="192" type="curve" smooth="yes"/>
			<point x="327" y="313"/>
			<point x="408" y="431"/>
			<point x="480" y="431" type="curve" smooth="yes"/>
			<point x="509" y="431"/>
			<point x="535" y="415"/>
			<point x="554" y="396" type="curve"/>
			<point x="601" y="430" type="line"/>
			<point x="577" y="466"/>
			<point x="549" y="489"/>
			<point x="511" y="489" type="curve" smooth="yes"/>
			<point x="390" y="489"/>
			<point x="231" y="310"/>
			<point x="231" y="153" type="curve" smooth="yes"/>
			<point x="231" y="74"/>
			<point x="275" y="42"/>
		</contour>
		<contour>
			<point x="569" y="42" type="curve" smooth="yes"/>
			<point x="672" y="42"/>
			<point x="827" y="150"/>
			<point x="827" y="352" type="curve" smooth="yes"/>
			<point x="827" y="520"/>
			<point x="725" y="657"/>
			<point x="515" y="657" type="curve" smooth="yes"/>
			<point x="240" y="657"/>
			<point x="43" y="436"/>
			<point x="43" y="172" type="curve" smooth="yes"/>
			<point x="43" y="-26"/>
			<point x="172" y="-154"/>
			<point x="376" y="-154" type="curve" smooth="yes"/>
			<point x="442" y="-154"/>
			<point x="511" y="-138"/>
			<point x="570" y="-110" type="curve"/>
			<point x="560" y="-78" type="line"/>
			<point x="506" y="-98"/>
			<point x="455" y="-107"/>
			<point x="395" y="-107" type="curve" smooth="yes"/>
			<point x="219" y="-107"/>
			<point x="107" y="-5"/>
			<point x="107" y="183" type="curve" smooth="yes"/>
			<point x="107" y="417"/>
			<point x="274" y="618"/>
			<point x="510" y="618" type="curve" smooth="yes"/>
			<point x="671" y="618"/>
			<point x="769" y="514"/>
			<point x="769" y="352" type="curve" smooth="yes"/>
			<point x="769" y="180"/>
			<point x="663" y="98"/>
			<point x="606" y="98" type="curve" smooth="yes"/>
			<point x="571" y="98"/>
			<point x="558" y="118"/>
			<point x="571" y="172" type="curve" smooth="yes"/>
			<point x="639" y="485" type="line"/>
			<point x="626" y="495" type="line"/>
			<point x="536" y="441" type="line"/>
			<point x="477" y="165" type="line" smooth="yes"/>
			<point x="461" y="96"/>
			<point x="490" y="42"/>
		</contour>
	</outline>
</glyph>
<glyph name="A" format="2">
	<unicode hex="0041"/>
	<advance width="658"/>
	<outline>
		<contour>
			<point x="-43" y="0" type="line"/>
			<point x="169" y="0" type="line"/>
			<point x="177" y="39" type="line"/>
			<point x="84" y="53" type="line"/>
			<point x="62" y="53" type="line"/>
			<point x="-35" y="39" type="line"/>
		</contour>
		<contour>
			<point x="19" y="0" type="line"/>
			<point x="68" y="0" type="line"/>
			<point x="353" y="557" type="line"/>
			<point x="358" y="567" type="line"/>
			<point x="345" y="567" type="line"/>
			<point x="422" y="0" type="line"/>
			<point x="537" y="0" type="line"/>
			<point x="438" y="665" type="line"/>
			<point x="370" y="665" type="line"/>
		</contour>
		<contour>
			<point x="168" y="223" type="line"/>
			<point x="447" y="223" type="line"/>
			<point x="449" y="267" type="line"/>
			<point x="181" y="267" type="line"/>
		</contour>
		<contour>
			<point x="324" y="0" type="line"/>
			<point x="600" y="0" type="line"/>
			<point x="607" y="39" type="line"/>
			<point x="493" y="54" type="line"/>
			<point x="461" y="54" type="line"/>
			<point x="332" y="39" type="line"/>
		</contour>
	</outline>
	<anchor name="aboveUC" x="404" y="684"/>
	<anchor name="belowLC" x="250" y="-20"/>
	<anchor name="ogonek" x="488" y="0"/>
</glyph>
<glyph name="B" format="2">
	<unicode hex="0042"/>
	<advance width="607"/>
	<outline>
		<contour>
			<point x="-10" y="0" type="line"/>
			<point x="132" y="0" type="line"/>
			<point x="142" y="54" type="line"/>
			<point x="122" y="54" type="line"/>
			<point x="-1" y="39" type="line"/>
		</contour>
		<contour>
			<point x="69" y="0" type="line"/>
			<point x="186" y="0" type="line"/>
			<point x="202" y="103"/>
			<point x="220" y="207"/>
			<point x="239" y="310" type="curve" smooth="yes"/>
			<point x="306" y="664" type="line"/>
			<point x="189" y="664" type="line"/>
			<point x="173" y="561"/>
			<point x="155" y="457"/>
			<point x="136" y="354" type="curve" smooth="yes"/>
		</contour>
		<contour>
			<point x="101" y="624" type="line"/>
			<point x="222" y="610" type="line"/>
			<point x="245" y="610" type="line"/>
			<point x="254" y="664" type="line"/>
			<point x="108" y="664" type="line"/>
		</contour>
		<contour>
			<point x="122" y="0" type="line"/>
			<point x="267" y="0" type="line" smooth="yes"/>
			<point x="465" y="0"/>
			<point x="552" y="88"/>
			<point x="552" y="188" type="curve" smooth="yes"/>
			<point x="552" y="281"/>
			<point x="474" y="351"/>
			<point x="334" y="354" type="curve"/>
			<point x="322" y="341" type="line"/>
			<point x="471" y="345"/>
			<point x="564" y="421"/>
			<point x="564" y="519" type="curve" smooth="yes"/>
			<point x="564" y="598"/>
			<point x="506" y="664"/>
			<point x="361" y="664" type="curve" smooth="yes"/>
			<point x="244" y="664" type="line"/>
			<point x="236" y="619" type="line"/>
			<point x="341" y="619" type="line" smooth="yes"/>
			<point x="416" y="619"/>
			<point x="454" y="579"/>
			<point x="454" y="514" type="curve" smooth="yes"/>
			<point x="454" y="422"/>
			<point x="396" y="368"/>
			<point x="288" y="368" type="curve" smooth="yes"/>
			<point x="190" y="368" type="line"/>
			<point x="182" y="325" type="line"/>
			<point x="297" y="325" type="line" smooth="yes"/>
			<point x="382" y="325"/>
			<point x="437" y="280"/>
			<point x="437" y="201" type="curve" smooth="yes"/>
			<point x="437" y="105"/>
			<point x="374" y="44"/>
			<point x="253" y="44" type="curve" smooth="yes"/>
			<point x="131" y="44" type="line"/>
		</contour>
	</outline>
	<anchor name="aboveUC" x="345" y="684"/>
	<anchor name="belowLC" x="269" y="-20"/>
</glyph>
<glyph name="D" format="2">
	<unicode hex="0044"/>
	<advance width="673"/>
	<outline>
		<contour>
			<point x="-10" y="0" type="line"/>
			<point x="133" y="0" type="line"/>
			<point x="142" y="54" type="line"/>
			<point x="120" y="54" type="line"/>
			<point x="-1" y="39" type="line"/>
		</contour>
		<contour>
			<point x="69" y="0" type="line"/>
			<point x="186" y="0" type="line"/>
			<point x="202" y="103"/>
			<point x="220" y="207"/>
			<point x="239" y="310" type="curve" smooth="yes"/>
			<point x="306" y="664" type="line"/>
			<point x="189" y="664" type="line"/>
			<point x="173" y="561"/>
			<point x="155" y="457"/>
			<point x="136" y="354" type="curve" smooth="yes"/>
		</contour>
		<contour>
			<point x="101" y="624" type="line"/>
			<point x="223" y="610" type="line"/>
			<point x="246" y="610" type="line"/>
			<point x="256" y="664" type="line"/>
			<point x="108" y="664" type="line"/>
		</contour>
		<contour>
			<point x="128" y="0" type="line"/>
			<point x="256" y="0" type="line" smooth="yes"/>
			<point x="468" y="0"/>
			<point x="650" y="141"/>
			<point x="650" y="391" type="curve" smooth="yes"/>
			<point x="650" y="556"/>
			<point x="544" y="664"/>
			<point x="363" y="664" type="curve" smooth="yes"/>
			<point x="252" y="664" type="line"/>
			<point x="243" y="619" type="line"/>
			<point x="329" y="619" type="line" smooth="yes"/>
			<point x="460" y="619"/>
			<point x="530" y="543"/>
			<point x="530" y="398" type="curve" smooth="yes"/>
			<point x="530" y="209"/>
			<point x="427" y="44"/>
			<point x="257" y="44" type="curve" smooth="yes"/>
			<point x="137" y="44" type="line"/>
		</contour>
	</outline>
	<anchor name="aboveUC" x="377" y="684"/>
	<anchor name="belowLC" x="276" y="-20"/>
</glyph>
<glyph name="G" format="2">
	<unicode hex="0047"/>
	<advance width="640"/>
	<outline>
		<contour>
			<point x="38" y="261" type="curve" smooth="yes"/>
			<point x="38" y="90"/>
			<point x="147" y="-16"/>
			<point x="325" y="-16" type="curve" smooth="yes"/>
			<point x="398" y="-16"/>
			<point x="456" y="0"/>
			<point x="516" y="29" type="curve"/>
			<point x="572" y="323" type="line"/>
			<point x="457" y="323" type="line"/>
			<point x="446" y="246"/>
			<point x="433" y="167"/>
			<point x="419" y="86" type="curve" smooth="yes"/>
			<point x="407" y="17" type="line"/>
			<point x="460" y="53" type="line"/>
			<point x="419" y="36"/>
			<point x="384" y="28"/>
			<point x="345" y="28" type="curve" smooth="yes"/>
			<point x="236" y="28"/>
			<point x="156" y="111"/>
			<point x="156" y="257" type="curve" smooth="yes"/>
			<point x="156" y="444"/>
			<point x="259" y="635"/>
			<point x="426" y="635" type="curve" smooth="yes"/>
			<point x="471" y="635"/>
			<point x="518" y="624"/>
			<point x="556" y="595" type="curve"/>
			<point x="513" y="634" type="line"/>
			<point x="527" y="478" type="line"/>
			<point x="580" y="478" type="line"/>
			<point x="602" y="629" type="line"/>
			<point x="545" y="667"/>
			<point x="483" y="680"/>
			<point x="418" y="680" type="curve" smooth="yes"/>
			<point x="197" y="680"/>
			<point x="38" y="487"/>
		</contour>
		<contour>
			<point x="360" y="284" type="line"/>
			<point x="477" y="269" type="line"/>
			<point x="515" y="269" type="line"/>
			<point x="628" y="284" type="line"/>
			<point x="635" y="323" type="line"/>
			<point x="367" y="323" type="line"/>
		</contour>
	</outline>
	<anchor name="aboveUC" x="415" y="684"/>
	<anchor name="belowLC" x="324" y="-20"/>
</glyph>
<glyph name="I" format="2">
	<unicode hex="0049"/>
	<advance width="353"/>
	<outline>
		<contour>
			<point x="-10" y="0" type="line"/>
			<point x="267" y="0" type="line"/>
			<point x="274" y="39" type="line"/>
			<point x="154" y="54" type="line"/>
			<point x="125" y="54" type="line"/>
			<point x="-1" y="39" type="line"/>
		</contour>
		<contour>
			<point x="69" y="0" type="line"/>
			<point x="186" y="0" type="line"/>
			<point x="202" y="103"/>
			<point x="220" y="207"/>
			<point x="239" y="310" type="curve" smooth="yes"/>
			<point x="306" y="664" type="line"/>
			<point x="189" y="664" type="line"/>
			<point x="173" y="561"/>
			<point x="155" y="456"/>
			<point x="136" y="353" type="curve" smooth="yes"/>
		</contour>
		<contour>
			<point x="101" y="624" type="line"/>
			<point x="223" y="610" type="line"/>
			<point x="253" y="610" type="line"/>
			<point x="377" y="624" type="line"/>
			<point x="385" y="664" type="line"/>
			<point x="108" y="664" type="line"/>
		</contour>
	</outline>
	<anchor name="aboveUC" x="247" y="684"/>
	<anchor name="belowLC" x="128" y="-20"/>
	<anchor name="ogonek" x="176" y="0"/>
</glyph>
<glyph name="J" format="2">
	<unicode hex="004A"/>
	<advance width="347"/>
	<outline>
		<contour>
			<point x="-121" y="-86" type="curve"/>
			<point x="-115" y="-124"/>
			<point x="-75" y="-142"/>
			<point x="-27" y="-142" type="curve" smooth="yes"/>
			<point x="39" y="-142"/>
			<point x="103" y="-100"/>
			<point x="148" y="-24" type="curve" smooth="yes"/>
			<point x="188" y="29"/>
			<point x="206" y="104"/>
			<point x="231" y="229" type="curve" smooth="yes"/>
			<point x="317" y="664" type="line"/>
			<point x="199" y="664" type="line"/>
			<point x="178" y="532"/>
			<point x="154" y="417"/>
			<point x="136" y="311" type="curve" smooth="yes"/>
			<point x="113" y="175"/>
			<point x="104" y="115"/>
			<point x="92" y="54" type="curve" smooth="yes"/>
			<point x="78" y="-21"/>
			<point x="57" y="-72"/>
			<point x="23" y="-99" type="curve"/>
			<point x="22" y="-109" type="line"/>
			<point x="52" y="-109" type="line"/>
			<point x="52" y="-99" type="line"/>
			<point x="-1" y="-47"/>
			<point x="-24" y="-34"/>
			<point x="-51" y="-34" type="curve" smooth="yes"/>
			<point x="-87" y="-34"/>
			<point x="-115" y="-54"/>
		</contour>
		<contour>
			<point x="102" y="624" type="line"/>
			<point x="228" y="610" type="line"/>
			<point x="260" y="610" type="line"/>
			<point x="388" y="624" type="line"/>
			<point x="396" y="664" type="line"/>
			<point x="110" y="664" type="line"/>
		</contour>
	</outline>
	<anchor name="aboveUC" x="256" y="684"/>
	<anchor name="belowLC" x="48" y="-155"/>
</glyph>
<glyph name="N" format="2">
	<unicode hex="004E"/>
	<advance width="691"/>
	<outline>
		<contour>
			<point x="-16" y="0" type="line"/>
			<point x="213" y="0" type="line"/>
			<point x="219" y="39" type="line"/>
			<point x="110" y="53" type="line"/>
			<point x="88" y="53" type="line"/>
			<point x="-9" y="39" type="line"/>
		</contour>
		<contour>
			<point x="63" y="0" type="line"/>
			<point x="111" y="0" type="line"/>
			<point x="173" y="329" type="line"/>
			<point x="234" y="653" type="line"/>
			<point x="186" y="653" type="line"/>
		</contour>
		<contour>
			<point x="503" y="624" type="line"/>
			<point x="619" y="611" type="line"/>
			<point x="641" y="611" type="line"/>
			<point x="732" y="624" type="line"/>
			<point x="740" y="664" type="line"/>
			<point x="511" y="664" type="line"/>
		</contour>
		<contour>
			<point x="559" y="144" type="line"/>
			<point x="541" y="144" type="line"/>
			<point x="277" y="664" type="line"/>
			<point x="101" y="664" type="line"/>
			<point x="93" y="624" type="line"/>
			<point x="171" y="616" type="line"/>
			<point x="190" y="578" type="line"/>
			<point x="194" y="570" type="line"/>
			<point x="489" y="-6" type="line"/>
			<point x="539" y="-6" type="line"/>
			<point x="664" y="664" type="line"/>
			<point x="616" y="664" type="line"/>
			<point x="553" y="329" type="line"/>
			<point x="510" y="94" type="line"/>
		</contour>
	</outline>
	<anchor name="aboveUC" x="410" y="684"/>
	<anchor name="belowLC" x="312" y="-20"/>
</glyph>
<glyph name="O" format="2">
	<unicode hex="004F"/>
	<advance width="650"/>
	<outline>
		<contour>
			<point x="279" y="-17" type="curve" smooth="yes"/>
			<point x="492" y="-17"/>
			<point x="634" y="180"/>
			<point x="634" y="413" type="curve" smooth="yes"/>
			<point x="634" y="581"/>
			<point x="537" y="680"/>
			<point x="395" y="680" type="curve" smooth="yes"/>
			<point x="184" y="680"/>
			<point x="41" y="481"/>
			<point x="41" y="250" type="curve" smooth="yes"/>
			<point x="41" y="77"/>
			<point x="140" y="-17"/>
		</contour>
		<contour>
			<point x="288" y="29" type="curve" smooth="yes"/>
			<point x="196" y="29"/>
			<point x="157" y="104"/>
			<point x="157" y="227" type="curve" smooth="yes"/>
			<point x="157" y="439"/>
			<point x="253" y="635"/>
			<point x="387" y="635" type="curve" smooth="yes"/>
			<point x="481" y="635"/>
			<point x="518" y="561"/>
			<point x="518" y="438" type="curve" smooth="yes"/>
			<point x="518" y="226"/>
			<point x="423" y="29"/>
		</contour>
	</outline>
	<anchor name="aboveUC" x="391" y="684"/>
	<anchor name="belowLC" x="287" y="-20"/>
	<anchor name="hornLC" x="532" y="567"/>
	<anchor name="ogonek" x="373" y="0"/>
</glyph>
<glyph name="P" format="2">
	<unicode hex="0050"/>
	<advance width="559"/>
	<outline>
		<contour>
			<point x="-10" y="0" type="line"/>
			<point x="275" y="0" type="line"/>
			<point x="283" y="39" type="line"/>
			<point x="159" y="54" type="line"/>
			<point x="124" y="54" type="line"/>
			<point x="-1" y="39" type="line"/>
		</contour>
		<contour>
			<point x="69" y="0" type="line"/>
			<point x="186" y="0" type="line"/>
			<point x="202" y="103"/>
			<point x="220" y="207"/>
			<point x="239" y="310" type="curve" smooth="yes"/>
			<point x="306" y="664" type="line"/>
			<point x="189" y="664" type="line"/>
			<point x="173" y="561"/>
			<point x="155" y="457"/>
			<point x="136" y="354" type="curve" smooth="yes"/>
		</contour>
		<contour>
			<point x="101" y="624" type="line"/>
			<point x="222" y="610" type="line"/>
			<point x="246" y="610" type="line"/>
			<point x="256" y="664" type="line"/>
			<point x="108" y="664" type="line"/>
		</contour>
		<contour>
			<point x="166" y="262" type="line"/>
			<point x="279" y="262" type="line" smooth="yes"/>
			<point x="475" y="262"/>
			<point x="571" y="366"/>
			<point x="571" y="491" type="curve" smooth="yes"/>
			<point x="571" y="594"/>
			<point x="497" y="664"/>
			<point x="337" y="664" type="curve" smooth="yes"/>
			<point x="243" y="664" type="line"/>
			<point x="234" y="619" type="line"/>
			<point x="327" y="619" type="line" smooth="yes"/>
			<point x="410" y="619"/>
			<point x="456" y="572"/>
			<point x="456" y="491" type="curve" smooth="yes"/>
			<point x="456" y="380"/>
			<point x="389" y="306"/>
			<point x="280" y="306" type="curve" smooth="yes"/>
			<point x="175" y="306" type="line"/>
		</contour>
	</outline>
	<anchor name="aboveUC" x="344" y="684"/>
	<anchor name="belowLC" x="132" y="-20"/>
</glyph>
<glyph name="R" format="2">
	<unicode hex="0052"/>
	<advance width="641"/>
	<outline>
		<contour>
			<point x="-10" y="0" type="line"/>
			<point x="269" y="0" type="line"/>
			<point x="277" y="39" type="line"/>
			<point x="153" y="54" type="line"/>
			<point x="123" y="54" type="line"/>
			<point x="-1" y="39" type="line"/>
		</contour>
		<contour>
			<point x="69" y="0" type="line"/>
			<point x="186" y="0" type="line"/>
			<point x="202" y="103"/>
			<point x="220" y="207"/>
			<point x="239" y="310" type="curve" smooth="yes"/>
			<point x="306" y="664" type="line"/>
			<point x="189" y="664" type="line"/>
			<point x="173" y="561"/>
			<point x="155" y="456"/>
			<point x="136" y="353" type="curve" smooth="yes"/>
		</contour>
		<contour>
			<point x="101" y="624" type="line"/>
			<point x="222" y="610" type="line"/>
			<point x="244" y="610" type="line"/>
			<point x="250" y="664" type="line"/>
			<point x="108" y="664" type="line"/>
		</contour>
		<contour>
			<point x="518" y="-11" type="curve" smooth="yes"/>
			<point x="554" y="-11"/>
			<point x="573" y="-7"/>
			<point x="604" y="0" type="curve"/>
			<point x="611" y="39" type="line"/>
			<point x="462" y="58" type="line"/>
			<point x="535" y="23" type="line"/>
			<point x="486" y="185" type="line" smooth="yes"/>
			<point x="458" y="281"/>
			<point x="434" y="319"/>
			<point x="323" y="332" type="curve"/>
			<point x="327" y="315" type="line"/>
			<point x="497" y="326"/>
			<point x="582" y="411"/>
			<point x="582" y="511" type="curve" smooth="yes"/>
			<point x="582" y="605"/>
			<point x="510" y="664"/>
			<point x="382" y="664" type="curve" smooth="yes"/>
			<point x="246" y="664" type="line"/>
			<point x="241" y="619" type="line"/>
			<point x="358" y="619" type="line" smooth="yes"/>
			<point x="430" y="619"/>
			<point x="468" y="580"/>
			<point x="468" y="514" type="curve" smooth="yes"/>
			<point x="468" y="422"/>
			<point x="418" y="352"/>
			<point x="301" y="351" type="curve" smooth="yes"/>
			<point x="189" y="350" type="line"/>
			<point x="181" y="307" type="line"/>
			<point x="266" y="307" type="line" smooth="yes"/>
			<point x="326" y="307"/>
			<point x="345" y="285"/>
			<point x="365" y="210" type="curve" smooth="yes"/>
			<point x="402" y="73" type="line" smooth="yes"/>
			<point x="417" y="10"/>
			<point x="449" y="-11"/>
		</contour>
	</outline>
	<anchor name="aboveUC" x="352" y="684"/>
	<anchor name="belowLC" x="317" y="-20"/>
</glyph>
<glyph name="T" format="2">
	<unicode hex="0054"/>
	<advance width="578"/>
	<outline>
		<contour>
			<point x="60" y="479" type="line"/>
			<point x="112" y="479" type="line"/>
			<point x="184" y="660" type="line"/>
			<point x="124" y="618" type="line"/>
			<point x="584" y="618" type="line"/>
			<point x="540" y="660" type="line"/>
			<point x="548" y="479" type="line"/>
			<point x="600" y="479" type="line"/>
			<point x="627" y="664" type="line"/>
			<point x="98" y="664" type="line"/>
		</contour>
		<contour>
			<point x="95" y="0" type="line"/>
			<point x="392" y="0" type="line"/>
			<point x="400" y="39" type="line"/>
			<point x="271" y="54" type="line"/>
			<point x="237" y="54" type="line"/>
			<point x="103" y="39" type="line"/>
		</contour>
		<contour>
			<point x="184" y="0" type="line"/>
			<point x="301" y="0" type="line"/>
			<point x="317" y="103"/>
			<point x="335" y="207"/>
			<point x="354" y="310" type="curve" smooth="yes"/>
			<point x="421" y="664" type="line"/>
			<point x="304" y="664" type="line"/>
			<point x="288" y="561"/>
			<point x="270" y="457"/>
			<point x="251" y="354" type="curve" smooth="yes"/>
		</contour>
	</outline>
	<anchor name="aboveUC" x="364" y="684"/>
	<anchor name="belowLC" x="243" y="-20"/>
	<anchor name="baseLC" x="244" y="0"/>
</glyph>
<glyph name="W" format="2">
	<unicode hex="0057"/>
	<advance width="877"/>
	<outline>
		<contour>
			<point x="170" y="610" type="line"/>
			<point x="200" y="610" type="line"/>
			<point x="324" y="624" type="line"/>
			<point x="331" y="664" type="line"/>
			<point x="62" y="664" type="line"/>
			<point x="54" y="624" type="line"/>
		</contour>
		<contour>
			<point x="174" y="-6" type="line"/>
			<point x="235" y="-6" type="line"/>
			<point x="488" y="528" type="line"/>
			<point x="498" y="549" type="line"/>
			<point x="471" y="549" type="line"/>
			<point x="534" y="-6" type="line"/>
			<point x="595" y="-6" type="line"/>
			<point x="899" y="664" type="line"/>
			<point x="849" y="664" type="line"/>
			<point x="613" y="135" type="line"/>
			<point x="605" y="116" type="line"/>
			<point x="625" y="116" type="line"/>
			<point x="569" y="664" type="line"/>
			<point x="503" y="664" type="line"/>
			<point x="256" y="137" type="line"/>
			<point x="246" y="116" type="line"/>
			<point x="267" y="116" type="line"/>
			<point x="234" y="664" type="line"/>
			<point x="115" y="664" type="line"/>
		</contour>
		<contour>
			<point x="503" y="610" type="line"/>
			<point x="541" y="610" type="line"/>
			<point x="661" y="624" type="line"/>
			<point x="668" y="664" type="line"/>
			<point x="404" y="664" type="line"/>
			<point x="396" y="624" type="line"/>
		</contour>
		<contour>
			<point x="840" y="611" type="line"/>
			<point x="860" y="611" type="line"/>
			<point x="952" y="624" type="line"/>
			<point x="960" y="664" type="line"/>
			<point x="751" y="664" type="line"/>
			<point x="743" y="624" type="line"/>
		</contour>
	</outline>
	<anchor name="aboveUC" x="523" y="684"/>
	<anchor name="belowLC" x="391" y="-20"/>
</glyph>
<glyph name="Y" format="2">
	<unicode hex="0059"/>
	<advance width="569"/>
	<outline>
		<contour>
			<point x="55" y="624" type="line"/>
			<point x="176" y="610" type="line"/>
			<point x="211" y="610" type="line"/>
			<point x="331" y="624" type="line"/>
			<point x="338" y="664" type="line"/>
			<point x="63" y="664" type="line"/>
		</contour>
		<contour>
			<point x="95" y="0" type="line"/>
			<point x="391" y="0" type="line"/>
			<point x="399" y="39" type="line"/>
			<point x="270" y="54" type="line"/>
			<point x="235" y="54" type="line"/>
			<point x="103" y="39" type="line"/>
		</contour>
		<contour>
			<point x="249" y="226" type="line"/>
			<point x="315" y="226" type="line"/>
			<point x="600" y="664" type="line"/>
			<point x="550" y="664" type="line"/>
			<point x="329" y="318" type="line"/>
			<point x="325" y="311" type="line"/>
			<point x="338" y="311" type="line"/>
			<point x="235" y="664" type="line"/>
			<point x="108" y="664" type="line"/>
		</contour>
		<contour>
			<point x="183" y="0" type="line"/>
			<point x="300" y="0" type="line"/>
			<point x="317" y="104"/>
			<point x="333" y="200"/>
			<point x="353" y="308" type="curve"/>
			<point x="242" y="308" type="line"/>
		</contour>
		<contour>
			<point x="441" y="624" type="line"/>
			<point x="533" y="611" type="line"/>
			<point x="553" y="611" type="line"/>
			<point x="645" y="624" type="line"/>
			<point x="653" y="664" type="line"/>
			<point x="449" y="664" type="line"/>
		</contour>
	</outline>
	<anchor name="aboveUC" x="385" y="684"/>
	<anchor name="belowLC" x="240" y="-20"/>
</glyph>
<glyph name="b" format="2">
	<unicode hex="0062"/>
	<advance width="507"/>
	<outline>
		<contour>
			<point x="161" y="-14" type="curve" smooth="yes"/>
			<point x="322" y="-14"/>
			<point x="491" y="186"/>
			<point x="491" y="358" type="curve" smooth="yes"/>
			<point x="491" y="451"/>
			<point x="447" y="486"/>
			<point x="393" y="486" type="curve" smooth="yes"/>
			<point x="321" y="486"/>
			<point x="235" y="419"/>
			<point x="176" y="320" type="curve"/>
			<point x="170" y="320" type="line"/>
			<point x="183" y="305" type="line"/>
			<point x="242" y="373"/>
			<point x="290" y="408"/>
			<point x="330" y="408" type="curve" smooth="yes"/>
			<point x="366" y="408"/>
			<point x="385" y="378"/>
			<point x="385" y="321" type="curve" smooth="yes"/>
			<point x="385" y="248"/>
			<point x="356" y="158"/>
			<point x="311" y="106" type="curve" smooth="yes"/>
			<point x="280" y="68"/>
			<point x="247" y="49"/>
			<point x="211" y="49" type="curve" smooth="yes"/>
			<point x="177" y="49"/>
			<point x="160" y="72"/>
			<point x="160" y="105" type="curve" smooth="yes"/>
			<point x="160" y="138"/>
			<point x="169" y="175"/>
			<point x="181" y="231" type="curve" smooth="yes"/>
			<point x="204" y="341" type="line"/>
			<point x="206" y="354" type="line"/>
			<point x="283" y="722" type="line"/>
			<point x="270" y="732" type="line"/>
			<point x="85" y="679" type="line"/>
			<point x="80" y="651" type="line"/>
			<point x="193" y="636" type="line"/>
			<point x="165" y="659" type="line"/>
			<point x="81" y="244" type="line" smooth="yes"/>
			<point x="70" y="188"/>
			<point x="58" y="134"/>
			<point x="58" y="90" type="curve" smooth="yes"/>
			<point x="58" y="19"/>
			<point x="103" y="-14"/>
		</contour>
	</outline>
	<anchor name="aboveLC" x="234" y="734"/>
	<anchor name="belowLC" x="187" y="-20"/>
</glyph>
<glyph name="c" format="2">
	<unicode hex="0063"/>
	<advance width="428"/>
	<outline>
		<contour>
			<point x="191" y="-14" type="curve" smooth="yes"/>
			<point x="277" y="-14"/>
			<point x="350" y="47"/>
			<point x="390" y="123" type="curve"/>
			<point x="368" y="139" type="line"/>
			<point x="335" y="101"/>
			<point x="290" y="67"/>
			<point x="243" y="67" type="curve" smooth="yes"/>
			<point x="179" y="67"/>
			<point x="136" y="107"/>
			<point x="136" y="191" type="curve" smooth="yes"/>
			<point x="136" y="315"/>
			<point x="207" y="435"/>
			<point x="305" y="458" type="curve"/>
			<point x="320" y="458" type="line"/>
			<point x="320" y="469" type="line"/>
			<point x="258" y="469" type="line"/>
			<point x="304" y="402" type="line" smooth="yes"/>
			<point x="322" y="377"/>
			<point x="340" y="358"/>
			<point x="368" y="358" type="curve" smooth="yes"/>
			<point x="395" y="358"/>
			<point x="419" y="375"/>
			<point x="422" y="405" type="curve"/>
			<point x="409" y="455"/>
			<point x="363" y="486"/>
			<point x="300" y="486" type="curve" smooth="yes"/>
			<point x="158" y="486"/>
			<point x="31" y="338"/>
			<point x="31" y="170" type="curve" smooth="yes"/>
			<point x="31" y="51"/>
			<point x="98" y="-14"/>
		</contour>
	</outline>
	<anchor name="aboveLC" x="300" y="492"/>
	<anchor name="baseLC" x="195" y="0"/>
	<anchor name="belowLC" x="189" y="-20"/>
</glyph>
<glyph name="e" format="2">
	<unicode hex="0065"/>
	<advance width="427"/>
	<outline>
		<contour>
			<point x="188" y="-14" type="curve" smooth="yes"/>
			<point x="280" y="-14"/>
			<point x="348" y="49"/>
			<point x="389" y="123" type="curve"/>
			<point x="366" y="139" type="line"/>
			<point x="337" y="103"/>
			<point x="291" y="68"/>
			<point x="234" y="68" type="curve" smooth="yes"/>
			<point x="173" y="68"/>
			<point x="132" y="106"/>
			<point x="132" y="193" type="curve" smooth="yes"/>
			<point x="132" y="329"/>
			<point x="227" y="444"/>
			<point x="287" y="444" type="curve" smooth="yes"/>
			<point x="314" y="444"/>
			<point x="332" y="425"/>
			<point x="332" y="391" type="curve" smooth="yes"/>
			<point x="332" y="327"/>
			<point x="275" y="252"/>
			<point x="90" y="204" type="curve"/>
			<point x="93" y="172" type="line"/>
			<point x="334" y="229"/>
			<point x="421" y="312"/>
			<point x="421" y="392" type="curve" smooth="yes"/>
			<point x="421" y="451"/>
			<point x="378" y="486"/>
			<point x="305" y="486" type="curve" smooth="yes"/>
			<point x="156" y="486"/>
			<point x="30" y="333"/>
			<point x="30" y="166" type="curve" smooth="yes"/>
			<point x="30" y="48"/>
			<point x="96" y="-14"/>
		</contour>
	</outline>
	<anchor name="aboveLC" x="305" y="492"/>
	<anchor name="belowLC" x="189" y="-20"/>
	<anchor name="ogonek" x="247" y="0"/>
</glyph>
<glyph name="i" format="2">
	<unicode hex="0069"/>
	<advance width="305"/>
	<outline>
		<contour>
			<point x="59" y="43" type="curve" smooth="yes"/>
			<point x="59" y="6"/>
			<point x="87" y="-14"/>
			<point x="123" y="-14" type="curve" smooth="yes"/>
			<point x="198" y="-14"/>
			<point x="253" y="48"/>
			<point x="293" y="109" type="curve"/>
			<point x="268" y="127" type="line"/>
			<point x="233" y="83"/>
			<point x="206" y="62"/>
			<point x="186" y="62" type="curve" smooth="yes"/>
			<point x="177" y="62"/>
			<point x="168" y="69"/>
			<point x="168" y="82" type="curve" smooth="yes"/>
			<point x="168" y="92"/>
			<point x="171" y="110"/>
			<point x="176" y="131" type="curve" smooth="yes"/>
			<point x="248" y="476" type="line"/>
			<point x="235" y="487" type="line"/>
			<point x="50" y="435" type="line"/>
			<point x="45" y="407" type="line"/>
			<point x="149" y="393" type="line"/>
			<point x="131" y="411" type="line"/>
			<point x="71" y="125" type="line" smooth="yes"/>
			<point x="64" y="91"/>
			<point x="59" y="63"/>
		</contour>
		<contour>
			<point x="225" y="597" type="curve" smooth="yes"/>
			<point x="262" y="597"/>
			<point x="295" y="628"/>
			<point x="295" y="670" type="curve" smooth="yes"/>
			<point x="295" y="704"/>
			<point x="271" y="729"/>
			<point x="235" y="729" type="curve" smooth="yes"/>
			<point x="199" y="729"/>
			<point x="166" y="697"/>
			<point x="166" y="656" type="curve" smooth="yes"/>
			<point x="166" y="620"/>
			<point x="193" y="597"/>
		</contour>
	</outline>
	<anchor name="aboveLC" x="236" y="729"/>
	<anchor name="belowLC" x="124" y="-20"/>
	<anchor name="ogonek" x="167" y="0"/>
</glyph>
<glyph name="j" format="2">
	<unicode hex="006A"/>
	<advance width="267"/>
	<outline>
		<contour>
			<point x="-84" y="-245" type="line"/>
			<point x="-26" y="-239"/>
			<point x="19" y="-216"/>
			<point x="54" y="-180" type="curve" smooth="yes"/>
			<point x="106" y="-130"/>
			<point x="138" y="-58"/>
			<point x="158" y="36" type="curve" smooth="yes"/>
			<point x="245" y="475" type="line"/>
			<point x="231" y="487" type="line"/>
			<point x="49" y="435" type="line"/>
			<point x="45" y="407" type="line"/>
			<point x="159" y="392" type="line"/>
			<point x="129" y="411" type="line"/>
			<point x="57" y="42" type="line" smooth="yes"/>
			<point x="37" y="-64"/>
			<point x="18" y="-122"/>
			<point x="-13" y="-163" type="curve" smooth="yes"/>
			<point x="-33" y="-190"/>
			<point x="-57" y="-205"/>
			<point x="-90" y="-218" type="curve"/>
		</contour>
		<contour>
			<point x="224" y="597" type="curve" smooth="yes"/>
			<point x="260" y="597"/>
			<point x="293" y="628"/>
			<point x="293" y="670" type="curve" smooth="yes"/>
			<point x="293" y="704"/>
			<point x="269" y="729"/>
			<point x="234" y="729" type="curve" smooth="yes"/>
			<point x="197" y="729"/>
			<point x="164" y="697"/>
			<point x="164" y="656" type="curve" smooth="yes"/>
			<point x="164" y="620"/>
			<point x="191" y="597"/>
		</contour>
	</outline>
	<anchor name="aboveLC" x="239" y="729"/>
	<anchor name="belowLC" x="-10" y="-259"/>
</glyph>
<glyph name="k" format="2">
	<unicode hex="006B"/>
	<advance width="490"/>
	<outline>
		<contour>
			<point x="32" y="2" type="line"/>
			<point x="43" y="-8" type="line"/>
			<point x="139" y="0" type="line"/>
			<point x="150" y="70"/>
			<point x="162" y="135"/>
			<point x="177" y="210" type="curve" smooth="yes"/>
			<point x="283" y="722" type="line"/>
			<point x="271" y="732" type="line"/>
			<point x="87" y="680" type="line"/>
			<point x="82" y="652" type="line"/>
			<point x="196" y="636" type="line"/>
			<point x="164" y="665" type="line"/>
			<point x="155" y="598"/>
			<point x="141" y="531"/>
			<point x="127" y="464" type="curve" smooth="yes"/>
		</contour>
		<contour>
			<point x="473" y="1" type="curve"/>
			<point x="477" y="28" type="line"/>
			<point x="441" y="32" type="line" smooth="yes"/>
			<point x="412" y="35"/>
			<point x="398" y="48"/>
			<point x="380" y="91" type="curve" smooth="yes"/>
			<point x="352" y="155" type="line" smooth="yes"/>
			<point x="326" y="213"/>
			<point x="288" y="245"/>
			<point x="226" y="254" type="curve" smooth="yes"/>
			<point x="188" y="259" type="line"/>
			<point x="185" y="252" type="line"/>
			<point x="418" y="361" type="line" smooth="yes"/>
			<point x="468" y="381"/>
			<point x="489" y="398"/>
			<point x="489" y="427" type="curve" smooth="yes"/>
			<point x="489" y="456"/>
			<point x="468" y="478"/>
			<point x="441" y="481" type="curve"/>
			<point x="168" y="257" type="line"/>
			<point x="169" y="242" type="line"/>
			<point x="183" y="237" type="line" smooth="yes"/>
			<point x="215" y="227"/>
			<point x="225" y="209"/>
			<point x="245" y="156" type="curve" smooth="yes"/>
			<point x="276" y="73" type="line" smooth="yes"/>
			<point x="302" y="1"/>
			<point x="340" y="-14"/>
			<point x="393" y="-14" type="curve" smooth="yes"/>
			<point x="422" y="-14"/>
			<point x="446" y="-9"/>
		</contour>
	</outline>
	<anchor name="aboveLC" x="236" y="734"/>
	<anchor name="belowLC" x="219" y="-20"/>
</glyph>
<glyph name="l" format="2">
	<unicode hex="006C"/>
	<advance width="289"/>
	<outline>
		<contour>
			<point x="110" y="-14" type="curve" smooth="yes"/>
			<point x="186" y="-14"/>
			<point x="241" y="49"/>
			<point x="279" y="109" type="curve"/>
			<point x="256" y="127" type="line"/>
			<point x="221" y="84"/>
			<point x="192" y="62"/>
			<point x="174" y="62" type="curve" smooth="yes"/>
			<point x="164" y="62"/>
			<point x="154" y="69"/>
			<point x="154" y="82" type="curve" smooth="yes"/>
			<point x="154" y="92"/>
			<point x="157" y="110"/>
			<point x="162" y="132" type="curve" smooth="yes"/>
			<point x="284" y="722" type="line"/>
			<point x="272" y="732" type="line"/>
			<point x="87" y="680" type="line"/>
			<point x="82" y="652" type="line"/>
			<point x="195" y="636" type="line"/>
			<point x="163" y="665" type="line"/>
			<point x="154" y="598"/>
			<point x="141" y="531"/>
			<point x="127" y="464" type="curve" smooth="yes"/>
			<point x="60" y="134" type="line" smooth="yes"/>
			<point x="51" y="92"/>
			<point x="47" y="66"/>
			<point x="47" y="46" type="curve" smooth="yes"/>
			<point x="47" y="7"/>
			<point x="73" y="-14"/>
		</contour>
	</outline>
	<anchor name="aboveLC" x="233" y="734"/>
	<anchor name="belowLC" x="115" y="-20"/>
</glyph>
<glyph name="m" format="2">
	<unicode hex="006D"/>
	<advance width="821"/>
	<outline>
		<contour>
			<point x="57" y="-8" type="line"/>
			<point x="153" y="0" type="line"/>
			<point x="165" y="71"/>
			<point x="177" y="140"/>
			<point x="192" y="209" type="curve" smooth="yes"/>
			<point x="223" y="353" type="line"/>
			<point x="222" y="355" type="line"/>
			<point x="247" y="475" type="line"/>
			<point x="232" y="487" type="line"/>
			<point x="50" y="435" type="line"/>
			<point x="45" y="407" type="line"/>
			<point x="160" y="392" type="line"/>
			<point x="131" y="410" type="line"/>
			<point x="45" y="2" type="line"/>
		</contour>
		<contour>
			<point x="321" y="-8" type="line"/>
			<point x="415" y="0" type="line"/>
			<point x="427" y="71"/>
			<point x="440" y="140"/>
			<point x="455" y="209" type="curve" smooth="yes"/>
			<point x="484" y="351" type="line"/>
			<point x="484" y="355" type="line" smooth="yes"/>
			<point x="488" y="375"/>
			<point x="492" y="391"/>
			<point x="492" y="411" type="curve" smooth="yes"/>
			<point x="492" y="461"/>
			<point x="466" y="486"/>
			<point x="424" y="486" type="curve" smooth="yes"/>
			<point x="356" y="486"/>
			<point x="274" y="431"/>
			<point x="204" y="357" type="curve"/>
			<point x="199" y="357" type="line"/>
			<point x="203" y="323" type="line"/>
			<point x="267" y="380"/>
			<point x="318" y="407"/>
			<point x="353" y="407" type="curve" smooth="yes"/>
			<point x="371" y="407"/>
			<point x="383" y="396"/>
			<point x="383" y="371" type="curve" smooth="yes"/>
			<point x="383" y="354"/>
			<point x="377" y="330"/>
			<point x="372" y="306" type="curve" smooth="yes"/>
			<point x="308" y="2" type="line"/>
		</contour>
		<contour>
			<point x="634" y="-14" type="curve" smooth="yes"/>
			<point x="710" y="-14"/>
			<point x="768" y="48"/>
			<point x="807" y="109" type="curve"/>
			<point x="784" y="127" type="line"/>
			<point x="748" y="83"/>
			<point x="721" y="62"/>
			<point x="700" y="62" type="curve" smooth="yes"/>
			<point x="690" y="62"/>
			<point x="682" y="68"/>
			<point x="682" y="81" type="curve" smooth="yes"/>
			<point x="682" y="91"/>
			<point x="687" y="108"/>
			<point x="692" y="131" type="curve" smooth="yes"/>
			<point x="738" y="319" type="line" smooth="yes"/>
			<point x="745" y="351"/>
			<point x="752" y="381"/>
			<point x="752" y="411" type="curve" smooth="yes"/>
			<point x="752" y="461"/>
			<point x="725" y="486"/>
			<point x="683" y="486" type="curve" smooth="yes"/>
			<point x="616" y="486"/>
			<point x="538" y="431"/>
			<point x="468" y="357" type="curve"/>
			<point x="462" y="357" type="line"/>
			<point x="466" y="323" type="line"/>
			<point x="530" y="379"/>
			<point x="578" y="407"/>
			<point x="611" y="407" type="curve" smooth="yes"/>
			<point x="630" y="407"/>
			<point x="642" y="396"/>
			<point x="642" y="370" type="curve" smooth="yes"/>
			<point x="642" y="351"/>
			<point x="635" y="319"/>
			<point x="627" y="288" type="curve" smooth="yes"/>
			<point x="587" y="122" type="line" smooth="yes"/>
			<point x="579" y="88"/>
			<point x="572" y="63"/>
			<point x="572" y="39" type="curve" smooth="yes"/>
			<point x="572" y="6"/>
			<point x="596" y="-14"/>
		</contour>
	</outline>
	<anchor name="aboveLC" x="449" y="492"/>
	<anchor name="belowLC" x="362" y="-20"/>
</glyph>
<glyph name="n" format="2">
	<unicode hex="006E"/>
	<advance width="566"/>
	<outline>
		<contour>
			<point x="57" y="-8" type="line"/>
			<point x="153" y="0" type="line"/>
			<point x="165" y="71"/>
			<point x="177" y="140"/>
			<point x="192" y="209" type="curve" smooth="yes"/>
			<point x="221" y="346" type="line"/>
			<point x="223" y="355" type="line"/>
			<point x="247" y="475" type="line"/>
			<point x="232" y="487" type="line"/>
			<point x="50" y="435" type="line"/>
			<point x="45" y="407" type="line"/>
			<point x="160" y="392" type="line"/>
			<point x="131" y="410" type="line"/>
			<point x="45" y="2" type="line"/>
		</contour>
		<contour>
			<point x="379" y="-14" type="curve" smooth="yes"/>
			<point x="454" y="-14"/>
			<point x="515" y="49"/>
			<point x="552" y="109" type="curve"/>
			<point x="529" y="127" type="line"/>
			<point x="496" y="85"/>
			<point x="464" y="62"/>
			<point x="444" y="62" type="curve" smooth="yes"/>
			<point x="434" y="62"/>
			<point x="427" y="68"/>
			<point x="427" y="81" type="curve" smooth="yes"/>
			<point x="427" y="91"/>
			<point x="431" y="108"/>
			<point x="437" y="131" type="curve" smooth="yes"/>
			<point x="482" y="319" type="line" smooth="yes"/>
			<point x="490" y="351"/>
			<point x="497" y="381"/>
			<point x="497" y="411" type="curve" smooth="yes"/>
			<point x="497" y="461"/>
			<point x="470" y="486"/>
			<point x="428" y="486" type="curve" smooth="yes"/>
			<point x="360" y="486"/>
			<point x="278" y="432"/>
			<point x="208" y="357" type="curve"/>
			<point x="202" y="357" type="line"/>
			<point x="206" y="323" type="line"/>
			<point x="271" y="380"/>
			<point x="322" y="407"/>
			<point x="356" y="407" type="curve" smooth="yes"/>
			<point x="375" y="407"/>
			<point x="387" y="396"/>
			<point x="387" y="370" type="curve" smooth="yes"/>
			<point x="387" y="351"/>
			<point x="380" y="319"/>
			<point x="372" y="288" type="curve" smooth="yes"/>
			<point x="332" y="122" type="line" smooth="yes"/>
			<point x="324" y="88"/>
			<point x="317" y="63"/>
			<point x="317" y="39" type="curve" smooth="yes"/>
			<point x="317" y="6"/>
			<point x="341" y="-14"/>
		</contour>
	</outline>
	<anchor name="aboveLC" x="321" y="492"/>
	<anchor name="belowLC" x="234" y="-20"/>
</glyph>
<glyph name="p" format="2">
	<unicode hex="0070"/>
	<advance width="521"/>
	<outline>
		<contour>
			<point x="-77" y="-239" type="line"/>
			<point x="186" y="-239" type="line"/>
			<point x="193" y="-207" type="line"/>
			<point x="78" y="-190" type="line"/>
			<point x="38" y="-190" type="line"/>
			<point x="-71" y="-207" type="line"/>
		</contour>
		<contour>
			<point x="-5" y="-239" type="line"/>
			<point x="102" y="-239" type="line"/>
			<point x="113" y="-170"/>
			<point x="127" y="-95"/>
			<point x="150" y="17" type="curve"/>
			<point x="155" y="35" type="line"/>
			<point x="218" y="341" type="line"/>
			<point x="220" y="347" type="line"/>
			<point x="247" y="475" type="line"/>
			<point x="232" y="487" type="line"/>
			<point x="50" y="435" type="line"/>
			<point x="46" y="407" type="line"/>
			<point x="160" y="392" type="line"/>
			<point x="130" y="410" type="line"/>
		</contour>
		<contour>
			<point x="197" y="-14" type="curve" smooth="yes"/>
			<point x="340" y="-14"/>
			<point x="505" y="188"/>
			<point x="505" y="358" type="curve" smooth="yes"/>
			<point x="505" y="452"/>
			<point x="460" y="486"/>
			<point x="407" y="486" type="curve" smooth="yes"/>
			<point x="335" y="486"/>
			<point x="246" y="417"/>
			<point x="189" y="320" type="curve"/>
			<point x="184" y="320" type="line"/>
			<point x="196" y="305" type="line"/>
			<point x="253" y="372"/>
			<point x="304" y="408"/>
			<point x="342" y="408" type="curve" smooth="yes"/>
			<point x="381" y="408"/>
			<point x="398" y="379"/>
			<point x="398" y="320" type="curve" smooth="yes"/>
			<point x="398" y="253"/>
			<point x="373" y="168"/>
			<point x="334" y="116" type="curve" smooth="yes"/>
			<point x="303" y="75"/>
			<point x="268" y="52"/>
			<point x="228" y="52" type="curve" smooth="yes"/>
			<point x="193" y="52"/>
			<point x="163" y="73"/>
			<point x="136" y="108" type="curve"/>
			<point x="93" y="41" type="line"/>
			<point x="122" y="3"/>
			<point x="156" y="-14"/>
		</contour>
	</outline>
	<anchor name="aboveLC" x="306" y="492"/>
	<anchor name="belowLC" x="49" y="-259"/>
</glyph>
<glyph name="r" format="2">
	<unicode hex="0072"/>
	<advance width="421"/>
	<outline>
		<contour>
			<point x="194" y="237" type="line"/>
			<point x="231" y="315"/>
			<point x="273" y="382"/>
			<point x="335" y="433" type="curve"/>
			<point x="335" y="439" type="line"/>
			<point x="293" y="435" type="line"/>
			<point x="307" y="421" type="line" smooth="yes"/>
			<point x="332" y="394"/>
			<point x="354" y="378"/>
			<point x="381" y="378" type="curve" smooth="yes"/>
			<point x="418" y="378"/>
			<point x="440" y="408"/>
			<point x="441" y="446" type="curve"/>
			<point x="429" y="475"/>
			<point x="401" y="486"/>
			<point x="372" y="486" type="curve" smooth="yes"/>
			<point x="304" y="486"/>
			<point x="240" y="396"/>
			<point x="192" y="284" type="curve"/>
			<point x="180" y="284" type="line"/>
		</contour>
		<contour>
			<point x="45" y="2" type="line"/>
			<point x="57" y="-8" type="line"/>
			<point x="153" y="0" type="line"/>
			<point x="165" y="71"/>
			<point x="177" y="140"/>
			<point x="192" y="209" type="curve" smooth="yes"/>
			<point x="210" y="298" type="line"/>
			<point x="210" y="309" type="line"/>
			<point x="239" y="475" type="line"/>
			<point x="224" y="487" type="line"/>
			<point x="50" y="435" type="line"/>
			<point x="45" y="407" type="line"/>
			<point x="160" y="392" type="line"/>
			<point x="131" y="410" type="line"/>
		</contour>
	</outline>
	<anchor name="aboveLC" x="279" y="492"/>
	<anchor name="belowLC" x="105" y="-20"/>
</glyph>
<glyph name="t" format="2">
	<unicode hex="0074"/>
	<advance width="328"/>
	<outline>
		<contour>
			<point x="44" y="427" type="line"/>
			<point x="166" y="427" type="line"/>
			<point x="170" y="427" type="line"/>
			<point x="346" y="423" type="line"/>
			<point x="356" y="472" type="line"/>
			<point x="174" y="472" type="line"/>
			<point x="174" y="477" type="line"/>
			<point x="51" y="464" type="line"/>
		</contour>
		<contour>
			<point x="119" y="-14" type="curve" smooth="yes"/>
			<point x="193" y="-14"/>
			<point x="253" y="48"/>
			<point x="290" y="109" type="curve"/>
			<point x="266" y="127" type="line"/>
			<point x="231" y="83"/>
			<point x="205" y="62"/>
			<point x="183" y="62" type="curve" smooth="yes"/>
			<point x="172" y="62"/>
			<point x="164" y="69"/>
			<point x="164" y="82" type="curve" smooth="yes"/>
			<point x="164" y="92"/>
			<point x="167" y="109"/>
			<point x="171" y="131" type="curve" smooth="yes"/>
			<point x="272" y="613" type="line"/>
			<point x="212" y="613" type="line"/>
			<point x="136" y="452" type="line"/>
			<point x="67" y="127" type="line" smooth="yes"/>
			<point x="60" y="91"/>
			<point x="55" y="65"/>
			<point x="55" y="44" type="curve" smooth="yes"/>
			<point x="55" y="6"/>
			<point x="82" y="-14"/>
		</contour>
	</outline>
	<anchor name="aboveLC" x="230" y="593"/>
	<anchor name="belowLC" x="122" y="-20"/>
	<anchor name="baseLC" x="118" y="0"/>
</glyph>
<glyph name="v" format="2">
	<unicode hex="0076"/>
	<advance width="486"/>
	<outline>
		<contour>
			<point x="151" y="-1" type="curve"/>
			<point x="160" y="-7" type="line"/>
			<point x="211" y="-2" type="line"/>
			<point x="311" y="100"/>
			<point x="396" y="215"/>
			<point x="442" y="303" type="curve" smooth="yes"/>
			<point x="477" y="367"/>
			<point x="487" y="401"/>
			<point x="487" y="432" type="curve" smooth="yes"/>
			<point x="487" y="453"/>
			<point x="485" y="463"/>
			<point x="478" y="475" type="curve"/>
			<point x="470" y="482"/>
			<point x="455" y="488"/>
			<point x="437" y="488" type="curve" smooth="yes"/>
			<point x="400" y="488"/>
			<point x="374" y="466"/>
			<point x="374" y="415" type="curve" smooth="yes"/>
			<point x="374" y="398"/>
			<point x="379" y="375"/>
			<point x="388" y="346" type="curve"/>
			<point x="405" y="279" type="line"/>
			<point x="420" y="363" type="line"/>
			<point x="414" y="350"/>
			<point x="408" y="338"/>
			<point x="402" y="325" type="curve" smooth="yes"/>
			<point x="355" y="234"/>
			<point x="304" y="157"/>
			<point x="237" y="75" type="curve"/>
			<point x="230" y="66" type="line"/>
			<point x="245" y="66" type="line"/>
			<point x="243" y="180"/>
			<point x="236" y="303"/>
			<point x="224" y="398" type="curve" smooth="yes"/>
			<point x="215" y="458"/>
			<point x="197" y="486"/>
			<point x="149" y="486" type="curve" smooth="yes"/>
			<point x="100" y="486"/>
			<point x="57" y="447"/>
			<point x="15" y="368" type="curve"/>
			<point x="36" y="350" type="line"/>
			<point x="64" y="391"/>
			<point x="80" y="405"/>
			<point x="95" y="405" type="curve" smooth="yes"/>
			<point x="107" y="405"/>
			<point x="116" y="399"/>
			<point x="120" y="364" type="curve" smooth="yes"/>
			<point x="135" y="254"/>
			<point x="144" y="145"/>
		</contour>
	</outline>
	<anchor name="aboveLC" x="299" y="492"/>
	<anchor name="belowLC" x="183" y="-20"/>
</glyph>
<glyph name="x" format="2">
	<unicode hex="0078"/>
	<advance width="534"/>
	<outline>
		<contour>
			<point x="356" y="-15" type="curve" smooth="yes"/>
			<point x="415" y="-15"/>
			<point x="470" y="41"/>
			<point x="512" y="114" type="curve"/>
			<point x="487" y="130" type="line"/>
			<point x="456" y="89"/>
			<point x="427" y="62"/>
			<point x="404" y="62" type="curve" smooth="yes"/>
			<point x="383" y="62"/>
			<point x="372" y="75"/>
			<point x="361" y="114" type="curve" smooth="yes"/>
			<point x="310" y="279" type="line"/>
			<point x="309" y="283" type="line"/>
			<point x="274" y="398" type="line" smooth="yes"/>
			<point x="255" y="460"/>
			<point x="237" y="486"/>
			<point x="191" y="486" type="curve" smooth="yes"/>
			<point x="142" y="486"/>
			<point x="98" y="444"/>
			<point x="58" y="367" type="curve"/>
			<point x="79" y="349" type="line"/>
			<point x="106" y="394"/>
			<point x="130" y="406"/>
			<point x="144" y="406" type="curve" smooth="yes"/>
			<point x="163" y="406"/>
			<point x="171" y="393"/>
			<point x="182" y="357" type="curve" smooth="yes"/>
			<point x="234" y="188" type="line"/>
			<point x="235" y="185" type="line"/>
			<point x="272" y="64" type="line" smooth="yes"/>
			<point x="290" y="2"/>
			<point x="317" y="-15"/>
		</contour>
		<contour>
			<point x="-16" y="62" type="curve"/>
			<point x="-11" y="8"/>
			<point x="30" y="-14"/>
			<point x="68" y="-14" type="curve" smooth="yes"/>
			<point x="101" y="-14"/>
			<point x="124" y="0"/>
			<point x="148" y="31" type="curve" smooth="yes"/>
			<point x="186" y="78"/>
			<point x="226" y="143"/>
			<point x="276" y="231" type="curve"/>
			<point x="265" y="261" type="line"/>
			<point x="214" y="184"/>
			<point x="169" y="119"/>
			<point x="119" y="59" type="curve" smooth="yes"/>
			<point x="108" y="45"/>
			<point x="98" y="37"/>
			<point x="86" y="29" type="curve"/>
			<point x="86" y="17" type="line"/>
			<point x="118" y="21" type="line"/>
			<point x="100" y="57" type="line" smooth="yes"/>
			<point x="81" y="95"/>
			<point x="64" y="107"/>
			<point x="38" y="107" type="curve" smooth="yes"/>
			<point x="14" y="107"/>
			<point x="-9" y="92"/>
		</contour>
		<contour>
			<point x="283" y="214" type="line"/>
			<point x="330" y="286"/>
			<point x="376" y="352"/>
			<point x="424" y="410" type="curve" smooth="yes"/>
			<point x="436" y="426"/>
			<point x="449" y="435"/>
			<point x="461" y="443" type="curve"/>
			<point x="461" y="450" type="line"/>
			<point x="421" y="448" type="line"/>
			<point x="442" y="412" type="line" smooth="yes"/>
			<point x="460" y="382"/>
			<point x="478" y="370"/>
			<point x="504" y="370" type="curve" smooth="yes"/>
			<point x="532" y="370"/>
			<point x="553" y="392"/>
			<point x="556" y="425" type="curve"/>
			<point x="547" y="468"/>
			<point x="512" y="486"/>
			<point x="481" y="486" type="curve" smooth="yes"/>
			<point x="447" y="486"/>
			<point x="422" y="473"/>
			<point x="394" y="436" type="curve" smooth="yes"/>
			<point x="366" y="399"/>
			<point x="320" y="332"/>
			<point x="271" y="243" type="curve"/>
		</contour>
	</outline>
	<anchor name="aboveLC" x="328" y="492"/>
	<anchor name="belowLC" x="209" y="-20"/>
</glyph>
<glyph name="y" format="2">
	<unicode hex="0079"/>
	<advance width="495"/>
	<outline>
		<contour>
			<point x="-20" y="-239" type="curve" smooth="yes"/>
			<point x="32" y="-239"/>
			<point x="80" y="-206"/>
			<point x="130" y="-154" type="curve" smooth="yes"/>
			<point x="185" y="-103"/>
			<point x="226" y="-46"/>
			<point x="259" y="2" type="curve" smooth="yes"/>
			<point x="314" y="80"/>
			<point x="353" y="149"/>
			<point x="389" y="210" type="curve" smooth="yes"/>
			<point x="423" y="268"/>
			<point x="447" y="312"/>
			<point x="468" y="354" type="curve" smooth="yes"/>
			<point x="487" y="391"/>
			<point x="499" y="416"/>
			<point x="499" y="446" type="curve" smooth="yes"/>
			<point x="499" y="472"/>
			<point x="480" y="490"/>
			<point x="453" y="490" type="curve" smooth="yes"/>
			<point x="413" y="490"/>
			<point x="397" y="462"/>
			<point x="371" y="357" type="curve" smooth="yes"/>
			<point x="342" y="242"/>
			<point x="308" y="150"/>
			<point x="247" y="34" type="curve" smooth="yes"/>
			<point x="211" y="-17"/>
			<point x="175" y="-64"/>
			<point x="130" y="-105" type="curve" smooth="yes"/>
			<point x="96" y="-140"/>
			<point x="51" y="-178"/>
			<point x="19" y="-194" type="curve"/>
			<point x="19" y="-203" type="line"/>
			<point x="63" y="-203" type="line"/>
			<point x="63" y="-193" type="line"/>
			<point x="42" y="-174" type="line" smooth="yes"/>
			<point x="13" y="-142"/>
			<point x="-10" y="-125"/>
			<point x="-42" y="-125" type="curve" smooth="yes"/>
			<point x="-72" y="-125"/>
			<point x="-97" y="-142"/>
			<point x="-103" y="-173" type="curve"/>
			<point x="-99" y="-215"/>
			<point x="-66" y="-239"/>
		</contour>
		<contour>
			<point x="175" y="-69" type="curve"/>
			<point x="266" y="28" type="line"/>
			<point x="254" y="28" type="line"/>
			<point x="249" y="134"/>
			<point x="238" y="262"/>
			<point x="225" y="373" type="curve" smooth="yes"/>
			<point x="215" y="459"/>
			<point x="196" y="486"/>
			<point x="150" y="486" type="curve" smooth="yes"/>
			<point x="103" y="486"/>
			<point x="59" y="450"/>
			<point x="15" y="368" type="curve"/>
			<point x="36" y="350" type="line"/>
			<point x="64" y="391"/>
			<point x="79" y="405"/>
			<point x="94" y="405" type="curve" smooth="yes"/>
			<point x="109" y="405"/>
			<point x="115" y="395"/>
			<point x="125" y="319" type="curve" smooth="yes"/>
			<point x="144" y="189"/>
			<point x="162" y="71"/>
		</contour>
	</outline>
	<anchor name="aboveLC" x="303" y="492"/>
	<anchor name="belowLC" x="21" y="-259"/>
</glyph>
<glyph name="z" format="2">
	<unicode hex="007A"/>
	<advance width="467"/>
	<outline>
		<contour>
			<point x="264" y="-25" type="curve" smooth="yes"/>
			<point x="347" y="-25"/>
			<point x="433" y="65"/>
			<point x="433" y="149" type="curve" smooth="yes"/>
			<point x="433" y="177"/>
			<point x="419" y="202"/>
			<point x="393" y="211" type="curve"/>
			<point x="363" y="208"/>
			<point x="338" y="186"/>
			<point x="338" y="152" type="curve" smooth="yes"/>
			<point x="338" y="130"/>
			<point x="350" y="109"/>
			<point x="386" y="74" type="curve"/>
			<point x="403" y="78" type="line"/>
			<point x="401" y="99" type="line"/>
			<point x="375" y="81"/>
			<point x="343" y="68"/>
			<point x="305" y="68" type="curve" smooth="yes"/>
			<point x="250" y="68"/>
			<point x="196" y="84"/>
			<point x="114" y="141" type="curve"/>
			<point x="82" y="101" type="line"/>
			<point x="148" y="6"/>
			<point x="201" y="-25"/>
		</contour>
		<contour>
			<point x="63" y="0" type="line"/>
			<point x="99" y="95" type="line"/>
			<point x="189" y="177"/>
			<point x="284" y="253"/>
			<point x="377" y="340" type="curve" smooth="yes"/>
			<point x="432" y="391"/>
			<point x="468" y="437"/>
			<point x="481" y="474" type="curve"/>
			<point x="472" y="483" type="line"/>
			<point x="409" y="473" type="line"/>
			<point x="370" y="381" type="line"/>
			<point x="274" y="287"/>
			<point x="171" y="203"/>
			<point x="74" y="114" type="curve" smooth="yes"/>
			<point x="30" y="73"/>
			<point x="8" y="39"/>
			<point x="-13" y="0" type="curve"/>
			<point x="-5" y="-7" type="line"/>
		</contour>
		<contour>
			<point x="49" y="267" type="line"/>
			<point x="86" y="261" type="line"/>
			<point x="149" y="437" type="line"/>
			<point x="89" y="391" type="line"/>
			<point x="190" y="371"/>
			<point x="257" y="357"/>
			<point x="344" y="332" type="curve"/>
			<point x="394" y="390" type="line"/>
			<point x="307" y="434"/>
			<point x="236" y="460"/>
			<point x="146" y="488" type="curve"/>
			<point x="68" y="425" type="line"/>
		</contour>
	</outline>
	<anchor name="aboveLC" x="296" y="492"/>
	<anchor name="belowLC" x="156" y="-20"/>
</glyph>
<glyph name="asciitilde" format="2">
	<unicode hex="007E"/>
	<advance width="527"/>
	<outline>
		<contour>
			<point x="287" y="369" type="curve" smooth="yes"/>
			<point x="250" y="401"/>
			<point x="218" y="421"/>
			<point x="178" y="421" type="curve" smooth="yes"/>
			<point x="111" y="421"/>
			<point x="68" y="376"/>
			<point x="63" y="279" type="curve"/>
			<point x="115" y="272" type="line"/>
			<point x="122" y="340"/>
			<point x="146" y="361"/>
			<point x="174" y="361" type="curve" smooth="yes"/>
			<point x="199" y="361"/>
			<point x="219" y="347"/>
			<point x="253" y="319" type="curve" smooth="yes"/>
			<point x="290" y="287"/>
			<point x="322" y="266"/>
			<point x="361" y="266" type="curve" smooth="yes"/>
			<point x="428" y="266"/>
			<point x="472" y="311"/>
			<point x="478" y="408" type="curve"/>
			<point x="426" y="415" type="line"/>
			<point x="418" y="347"/>
			<point x="394" y="327"/>
			<point x="367" y="327" type="curve" smooth="yes"/>
			<point x="341" y="327"/>
			<point x="321" y="340"/>
		</contour>
	</outline>
</glyph>
<glyph name="cent" format="2">
	<unicode hex="00A2"/>
	<advance width="518"/>
	<outline>
		<contour>
			<point x="62" y="243" type="curve" smooth="yes"/>
			<point x="62" y="122"/>
			<point x="131" y="55"/>
			<point x="229" y="55" type="curve" smooth="yes"/>
			<point x="314" y="55"/>
			<point x="389" y="113"/>
			<point x="431" y="188" type="curve"/>
			<point x="409" y="205" type="line"/>
			<point x="375" y="165"/>
			<point x="330" y="134"/>
			<point x="276" y="134" type="curve" smooth="yes"/>
			<point x="208" y="134"/>
			<point x="164" y="179"/>
			<point x="164" y="263" type="curve" smooth="yes"/>
			<point x="164" y="377"/>
			<point x="228" y="516"/>
			<point x="330" y="516" type="curve" smooth="yes"/>
			<point x="370" y="516"/>
			<point x="396" y="509"/>
			<point x="423" y="493" type="curve"/>
			<point x="382" y="526" type="line"/>
			<point x="388" y="442" type="line" smooth="yes"/>
			<point x="391" y="394"/>
			<point x="407" y="377"/>
			<point x="438" y="377" type="curve" smooth="yes"/>
			<point x="459" y="377"/>
			<point x="479" y="389"/>
			<point x="484" y="421" type="curve" smooth="yes"/>
			<point x="482" y="507"/>
			<point x="421" y="558"/>
			<point x="331" y="558" type="curve" smooth="yes"/>
			<point x="186" y="558"/>
			<point x="62" y="412"/>
		</contour>
		<contour>
			<point x="235" y="-45" type="line"/>
			<point x="377" y="657" type="line"/>
			<point x="337" y="657" type="line"/>
			<point x="194" y="-45" type="line"/>
		</contour>
	</outline>
</glyph>
<glyph name="logicalnot" format="2">
	<unicode hex="00AC"/>
	<advance width="528"/>
	<outline>
		<contour>
			<point x="40" y="334" type="line"/>
			<point x="449" y="334" type="line"/>
			<point x="425" y="361" type="line"/>
			<point x="425" y="162" type="line"/>
			<point x="487" y="162" type="line"/>
			<point x="487" y="394" type="line"/>
			<point x="40" y="394" type="line"/>
		</contour>
	</outline>
</glyph>
<glyph name="plusminus" format="2">
	<unicode hex="00B1"/>
	<advance width="527"/>
	<outline>
		<contour>
			<point x="232" y="119" type="line"/>
			<point x="295" y="119" type="line"/>
			<point x="295" y="548" type="line"/>
			<point x="232" y="548" type="line"/>
		</contour>
		<contour>
			<point x="487" y="307" type="line"/>
			<point x="487" y="366" type="line"/>
			<point x="40" y="366" type="line"/>
			<point x="40" y="307" type="line"/>
		</contour>
		<contour>
			<point x="487" y="0" type="line"/>
			<point x="487" y="59" type="line"/>
			<point x="40" y="59" type="line"/>
			<point x="40" y="0" type="line"/>
		</contour>
	</outline>
</glyph>
<glyph name="AE" format="2">
	<unicode hex="00C6"/>
	<advance width="873"/>
	<outline>
		<contour>
			<point x="427" y="0" type="line"/>
			<point x="786" y="0" type="line"/>
			<point x="825" y="179" type="line"/>
			<point x="773" y="179" type="line"/>
			<point x="702" y="3" type="line"/>
			<point x="762" y="45" type="line"/>
			<point x="436" y="45" type="line"/>
		</contour>
		<contour>
			<point x="796" y="488" type="line"/>
			<point x="849" y="488" type="line"/>
			<point x="872" y="664" type="line"/>
			<point x="548" y="664" type="line"/>
			<point x="539" y="618" type="line"/>
			<point x="830" y="618" type="line"/>
			<point x="787" y="660" type="line"/>
		</contour>
		<contour>
			<point x="-47" y="0" type="line"/>
			<point x="168" y="0" type="line"/>
			<point x="175" y="39" type="line"/>
			<point x="79" y="53" type="line"/>
			<point x="56" y="53" type="line"/>
			<point x="-39" y="39" type="line"/>
		</contour>
		<contour>
			<point x="372" y="0" type="line"/>
			<point x="488" y="0" type="line"/>
			<point x="505" y="103"/>
			<point x="523" y="207"/>
			<point x="543" y="310" type="curve" smooth="yes"/>
			<point x="609" y="664" type="line"/>
			<point x="493" y="664" type="line"/>
			<point x="476" y="561"/>
			<point x="458" y="457"/>
			<point x="439" y="354" type="curve" smooth="yes"/>
		</contour>
		<contour>
			<point x="676" y="228" type="line"/>
			<point x="716" y="228" type="line"/>
			<point x="758" y="453" type="line"/>
			<point x="718" y="453" type="line"/>
			<point x="678" y="352" type="line"/>
			<point x="674" y="333" type="line"/>
		</contour>
		<contour>
			<point x="293" y="0" type="line"/>
			<point x="435" y="0" type="line"/>
			<point x="445" y="54" type="line"/>
			<point x="425" y="54" type="line"/>
			<point x="301" y="39" type="line"/>
		</contour>
		<contour>
			<point x="343" y="624" type="line"/>
			<point x="464" y="610" type="line"/>
			<point x="538" y="610" type="line"/>
			<point x="549" y="664" type="line"/>
			<point x="350" y="664" type="line"/>
		</contour>
		<contour>
			<point x="7" y="0" type="line"/>
			<point x="62" y="0" type="line"/>
			<point x="231" y="247" type="line"/>
			<point x="515" y="664" type="line"/>
			<point x="466" y="664" type="line"/>
		</contour>
		<contour>
			<point x="203" y="224" type="line"/>
			<point x="477" y="224" type="line"/>
			<point x="477" y="269" type="line"/>
			<point x="203" y="269" type="line"/>
		</contour>
		<contour>
			<point x="493" y="317" type="line"/>
			<point x="707" y="317" type="line"/>
			<point x="707" y="362" type="line"/>
			<point x="493" y="362" type="line"/>
		</contour>
	</outline>
	<anchor name="aboveUC" x="637" y="684"/>
</glyph>
<glyph name="Eth" format="2">
	<unicode hex="00D0"/>
	<advance width="673"/>
	<outline>
		<contour>
			<point x="386" y="318" type="line"/>
			<point x="394" y="362" type="line"/>
			<point x="49" y="362" type="line"/>
			<point x="41" y="318" type="line"/>
		</contour>
		<component base="D"/>
	</outline>
</glyph>
<glyph name="multiply" format="2">
	<unicode hex="00D7"/>
	<advance width="527"/>
	<outline>
		<contour>
			<point x="436" y="111" type="line"/>
			<point x="479" y="154" type="line"/>
			<point x="99" y="541" type="line"/>
			<point x="56" y="498" type="line"/>
		</contour>
		<contour>
			<point x="479" y="498" type="line"/>
			<point x="436" y="541" type="line"/>
			<point x="57" y="154" type="line"/>
			<point x="99" y="112" type="line"/>
		</contour>
	</outline>
</glyph>
<glyph name="germandbls" format="2">
	<unicode hex="00DF"/>
	<advance width="539"/>
	<outline>
		<contour>
			<point x="-68" y="-246" type="curve" smooth="yes"/>
			<point x="-23" y="-246"/>
			<point x="23" y="-225"/>
			<point x="62" y="-183" type="curve" smooth="yes"/>
			<point x="113" y="-131"/>
			<point x="142" y="-54"/>
			<point x="160" y="47" type="curve" smooth="yes"/>
			<point x="186" y="185"/>
			<point x="207" y="346"/>
			<point x="232" y="496" type="curve" smooth="yes"/>
			<point x="255" y="638"/>
			<point x="300" y="712"/>
			<point x="380" y="712" type="curve" smooth="yes"/>
			<point x="421" y="712"/>
			<point x="450" y="683"/>
			<point x="450" y="632" type="curve" smooth="yes"/>
			<point x="450" y="583"/>
			<point x="428" y="548"/>
			<point x="382" y="506" type="curve" smooth="yes"/>
			<point x="325" y="456"/>
			<point x="278" y="415"/>
			<point x="278" y="348" type="curve" smooth="yes"/>
			<point x="278" y="292"/>
			<point x="309" y="248"/>
			<point x="356" y="207" type="curve" smooth="yes"/>
			<point x="402" y="167"/>
			<point x="421" y="137"/>
			<point x="421" y="102" type="curve" smooth="yes"/>
			<point x="421" y="56"/>
			<point x="386" y="21"/>
			<point x="329" y="21" type="curve" smooth="yes"/>
			<point x="310" y="21"/>
			<point x="297" y="23"/>
			<point x="276" y="27" type="curve"/>
			<point x="327" y="3" type="line"/>
			<point x="310" y="69" type="line" smooth="yes"/>
			<point x="301" y="103"/>
			<point x="284" y="119"/>
			<point x="256" y="119" type="curve" smooth="yes"/>
			<point x="232" y="119"/>
			<point x="216" y="104"/>
			<point x="211" y="80" type="curve"/>
			<point x="220" y="19"/>
			<point x="266" y="-14"/>
			<point x="344" y="-14" type="curve" smooth="yes"/>
			<point x="446" y="-14"/>
			<point x="514" y="49"/>
			<point x="514" y="129" type="curve" smooth="yes"/>
			<point x="514" y="192"/>
			<point x="487" y="228"/>
			<point x="434" y="275" type="curve" smooth="yes"/>
			<point x="389" y="316"/>
			<point x="363" y="351"/>
			<point x="363" y="395" type="curve" smooth="yes"/>
			<point x="363" y="437"/>
			<point x="387" y="466"/>
			<point x="426" y="492" type="curve" smooth="yes"/>
			<point x="488" y="532"/>
			<point x="540" y="568"/>
			<point x="540" y="637" type="curve" smooth="yes"/>
			<point x="540" y="703"/>
			<point x="487" y="745"/>
			<point x="386" y="745" type="curve" smooth="yes"/>
			<point x="257" y="745"/>
			<point x="155" y="663"/>
			<point x="125" y="468" type="curve" smooth="yes"/>
			<point x="103" y="321"/>
			<point x="83" y="181"/>
			<point x="59" y="38" type="curve" smooth="yes"/>
			<point x="46" y="-39"/>
			<point x="32" y="-101"/>
			<point x="9" y="-148" type="curve" smooth="yes"/>
			<point x="-6" y="-178"/>
			<point x="-23" y="-198"/>
			<point x="-41" y="-213" type="curve"/>
			<point x="-41" y="-217" type="line"/>
			<point x="-19" y="-217" type="line"/>
			<point x="-19" y="-213" type="line"/>
			<point x="-42" y="-185" type="line" smooth="yes"/>
			<point x="-65" y="-157"/>
			<point x="-86" y="-138"/>
			<point x="-118" y="-138" type="curve" smooth="yes"/>
			<point x="-145" y="-138"/>
			<point x="-167" y="-156"/>
			<point x="-171" y="-183" type="curve"/>
			<point x="-159" y="-225"/>
			<point x="-123" y="-246"/>
		</contour>
	</outline>
</glyph>
<glyph name="eth" format="2">
	<unicode hex="00F0"/>
	<advance width="494"/>
	<outline>
		<contour>
			<point x="207" y="-14" type="curve" smooth="yes"/>
			<point x="357" y="-14"/>
			<point x="473" y="139"/>
			<point x="473" y="349" type="curve" smooth="yes"/>
			<point x="473" y="537"/>
			<point x="378" y="676"/>
			<point x="219" y="743" type="curve"/>
			<point x="197" y="711" type="line"/>
			<point x="325" y="634"/>
			<point x="370" y="537"/>
			<point x="381" y="369" type="curve"/>
			<point x="405" y="388" type="line"/>
			<point x="388" y="445"/>
			<point x="351" y="481"/>
			<point x="286" y="481" type="curve" smooth="yes"/>
			<point x="145" y="481"/>
			<point x="30" y="344"/>
			<point x="30" y="172" type="curve" smooth="yes"/>
			<point x="30" y="49"/>
			<point x="105" y="-14"/>
		</contour>
		<contour>
			<point x="213" y="26" type="curve" smooth="yes"/>
			<point x="167" y="26"/>
			<point x="138" y="65"/>
			<point x="138" y="159" type="curve" smooth="yes"/>
			<point x="138" y="309"/>
			<point x="206" y="439"/>
			<point x="290" y="439" type="curve" smooth="yes"/>
			<point x="337" y="439"/>
			<point x="366" y="409"/>
			<point x="366" y="326" type="curve" smooth="yes"/>
			<point x="366" y="163"/>
			<point x="296" y="26"/>
		</contour>
		<contour>
			<point x="182" y="531" type="line"/>
			<point x="490" y="689" type="line"/>
			<point x="473" y="725" type="line"/>
			<point x="166" y="566" type="line"/>
		</contour>
	</outline>
</glyph>
<glyph name="oslash" format="2">
	<unicode hex="00F8"/>
	<advance width="500"/>
	<outline>
		<contour>
			<point x="509" y="471" type="line"/>
			<point x="481" y="498" type="line"/>
			<point x="-13" y="4" type="line"/>
			<point x="15" y="-23" type="line"/>
		</contour>
		<contour>
			<point x="207" y="-14" type="curve" smooth="yes"/>
			<point x="359" y="-14"/>
			<point x="474" y="139"/>
			<point x="474" y="306" type="curve" smooth="yes"/>
			<point x="474" y="428"/>
			<point x="397" y="486"/>
			<point x="299" y="486" type="curve" smooth="yes"/>
			<point x="146" y="486"/>
			<point x="30" y="336"/>
			<point x="30" y="167" type="curve" smooth="yes"/>
			<point x="30" y="45"/>
			<point x="110" y="-14"/>
		</contour>
		<contour>
			<point x="215" y="26" type="curve" smooth="yes"/>
			<point x="167" y="26"/>
			<point x="134" y="58"/>
			<point x="134" y="154" type="curve" smooth="yes"/>
			<point x="134" y="302"/>
			<point x="203" y="446"/>
			<point x="291" y="446" type="curve" smooth="yes"/>
			<point x="338" y="446"/>
			<point x="370" y="415"/>
			<point x="370" y="319" type="curve" smooth="yes"/>
			<point x="370" y="175"/>
			<point x="304" y="26"/>
		</contour>
	</outline>
	<anchor name="aboveLC" x="297" y="492"/>
</glyph>
<glyph name="thorn" format="2">
	<unicode hex="00FE"/>
	<advance width="513"/>
	<outline>
		<contour>
			<point x="-85" y="-239" type="line"/>
			<point x="179" y="-239" type="line"/>
			<point x="185" y="-207" type="line"/>
			<point x="72" y="-190" type="line"/>
			<point x="31" y="-190" type="line"/>
			<point x="-79" y="-207" type="line"/>
		</contour>
		<contour>
			<point x="-14" y="-239" type="line"/>
			<point x="91" y="-239" type="line"/>
			<point x="104" y="-159"/>
			<point x="120" y="-75"/>
			<point x="140" y="19" type="curve"/>
			<point x="147" y="35" type="line"/>
			<point x="211" y="343" type="line"/>
			<point x="212" y="355" type="line"/>
			<point x="289" y="722" type="line"/>
			<point x="276" y="732" type="line"/>
			<point x="91" y="680" type="line"/>
			<point x="87" y="652" type="line"/>
			<point x="202" y="636" type="line"/>
			<point x="169" y="664" type="line"/>
			<point x="159" y="592"/>
			<point x="146" y="528"/>
			<point x="131" y="455" type="curve" smooth="yes"/>
		</contour>
		<contour>
			<point x="189" y="-14" type="curve" smooth="yes"/>
			<point x="332" y="-14"/>
			<point x="496" y="188"/>
			<point x="496" y="358" type="curve" smooth="yes"/>
			<point x="496" y="452"/>
			<point x="452" y="486"/>
			<point x="399" y="486" type="curve" smooth="yes"/>
			<point x="327" y="486"/>
			<point x="238" y="417"/>
			<point x="181" y="320" type="curve"/>
			<point x="169" y="320" type="line"/>
			<point x="187" y="305" type="line"/>
			<point x="244" y="372"/>
			<point x="296" y="408"/>
			<point x="334" y="408" type="curve" smooth="yes"/>
			<point x="373" y="408"/>
			<point x="390" y="379"/>
			<point x="390" y="320" type="curve" smooth="yes"/>
			<point x="390" y="254"/>
			<point x="366" y="169"/>
			<point x="326" y="117" type="curve" smooth="yes"/>
			<point x="296" y="75"/>
			<point x="260" y="52"/>
			<point x="219" y="52" type="curve" smooth="yes"/>
			<point x="185" y="52"/>
			<point x="155" y="73"/>
			<point x="128" y="108" type="curve"/>
			<point x="85" y="41" type="line"/>
			<point x="114" y="3"/>
			<point x="148" y="-14"/>
		</contour>
	</outline>
	<anchor name="aboveLC" x="244" y="734"/>
	<anchor name="belowLC" x="319" y="-20"/>
</glyph>
<glyph name="aogonek" format="2">
	<unicode hex="0105"/>
	<advance width="536"/>
	<outline>
		<contour>
			<point x="127" y="-14" type="curve" smooth="yes"/>
			<point x="198" y="-14"/>
			<point x="277" y="59"/>
			<point x="339" y="148" type="curve"/>
			<point x="347" y="148" type="line"/>
			<point x="333" y="172" type="line"/>
			<point x="269" y="96"/>
			<point x="225" y="66"/>
			<point x="190" y="66" type="curve" smooth="yes"/>
			<point x="154" y="66"/>
			<point x="135" y="95"/>
			<point x="135" y="153" type="curve" smooth="yes"/>
			<point x="135" y="229"/>
			<point x="167" y="323"/>
			<point x="215" y="373" type="curve" smooth="yes"/>
			<point x="244" y="404"/>
			<point x="277" y="422"/>
			<point x="307" y="422" type="curve" smooth="yes"/>
			<point x="339" y="422"/>
			<point x="368" y="403"/>
			<point x="390" y="382" type="curve"/>
			<point x="442" y="421" type="line"/>
			<point x="416" y="460"/>
			<point x="383" y="486"/>
			<point x="341" y="486" type="curve" smooth="yes"/>
			<point x="205" y="486"/>
			<point x="28" y="282"/>
			<point x="28" y="113" type="curve" smooth="yes"/>
			<point x="28" y="22"/>
			<point x="76" y="-14"/>
		</contour>
		<contour>
			<point x="371" y="-235" type="curve" smooth="yes"/>
			<point x="407" y="-235"/>
			<point x="439" y="-219"/>
			<point x="465" y="-198" type="curve"/>
			<point x="454" y="-174" type="line"/>
			<point x="439" y="-180"/>
			<point x="423" y="-184"/>
			<point x="409" y="-184" type="curve" smooth="yes"/>
			<point x="379" y="-184"/>
			<point x="357" y="-164"/>
			<point x="357" y="-128" type="curve" smooth="yes"/>
			<point x="357" y="-79"/>
			<point x="391" y="-31"/>
			<point x="446" y="15" type="curve" smooth="yes"/>
			<point x="477" y="43"/>
			<point x="506" y="76"/>
			<point x="526" y="110" type="curve"/>
			<point x="502" y="127" type="line"/>
			<point x="470" y="87"/>
			<point x="440" y="62"/>
			<point x="419" y="62" type="curve" smooth="yes"/>
			<point x="407" y="62"/>
			<point x="399" y="69"/>
			<point x="399" y="81" type="curve" smooth="yes"/>
			<point x="399" y="92"/>
			<point x="403" y="108"/>
			<point x="407" y="129" type="curve" smooth="yes"/>
			<point x="485" y="482" type="line"/>
			<point x="470" y="492" type="line"/>
			<point x="375" y="436" type="line"/>
			<point x="369" y="433" type="line"/>
			<point x="306" y="135" type="line"/>
			<point x="304" y="128" type="line" smooth="yes"/>
			<point x="297" y="95"/>
			<point x="295" y="78"/>
			<point x="295" y="56" type="curve" smooth="yes"/>
			<point x="295" y="9"/>
			<point x="324" y="-14"/>
			<point x="361" y="-14" type="curve" smooth="yes"/>
			<point x="372" y="-14"/>
			<point x="379" y="-12"/>
			<point x="406" y="-2" type="curve"/>
			<point x="378" y="18" type="line"/>
			<point x="378" y="-13" type="line"/>
			<point x="327" y="-56"/>
			<point x="284" y="-103"/>
			<point x="284" y="-159" type="curve" smooth="yes"/>
			<point x="284" y="-205"/>
			<point x="316" y="-235"/>
		</contour>
	</outline>
	<anchor name="aboveLC" x="340" y="492"/>
</glyph>
<glyph name="eogonek" format="2">
	<unicode hex="0119"/>
	<advance width="427"/>
	<outline>
		<contour>
			<point x="220" y="-235" type="curve" smooth="yes"/>
			<point x="257" y="-235"/>
			<point x="289" y="-219"/>
			<point x="314" y="-198" type="curve"/>
			<point x="303" y="-173" type="line"/>
			<point x="287" y="-179"/>
			<point x="273" y="-183"/>
			<point x="259" y="-183" type="curve" smooth="yes"/>
			<point x="229" y="-183"/>
			<point x="207" y="-163"/>
			<point x="207" y="-128" type="curve" smooth="yes"/>
			<point x="207" y="-78"/>
			<point x="244" y="-28"/>
			<point x="304" y="22" type="curve" smooth="yes"/>
			<point x="339" y="52"/>
			<point x="366" y="85"/>
			<point x="389" y="123" type="curve"/>
			<point x="366" y="139" type="line"/>
			<point x="337" y="103"/>
			<point x="291" y="68"/>
			<point x="234" y="68" type="curve" smooth="yes"/>
			<point x="173" y="68"/>
			<point x="132" y="106"/>
			<point x="132" y="193" type="curve" smooth="yes"/>
			<point x="132" y="329"/>
			<point x="227" y="444"/>
			<point x="287" y="444" type="curve" smooth="yes"/>
			<point x="314" y="444"/>
			<point x="332" y="425"/>
			<point x="332" y="391" type="curve" smooth="yes"/>
			<point x="332" y="327"/>
			<point x="275" y="252"/>
			<point x="90" y="204" type="curve"/>
			<point x="93" y="172" type="line"/>
			<point x="334" y="229"/>
			<point x="421" y="312"/>
			<point x="421" y="392" type="curve" smooth="yes"/>
			<point x="421" y="450"/>
			<point x="379" y="486"/>
			<point x="305" y="486" type="curve" smooth="yes"/>
			<point x="156" y="486"/>
			<point x="30" y="333"/>
			<point x="30" y="166" type="curve" smooth="yes"/>
			<point x="30" y="48"/>
			<point x="96" y="-14"/>
			<point x="188" y="-14" type="curve" smooth="yes"/>
			<point x="206" y="-14"/>
			<point x="224" y="-11"/>
			<point x="233" y="-7" type="curve"/>
			<point x="233" y="-8" type="line"/>
			<point x="178" y="-53"/>
			<point x="134" y="-102"/>
			<point x="134" y="-159" type="curve" smooth="yes"/>
			<point x="134" y="-205"/>
			<point x="165" y="-235"/>
		</contour>
	</outline>
	<anchor name="aboveLC" x="303" y="492"/>
</glyph>
<glyph name="hbar" format="2">
	<unicode hex="0127"/>
	<advance width="551"/>
	<outline>
		<contour>
			<point x="365" y="-14" type="curve" smooth="yes"/>
			<point x="439" y="-14"/>
			<point x="501" y="49"/>
			<point x="538" y="109" type="curve"/>
			<point x="514" y="127" type="line"/>
			<point x="481" y="85"/>
			<point x="450" y="62"/>
			<point x="430" y="62" type="curve" smooth="yes"/>
			<point x="420" y="62"/>
			<point x="413" y="68"/>
			<point x="413" y="81" type="curve" smooth="yes"/>
			<point x="413" y="91"/>
			<point x="417" y="108"/>
			<point x="423" y="131" type="curve" smooth="yes"/>
			<point x="464" y="302" type="line" smooth="yes"/>
			<point x="472" y="334"/>
			<point x="478" y="365"/>
			<point x="478" y="395" type="curve" smooth="yes"/>
			<point x="478" y="446"/>
			<point x="451" y="471"/>
			<point x="409" y="471" type="curve" smooth="yes"/>
			<point x="341" y="471"/>
			<point x="259" y="414"/>
			<point x="189" y="340" type="curve"/>
			<point x="176" y="340" type="line"/>
			<point x="187" y="306" type="line"/>
			<point x="252" y="363"/>
			<point x="303" y="390"/>
			<point x="337" y="390" type="curve" smooth="yes"/>
			<point x="356" y="390"/>
			<point x="368" y="379"/>
			<point x="368" y="352" type="curve" smooth="yes"/>
			<point x="368" y="334"/>
			<point x="361" y="303"/>
			<point x="354" y="271" type="curve" smooth="yes"/>
			<point x="318" y="122" type="line" smooth="yes"/>
			<point x="309" y="88"/>
			<point x="303" y="63"/>
			<point x="303" y="39" type="curve" smooth="yes"/>
			<point x="303" y="6"/>
			<point x="327" y="-14"/>
		</contour>
		<contour>
			<point x="44" y="-8" type="line"/>
			<point x="140" y="0" type="line"/>
			<point x="150" y="70"/>
			<point x="162" y="135"/>
			<point x="178" y="210" type="curve" smooth="yes"/>
			<point x="206" y="340" type="line"/>
			<point x="207" y="353" type="line"/>
			<point x="284" y="722" type="line"/>
			<point x="272" y="732" type="line"/>
			<point x="87" y="680" type="line"/>
			<point x="83" y="653" type="line"/>
			<point x="197" y="639" type="line"/>
			<point x="164" y="665" type="line"/>
			<point x="155" y="598"/>
			<point x="142" y="531"/>
			<point x="128" y="464" type="curve" smooth="yes"/>
			<point x="32" y="2" type="line"/>
		</contour>
		<contour>
			<point x="61" y="533" type="line"/>
			<point x="405" y="533" type="line"/>
			<point x="413" y="577" type="line"/>
			<point x="69" y="577" type="line"/>
		</contour>
	</outline>
</glyph>
<glyph name="iogonek" format="2">
	<unicode hex="012F"/>
	<advance width="305"/>
	<outline>
		<contour>
			<point x="138" y="-235" type="curve" smooth="yes"/>
			<point x="175" y="-235"/>
			<point x="206" y="-219"/>
			<point x="232" y="-198" type="curve"/>
			<point x="220" y="-173" type="line"/>
			<point x="206" y="-179"/>
			<point x="190" y="-183"/>
			<point x="176" y="-183" type="curve" smooth="yes"/>
			<point x="147" y="-183"/>
			<point x="124" y="-164"/>
			<point x="124" y="-129" type="curve" smooth="yes"/>
			<point x="124" y="-81"/>
			<point x="158" y="-29"/>
			<point x="209" y="15" type="curve" smooth="yes"/>
			<point x="241" y="42"/>
			<point x="270" y="74"/>
			<point x="293" y="109" type="curve"/>
			<point x="268" y="127" type="line"/>
			<point x="233" y="83"/>
			<point x="206" y="62"/>
			<point x="186" y="62" type="curve" smooth="yes"/>
			<point x="177" y="62"/>
			<point x="168" y="69"/>
			<point x="168" y="82" type="curve" smooth="yes"/>
			<point x="168" y="92"/>
			<point x="171" y="110"/>
			<point x="176" y="131" type="curve" smooth="yes"/>
			<point x="248" y="476" type="line"/>
			<point x="235" y="487" type="line"/>
			<point x="50" y="435" type="line"/>
			<point x="45" y="407" type="line"/>
			<point x="157" y="391" type="line"/>
			<point x="133" y="424" type="line"/>
			<point x="71" y="125" type="line" smooth="yes"/>
			<point x="64" y="91"/>
			<point x="59" y="63"/>
			<point x="59" y="43" type="curve" smooth="yes"/>
			<point x="59" y="6"/>
			<point x="87" y="-14"/>
			<point x="123" y="-14" type="curve" smooth="yes"/>
			<point x="133" y="-14"/>
			<point x="141" y="-12"/>
			<point x="144" y="-11" type="curve"/>
			<point x="144" y="-12" type="line"/>
			<point x="93" y="-55"/>
			<point x="51" y="-104"/>
			<point x="51" y="-159" type="curve" smooth="yes"/>
			<point x="51" y="-205"/>
			<point x="82" y="-235"/>
		</contour>
		<contour>
			<point x="225" y="597" type="curve" smooth="yes"/>
			<point x="262" y="597"/>
			<point x="295" y="628"/>
			<point x="295" y="670" type="curve" smooth="yes"/>
			<point x="295" y="704"/>
			<point x="271" y="729"/>
			<point x="235" y="729" type="curve" smooth="yes"/>
			<point x="199" y="729"/>
			<point x="166" y="697"/>
			<point x="166" y="656" type="curve" smooth="yes"/>
			<point x="166" y="620"/>
			<point x="193" y="597"/>
		</contour>
	</outline>
</glyph>
<glyph name="dotlessi" format="2">
	<unicode hex="0131"/>
	<advance width="305"/>
	<outline>
		<contour>
			<point x="59" y="43" type="curve" smooth="yes"/>
			<point x="59" y="6"/>
			<point x="87" y="-14"/>
			<point x="123" y="-14" type="curve" smooth="yes"/>
			<point x="198" y="-14"/>
			<point x="253" y="48"/>
			<point x="293" y="109" type="curve"/>
			<point x="268" y="127" type="line"/>
			<point x="233" y="83"/>
			<point x="206" y="62"/>
			<point x="186" y="62" type="curve" smooth="yes"/>
			<point x="177" y="62"/>
			<point x="168" y="69"/>
			<point x="168" y="82" type="curve" smooth="yes"/>
			<point x="168" y="92"/>
			<point x="171" y="110"/>
			<point x="176" y="131" type="curve" smooth="yes"/>
			<point x="248" y="476" type="line"/>
			<point x="235" y="487" type="line"/>
			<point x="50" y="435" type="line"/>
			<point x="45" y="407" type="line"/>
			<point x="149" y="393" type="line"/>
			<point x="131" y="411" type="line"/>
			<point x="71" y="125" type="line" smooth="yes"/>
			<point x="64" y="91"/>
			<point x="59" y="63"/>
		</contour>
	</outline>
	<anchor name="aboveLC" x="194" y="492"/>
	<anchor name="belowLC" x="124" y="-20"/>
	<anchor name="ogonek" x="169" y="0"/>
</glyph>
<glyph name="Lslash" format="2">
	<unicode hex="0141"/>
	<advance width="550"/>
	<outline>
		<contour>
			<point x="420" y="463" type="line"/>
			<point x="199" y="352" type="line"/>
			<point x="188" y="296" type="line"/>
			<point x="410" y="406" type="line"/>
		</contour>
		<contour>
			<point x="188" y="352" type="line"/>
			<point x="30" y="274" type="line"/>
			<point x="19" y="218" type="line"/>
			<point x="176" y="296" type="line"/>
		</contour>
		<component base="L"/>
	</outline>
</glyph>
<glyph name="lslash" format="2">
	<unicode hex="0142"/>
	<advance width="289"/>
	<outline>
		<contour>
			<point x="188" y="416" type="line"/>
			<point x="25" y="337" type="line"/>
			<point x="15" y="285" type="line"/>
			<point x="177" y="365" type="line"/>
		</contour>
		<contour>
			<point x="311" y="467" type="line"/>
			<point x="145" y="385" type="line"/>
			<point x="135" y="335" type="line"/>
			<point x="300" y="416" type="line"/>
		</contour>
		<component base="l"/>
	</outline>
</glyph>
<glyph name="eng" format="2">
	<unicode hex="014B"/>
	<advance width="574"/>
	<outline>
		<contour>
			<point x="57" y="-8" type="line"/>
			<point x="153" y="0" type="line"/>
			<point x="165" y="71"/>
			<point x="177" y="140"/>
			<point x="192" y="209" type="curve" smooth="yes"/>
			<point x="221" y="346" type="line"/>
			<point x="223" y="355" type="line"/>
			<point x="247" y="475" type="line"/>
			<point x="232" y="487" type="line"/>
			<point x="50" y="435" type="line"/>
			<point x="45" y="407" type="line"/>
			<point x="160" y="392" type="line"/>
			<point x="131" y="410" type="line"/>
			<point x="45" y="2" type="line"/>
		</contour>
		<contour>
			<point x="188" y="-245" type="line"/>
			<point x="245" y="-238"/>
			<point x="287" y="-216"/>
			<point x="322" y="-180" type="curve" smooth="yes"/>
			<point x="374" y="-130"/>
			<point x="406" y="-58"/>
			<point x="425" y="36" type="curve" smooth="yes"/>
			<point x="484" y="319" type="line" smooth="yes"/>
			<point x="490" y="351"/>
			<point x="497" y="381"/>
			<point x="497" y="411" type="curve" smooth="yes"/>
			<point x="497" y="461"/>
			<point x="470" y="486"/>
			<point x="428" y="486" type="curve" smooth="yes"/>
			<point x="360" y="486"/>
			<point x="278" y="432"/>
			<point x="208" y="357" type="curve"/>
			<point x="202" y="357" type="line"/>
			<point x="206" y="323" type="line"/>
			<point x="271" y="380"/>
			<point x="322" y="407"/>
			<point x="356" y="407" type="curve" smooth="yes"/>
			<point x="375" y="407"/>
			<point x="387" y="396"/>
			<point x="387" y="370" type="curve" smooth="yes"/>
			<point x="387" y="351"/>
			<point x="381" y="320"/>
			<point x="374" y="288" type="curve" smooth="yes"/>
			<point x="325" y="42" type="line" smooth="yes"/>
			<point x="304" y="-64"/>
			<point x="286" y="-122"/>
			<point x="255" y="-163" type="curve" smooth="yes"/>
			<point x="235" y="-190"/>
			<point x="213" y="-204"/>
			<point x="181" y="-218" type="curve"/>
		</contour>
	</outline>
</glyph>
<glyph name="oe" format="2">
	<unicode hex="0153"/>
	<advance width="750"/>
	<outline>
		<contour>
			<point x="204" y="-14" type="curve" smooth="yes"/>
			<point x="293" y="-14"/>
			<point x="369" y="47"/>
			<point x="413" y="137" type="curve"/>
			<point x="360" y="136" type="line"/>
			<point x="366" y="39"/>
			<point x="430" y="-14"/>
			<point x="512" y="-14" type="curve" smooth="yes"/>
			<point x="601" y="-14"/>
			<point x="669" y="46"/>
			<point x="711" y="123" type="curve"/>
			<point x="689" y="139" type="line"/>
			<point x="660" y="103"/>
			<point x="613" y="68"/>
			<point x="557" y="68" type="curve" smooth="yes"/>
			<point x="495" y="68"/>
			<point x="454" y="106"/>
			<point x="454" y="193" type="curve" smooth="yes"/>
			<point x="454" y="329"/>
			<point x="550" y="444"/>
			<point x="610" y="444" type="curve" smooth="yes"/>
			<point x="637" y="444"/>
			<point x="655" y="425"/>
			<point x="655" y="391" type="curve" smooth="yes"/>
			<point x="655" y="327"/>
			<point x="597" y="252"/>
			<point x="412" y="204" type="curve"/>
			<point x="415" y="172" type="line"/>
			<point x="656" y="229"/>
			<point x="743" y="312"/>
			<point x="743" y="392" type="curve" smooth="yes"/>
			<point x="743" y="451"/>
			<point x="701" y="486"/>
			<point x="629" y="486" type="curve" smooth="yes"/>
			<point x="543" y="486"/>
			<point x="462" y="428"/>
			<point x="414" y="344" type="curve"/>
			<point x="461" y="346" type="line"/>
			<point x="442" y="440"/>
			<point x="377" y="486"/>
			<point x="298" y="486" type="curve" smooth="yes"/>
			<point x="145" y="486"/>
			<point x="30" y="337"/>
			<point x="30" y="168" type="curve" smooth="yes"/>
			<point x="30" y="46"/>
			<point x="105" y="-14"/>
		</contour>
		<contour>
			<point x="214" y="26" type="curve" smooth="yes"/>
			<point x="168" y="26"/>
			<point x="138" y="62"/>
			<point x="138" y="154" type="curve" smooth="yes"/>
			<point x="138" y="301"/>
			<point x="204" y="446"/>
			<point x="289" y="446" type="curve" smooth="yes"/>
			<point x="334" y="446"/>
			<point x="363" y="411"/>
			<point x="363" y="319" type="curve" smooth="yes"/>
			<point x="363" y="176"/>
			<point x="300" y="26"/>
		</contour>
	</outline>
	<anchor name="aboveLC" x="450" y="492"/>
</glyph>
<glyph name="Uogonek" format="2">
	<unicode hex="0172"/>
	<advance width="678"/>
	<outline>
		<contour>
			<point x="92" y="176" type="curve" smooth="yes"/>
			<point x="92" y="43"/>
			<point x="174" y="-17"/>
			<point x="301" y="-17" type="curve" smooth="yes"/>
			<point x="333" y="-17"/>
			<point x="362" y="-13"/>
			<point x="385" y="-5" type="curve"/>
			<point x="385" y="-6" type="line"/>
			<point x="329" y="-51"/>
			<point x="284" y="-99"/>
			<point x="284" y="-156" type="curve" smooth="yes"/>
			<point x="284" y="-202"/>
			<point x="316" y="-233"/>
			<point x="371" y="-233" type="curve" smooth="yes"/>
			<point x="417" y="-233"/>
			<point x="458" y="-208"/>
			<point x="485" y="-178" type="curve"/>
			<point x="473" y="-158" type="line"/>
			<point x="453" y="-170"/>
			<point x="430" y="-178"/>
			<point x="409" y="-178" type="curve" smooth="yes"/>
			<point x="378" y="-178"/>
			<point x="357" y="-160"/>
			<point x="357" y="-125" type="curve" smooth="yes"/>
			<point x="357" y="-73"/>
			<point x="402" y="-19"/>
			<point x="464" y="33" type="curve" smooth="yes"/>
			<point x="517" y="78"/>
			<point x="557" y="146"/>
			<point x="579" y="264" type="curve" smooth="yes"/>
			<point x="653" y="664" type="line"/>
			<point x="603" y="664" type="line"/>
			<point x="530" y="275" type="line" smooth="yes"/>
			<point x="498" y="107"/>
			<point x="442" y="56"/>
			<point x="334" y="56" type="curve" smooth="yes"/>
			<point x="259" y="56"/>
			<point x="208" y="99"/>
			<point x="208" y="184" type="curve" smooth="yes"/>
			<point x="208" y="219"/>
			<point x="213" y="248"/>
			<point x="219" y="280" type="curve" smooth="yes"/>
			<point x="290" y="664" type="line"/>
			<point x="171" y="664" type="line"/>
			<point x="155" y="562"/>
			<point x="138" y="463"/>
			<point x="118" y="357" type="curve" smooth="yes"/>
			<point x="104" y="278" type="line" smooth="yes"/>
			<point x="97" y="241"/>
			<point x="92" y="207"/>
		</contour>
		<contour>
			<point x="86" y="624" type="line"/>
			<point x="206" y="610" type="line"/>
			<point x="235" y="610" type="line"/>
			<point x="361" y="624" type="line"/>
			<point x="369" y="664" type="line"/>
			<point x="93" y="664" type="line"/>
		</contour>
		<contour>
			<point x="504" y="624" type="line"/>
			<point x="607" y="612" type="line"/>
			<point x="628" y="612" type="line"/>
			<point x="724" y="624" type="line"/>
			<point x="732" y="664" type="line"/>
			<point x="512" y="664" type="line"/>
		</contour>
	</outline>
	<anchor name="aboveUC" x="435" y="684"/>
	<anchor name="belowLC" x="302" y="-20"/>
</glyph>
<glyph name="longs" format="2">
	<unicode hex="017F"/>
	<advance width="309"/>
	<outline>
		<contour>
			<point x="-67" y="-246" type="curve" smooth="yes"/>
			<point x="-23" y="-246"/>
			<point x="23" y="-225"/>
			<point x="62" y="-183" type="curve" smooth="yes"/>
			<point x="113" y="-131"/>
			<point x="143" y="-54"/>
			<point x="160" y="47" type="curve" smooth="yes"/>
			<point x="185" y="194"/>
			<point x="208" y="349"/>
			<point x="231" y="496" type="curve" smooth="yes"/>
			<point x="256" y="654"/>
			<point x="300" y="702"/>
			<point x="353" y="722" type="curve"/>
			<point x="353" y="730" type="line"/>
			<point x="317" y="730" type="line"/>
			<point x="317" y="722" type="line"/>
			<point x="349" y="677" type="line" smooth="yes"/>
			<point x="374" y="643"/>
			<point x="394" y="625"/>
			<point x="423" y="625" type="curve" smooth="yes"/>
			<point x="446" y="625"/>
			<point x="469" y="642"/>
			<point x="474" y="671" type="curve"/>
			<point x="465" y="712"/>
			<point x="412" y="744"/>
			<point x="354" y="744" type="curve" smooth="yes"/>
			<point x="263" y="744"/>
			<point x="156" y="676"/>
			<point x="125" y="468" type="curve" smooth="yes"/>
			<point x="103" y="322"/>
			<point x="83" y="183"/>
			<point x="59" y="38" type="curve" smooth="yes"/>
			<point x="46" y="-39"/>
			<point x="32" y="-101"/>
			<point x="9" y="-148" type="curve" smooth="yes"/>
			<point x="-6" y="-178"/>
			<point x="-23" y="-198"/>
			<point x="-41" y="-213" type="curve"/>
			<point x="-41" y="-217" type="line"/>
			<point x="-19" y="-217" type="line"/>
			<point x="-19" y="-213" type="line"/>
			<point x="-46" y="-182" type="line" smooth="yes"/>
			<point x="-69" y="-154"/>
			<point x="-92" y="-134"/>
			<point x="-124" y="-134" type="curve" smooth="yes"/>
			<point x="-152" y="-134"/>
			<point x="-173" y="-152"/>
			<point x="-178" y="-179" type="curve"/>
			<point x="-163" y="-225"/>
			<point x="-119" y="-246"/>
		</contour>
	</outline>
</glyph>
<glyph name="Uhorn" format="2">
	<unicode hex="01AF"/>
	<advance width="678"/>
	<outline>
		<contour>
			<point x="92" y="176" type="curve" smooth="yes"/>
			<point x="92" y="43"/>
			<point x="174" y="-17"/>
			<point x="301" y="-17" type="curve" smooth="yes"/>
			<point x="445" y="-17"/>
			<point x="541" y="60"/>
			<point x="579" y="264" type="curve" smooth="yes"/>
			<point x="653" y="664" type="line"/>
			<point x="603" y="664" type="line"/>
			<point x="530" y="275" type="line" smooth="yes"/>
			<point x="498" y="107"/>
			<point x="442" y="56"/>
			<point x="334" y="56" type="curve" smooth="yes"/>
			<point x="259" y="56"/>
			<point x="208" y="99"/>
			<point x="208" y="184" type="curve" smooth="yes"/>
			<point x="208" y="219"/>
			<point x="213" y="248"/>
			<point x="219" y="280" type="curve" smooth="yes"/>
			<point x="290" y="664" type="line"/>
			<point x="171" y="664" type="line"/>
			<point x="155" y="562"/>
			<point x="138" y="463"/>
			<point x="118" y="357" type="curve" smooth="yes"/>
			<point x="104" y="278" type="line" smooth="yes"/>
			<point x="97" y="241"/>
			<point x="92" y="207"/>
		</contour>
		<contour>
			<point x="625" y="626" type="line"/>
			<point x="721" y="630"/>
			<point x="783" y="678"/>
			<point x="783" y="766" type="curve" smooth="yes"/>
			<point x="783" y="780"/>
			<point x="780" y="793"/>
			<point x="777" y="804" type="curve"/>
			<point x="765" y="814"/>
			<point x="755" y="818"/>
			<point x="741" y="818" type="curve" smooth="yes"/>
			<point x="711" y="818"/>
			<point x="694" y="795"/>
			<point x="694" y="769" type="curve" smooth="yes"/>
			<point x="694" y="740"/>
			<point x="710" y="724"/>
			<point x="710" y="701" type="curve" smooth="yes"/>
			<point x="710" y="674"/>
			<point x="682" y="664"/>
			<point x="626" y="664" type="curve"/>
		</contour>
		<contour>
			<point x="86" y="624" type="line"/>
			<point x="206" y="610" type="line"/>
			<point x="235" y="610" type="line"/>
			<point x="361" y="624" type="line"/>
			<point x="369" y="664" type="line"/>
			<point x="93" y="664" type="line"/>
		</contour>
		<contour>
			<point x="504" y="624" type="line"/>
			<point x="607" y="612" type="line"/>
			<point x="621" y="612" type="line"/>
			<point x="629" y="664" type="line"/>
			<point x="512" y="664" type="line"/>
		</contour>
	</outline>
	<anchor name="aboveUC" x="435" y="684"/>
	<anchor name="belowLC" x="303" y="-20"/>
</glyph>
<glyph name="schwa" format="2">
	<unicode hex="0259"/>
	<advance width="438"/>
	<outline>
		<contour>
			<point x="131" y="-14" type="curve" smooth="yes"/>
			<point x="282" y="-14"/>
			<point x="414" y="142"/>
			<point x="414" y="311" type="curve" smooth="yes"/>
			<point x="414" y="426"/>
			<point x="352" y="486"/>
			<point x="262" y="486" type="curve" smooth="yes"/>
			<point x="170" y="486"/>
			<point x="100" y="425"/>
			<point x="57" y="351" type="curve"/>
			<point x="80" y="334" type="line"/>
			<point x="111" y="373"/>
			<point x="161" y="410"/>
			<point x="220" y="410" type="curve" smooth="yes"/>
			<point x="278" y="410"/>
			<point x="313" y="372"/>
			<point x="313" y="286" type="curve" smooth="yes"/>
			<point x="313" y="146"/>
			<point x="214" y="28"/>
			<point x="154" y="28" type="curve" smooth="yes"/>
			<point x="124" y="28"/>
			<point x="106" y="48"/>
			<point x="106" y="84" type="curve" smooth="yes"/>
			<point x="106" y="152"/>
			<point x="167" y="226"/>
			<point x="354" y="279" type="curve"/>
			<point x="352" y="310" type="line"/>
			<point x="108" y="249"/>
			<point x="18" y="167"/>
			<point x="18" y="84" type="curve" smooth="yes"/>
			<point x="18" y="25"/>
			<point x="57" y="-14"/>
		</contour>
	</outline>
	<anchor name="aboveLC" x="297" y="492"/>
	<anchor name="belowLC" x="197" y="-20"/>
</glyph>
<glyph name="verticallinemod" format="2">
	<unicode hex="02C8"/>
	<advance width="153"/>
	<outline>
		<contour>
			<point x="96" y="542" type="line"/>
			<point x="173" y="542" type="line"/>
			<point x="218" y="740" type="line"/>
			<point x="128" y="740" type="line"/>
		</contour>
	</outline>
</glyph>
<glyph name="s.sups" format="2">
	<unicode hex="02E2"/>
	<advance width="270"/>
	<outline>
		<contour>
			<point x="168" y="424" type="line"/>
			<point x="155" y="470" type="line" smooth="yes"/>
			<point x="148" y="495"/>
			<point x="136" y="506"/>
			<point x="115" y="506" type="curve" smooth="yes"/>
			<point x="97" y="506"/>
			<point x="86" y="495"/>
			<point x="82" y="477" type="curve"/>
			<point x="89" y="435"/>
			<point x="122" y="412"/>
			<point x="176" y="412" type="curve" smooth="yes"/>
			<point x="259" y="412"/>
			<point x="304" y="456"/>
			<point x="304" y="509" type="curve" smooth="yes"/>
			<point x="304" y="546"/>
			<point x="280" y="571"/>
			<point x="245" y="598" type="curve" smooth="yes"/>
			<point x="212" y="622"/>
			<point x="192" y="640"/>
			<point x="192" y="667" type="curve" smooth="yes"/>
			<point x="192" y="692"/>
			<point x="208" y="717"/>
			<point x="247" y="717" type="curve" smooth="yes"/>
			<point x="258" y="717"/>
			<point x="269" y="716"/>
			<point x="277" y="715" type="curve"/>
			<point x="243" y="727" type="line"/>
			<point x="258" y="687" type="line" smooth="yes"/>
			<point x="267" y="662"/>
			<point x="282" y="651"/>
			<point x="299" y="651" type="curve" smooth="yes"/>
			<point x="317" y="651"/>
			<point x="329" y="661"/>
			<point x="331" y="678" type="curve"/>
			<point x="322" y="716"/>
			<point x="293" y="739"/>
			<point x="238" y="739" type="curve" smooth="yes"/>
			<point x="167" y="739"/>
			<point x="124" y="694"/>
			<point x="124" y="639" type="curve" smooth="yes"/>
			<point x="124" y="599"/>
			<point x="153" y="573"/>
			<point x="185" y="548" type="curve" smooth="yes"/>
			<point x="215" y="524"/>
			<point x="233" y="506"/>
			<point x="233" y="483" type="curve" smooth="yes"/>
			<point x="233" y="456"/>
			<point x="210" y="435"/>
			<point x="172" y="435" type="curve" smooth="yes"/>
			<point x="159" y="435"/>
			<point x="146" y="435"/>
			<point x="132" y="438" type="curve"/>
		</contour>
	</outline>
</glyph>
<glyph name="x.sups" format="2">
	<unicode hex="02E3"/>
	<advance width="371"/>
	<outline>
		<contour>
			<point x="253" y="461" type="line" smooth="yes"/>
			<point x="267" y="421"/>
			<point x="284" y="408"/>
			<point x="312" y="408" type="curve" smooth="yes"/>
			<point x="354" y="408"/>
			<point x="392" y="445"/>
			<point x="420" y="494" type="curve"/>
			<point x="402" y="506" type="line"/>
			<point x="382" y="479"/>
			<point x="363" y="463"/>
			<point x="348" y="463" type="curve" smooth="yes"/>
			<point x="335" y="463"/>
			<point x="326" y="470"/>
			<point x="319" y="493" type="curve" smooth="yes"/>
			<point x="282" y="603" type="line"/>
			<point x="280" y="606" type="line"/>
			<point x="256" y="678" type="line" smooth="yes"/>
			<point x="243" y="718"/>
			<point x="230" y="736"/>
			<point x="197" y="736" type="curve" smooth="yes"/>
			<point x="163" y="736"/>
			<point x="133" y="708"/>
			<point x="106" y="659" type="curve"/>
			<point x="121" y="646" type="line"/>
			<point x="137" y="670"/>
			<point x="153" y="678"/>
			<point x="163" y="678" type="curve" smooth="yes"/>
			<point x="175" y="678"/>
			<point x="181" y="670"/>
			<point x="188" y="648" type="curve" smooth="yes"/>
			<point x="225" y="543" type="line"/>
			<point x="226" y="540" type="line"/>
		</contour>
		<contour>
			<point x="57" y="460" type="curve"/>
			<point x="61" y="424"/>
			<point x="89" y="409"/>
			<point x="115" y="409" type="curve" smooth="yes"/>
			<point x="139" y="409"/>
			<point x="155" y="420"/>
			<point x="171" y="441" type="curve" smooth="yes"/>
			<point x="197" y="473"/>
			<point x="223" y="514"/>
			<point x="256" y="571" type="curve"/>
			<point x="249" y="591" type="line"/>
			<point x="219" y="549"/>
			<point x="181" y="493"/>
			<point x="151" y="460" type="curve" smooth="yes"/>
			<point x="144" y="451"/>
			<point x="137" y="446"/>
			<point x="130" y="441" type="curve"/>
			<point x="130" y="435" type="line"/>
			<point x="152" y="436" type="line"/>
			<point x="141" y="457" type="line" smooth="yes"/>
			<point x="126" y="483"/>
			<point x="115" y="493"/>
			<point x="96" y="493" type="curve" smooth="yes"/>
			<point x="78" y="493"/>
			<point x="62" y="482"/>
		</contour>
		<contour>
			<point x="262" y="556" type="line"/>
			<point x="290" y="596"/>
			<point x="327" y="651"/>
			<point x="357" y="685" type="curve" smooth="yes"/>
			<point x="365" y="694"/>
			<point x="373" y="699"/>
			<point x="380" y="705" type="curve"/>
			<point x="380" y="709" type="line"/>
			<point x="353" y="706" type="line"/>
			<point x="367" y="684" type="line" smooth="yes"/>
			<point x="379" y="664"/>
			<point x="393" y="655"/>
			<point x="411" y="655" type="curve" smooth="yes"/>
			<point x="431" y="655"/>
			<point x="446" y="671"/>
			<point x="448" y="696" type="curve"/>
			<point x="442" y="724"/>
			<point x="418" y="736"/>
			<point x="397" y="736" type="curve" smooth="yes"/>
			<point x="372" y="736"/>
			<point x="355" y="726"/>
			<point x="336" y="702" type="curve" smooth="yes"/>
			<point x="317" y="677"/>
			<point x="287" y="633"/>
			<point x="254" y="575" type="curve"/>
		</contour>
	</outline>
</glyph>
<glyph name="gravecmb" format="2">
	<unicode hex="0300"/>
	<outline>
		<contour>
			<point x="136" y="549" type="line"/>
			<point x="118" y="601"/>
			<point x="101" y="650"/>
			<point x="83" y="702" type="curve" smooth="yes"/>
			<point x="67" y="745"/>
			<point x="50" y="760"/>
			<point x="21" y="760" type="curve" smooth="yes"/>
			<point x="-4" y="760"/>
			<point x="-25" y="741"/>
			<point x="-25" y="715" type="curve" smooth="yes"/>
			<point x="-25" y="693"/>
			<point x="-13" y="676"/>
			<point x="9" y="653" type="curve" smooth="yes"/>
			<point x="44" y="611"/>
			<point x="77" y="575"/>
			<point x="112" y="535" type="curve"/>
		</contour>
	</outline>
	<anchor name="_aboveLC" x="105" y="492"/>
	<anchor name="aboveLC" x="161" y="760"/>
</glyph>
<glyph name="acutecmb" format="2">
	<unicode hex="0301"/>
	<outline>
		<contour>
			<point x="37" y="550" type="curve"/>
			<point x="61" y="535" type="line"/>
			<point x="98" y="574"/>
			<point x="134" y="611"/>
			<point x="170" y="650" type="curve" smooth="yes"/>
			<point x="194" y="674"/>
			<point x="206" y="695"/>
			<point x="206" y="716" type="curve" smooth="yes"/>
			<point x="206" y="744"/>
			<point x="184" y="760"/>
			<point x="160" y="760" type="curve" smooth="yes"/>
			<point x="134" y="760"/>
			<point x="114" y="742"/>
			<point x="98" y="702" type="curve" smooth="yes"/>
			<point x="78" y="651"/>
			<point x="58" y="601"/>
		</contour>
	</outline>
	<anchor name="_aboveLC" x="45" y="492"/>
	<anchor name="aboveLC" x="103" y="760"/>
</glyph>
<glyph name="circumflexcmb" format="2">
	<unicode hex="0302"/>
	<outline>
		<contour>
			<point x="189" y="541" type="line"/>
			<point x="215" y="562" type="line"/>
			<point x="116" y="738" type="line"/>
			<point x="70" y="738" type="line"/>
			<point x="-88" y="564" type="line"/>
			<point x="-67" y="541" type="line"/>
			<point x="114" y="680" type="line"/>
			<point x="54" y="680" type="line"/>
		</contour>
	</outline>
	<anchor name="_aboveLC" x="45" y="492"/>
	<anchor name="aboveLC" x="98" y="738"/>
</glyph>
<glyph name="tildecmb" format="2">
	<unicode hex="0303"/>
	<outline>
		<contour>
			<point x="-42" y="579" type="curve"/>
			<point x="-15" y="568" type="line"/>
			<point x="2" y="617"/>
			<point x="26" y="642"/>
			<point x="54" y="642" type="curve" smooth="yes"/>
			<point x="82" y="642"/>
			<point x="102" y="621"/>
			<point x="122" y="601" type="curve" smooth="yes"/>
			<point x="140" y="583"/>
			<point x="162" y="566"/>
			<point x="198" y="566" type="curve" smooth="yes"/>
			<point x="251" y="566"/>
			<point x="291" y="607"/>
			<point x="312" y="697" type="curve"/>
			<point x="284" y="708" type="line"/>
			<point x="268" y="659"/>
			<point x="243" y="634"/>
			<point x="217" y="634" type="curve" smooth="yes"/>
			<point x="189" y="634"/>
			<point x="170" y="655"/>
			<point x="149" y="675" type="curve" smooth="yes"/>
			<point x="131" y="693"/>
			<point x="110" y="710"/>
			<point x="72" y="710" type="curve" smooth="yes"/>
			<point x="21" y="710"/>
			<point x="-22" y="667"/>
		</contour>
	</outline>
	<anchor name="_aboveLC" x="105" y="492"/>
	<anchor name="aboveLC" x="151" y="710"/>
</glyph>
<glyph name="brevecmb" format="2">
	<unicode hex="0306"/>
	<outline>
		<contour>
			<point x="61" y="560" type="curve" smooth="yes"/>
			<point x="159" y="560"/>
			<point x="212" y="638"/>
			<point x="232" y="708" type="curve"/>
			<point x="199" y="719" type="line"/>
			<point x="171" y="667"/>
			<point x="128" y="633"/>
			<point x="67" y="633" type="curve" smooth="yes"/>
			<point x="8" y="633"/>
			<point x="-24" y="669"/>
			<point x="-40" y="719" type="curve"/>
			<point x="-74" y="706" type="line"/>
			<point x="-72" y="630"/>
			<point x="-35" y="560"/>
		</contour>
	</outline>
	<anchor name="_aboveLC" x="45" y="492"/>
	<anchor name="aboveLC" x="94" y="719"/>
</glyph>
<glyph name="dieresiscmb" format="2">
	<unicode hex="0308"/>
	<outline>
		<contour>
			<point x="-25" y="600" type="curve" smooth="yes"/>
			<point x="9" y="600"/>
			<point x="40" y="626"/>
			<point x="40" y="667" type="curve" smooth="yes"/>
			<point x="40" y="698"/>
			<point x="17" y="718"/>
			<point x="-13" y="718" type="curve" smooth="yes"/>
			<point x="-46" y="718"/>
			<point x="-78" y="693"/>
			<point x="-78" y="652" type="curve" smooth="yes"/>
			<point x="-78" y="619"/>
			<point x="-53" y="600"/>
		</contour>
		<contour>
			<point x="176" y="600" type="curve" smooth="yes"/>
			<point x="210" y="600"/>
			<point x="241" y="626"/>
			<point x="241" y="667" type="curve" smooth="yes"/>
			<point x="241" y="698"/>
			<point x="217" y="718"/>
			<point x="187" y="718" type="curve" smooth="yes"/>
			<point x="155" y="718"/>
			<point x="123" y="693"/>
			<point x="123" y="652" type="curve" smooth="yes"/>
			<point x="123" y="619"/>
			<point x="148" y="600"/>
		</contour>
	</outline>
	<anchor name="_aboveLC" x="45" y="492"/>
	<anchor name="aboveLC" x="94" y="718"/>
</glyph>
<glyph name="ringcmb" format="2">
	<unicode hex="030A"/>
	<outline>
		<contour>
			<point x="129" y="545" type="curve" smooth="yes"/>
			<point x="186" y="545"/>
			<point x="246" y="587"/>
			<point x="246" y="662" type="curve" smooth="yes"/>
			<point x="246" y="718"/>
			<point x="200" y="753"/>
			<point x="147" y="753" type="curve" smooth="yes"/>
			<point x="89" y="753"/>
			<point x="29" y="710"/>
			<point x="29" y="637" type="curve" smooth="yes"/>
			<point x="29" y="581"/>
			<point x="73" y="545"/>
		</contour>
		<contour>
			<point x="130" y="584" type="curve" smooth="yes"/>
			<point x="94" y="584"/>
			<point x="76" y="610"/>
			<point x="76" y="640" type="curve" smooth="yes"/>
			<point x="76" y="677"/>
			<point x="103" y="714"/>
			<point x="144" y="714" type="curve" smooth="yes"/>
			<point x="181" y="714"/>
			<point x="199" y="686"/>
			<point x="199" y="658" type="curve" smooth="yes"/>
			<point x="199" y="618"/>
			<point x="169" y="584"/>
		</contour>
	</outline>
	<anchor name="_aboveLC" x="105" y="492"/>
	<anchor name="aboveLC" x="159" y="753"/>
</glyph>
<glyph name="hungarumlautcmb" format="2">
	<unicode hex="030B"/>
	<outline>
		<contour>
			<point x="-45" y="566" type="line"/>
			<point x="-19" y="547" type="line"/>
			<point x="92" y="657" type="line" smooth="yes"/>
			<point x="121" y="685"/>
			<point x="129" y="704"/>
			<point x="129" y="724" type="curve" smooth="yes"/>
			<point x="129" y="746"/>
			<point x="114" y="760"/>
			<point x="90" y="760" type="curve" smooth="yes"/>
			<point x="69" y="760"/>
			<point x="50" y="745"/>
			<point x="30" y="706" type="curve" smooth="yes"/>
		</contour>
		<contour>
			<point x="105" y="566" type="line"/>
			<point x="132" y="547" type="line"/>
			<point x="243" y="657" type="line" smooth="yes"/>
			<point x="272" y="685"/>
			<point x="280" y="704"/>
			<point x="280" y="724" type="curve" smooth="yes"/>
			<point x="280" y="746"/>
			<point x="264" y="760"/>
			<point x="241" y="760" type="curve" smooth="yes"/>
			<point x="220" y="760"/>
			<point x="201" y="745"/>
			<point x="180" y="706" type="curve" smooth="yes"/>
		</contour>
	</outline>
	<anchor name="_aboveLC" x="45" y="492"/>
	<anchor name="aboveLC" x="103" y="760"/>
</glyph>
<glyph name="caroncmb" format="2">
	<unicode hex="030C"/>
	<outline>
		<contour>
			<point x="-30" y="749" type="line"/>
			<point x="-58" y="729" type="line"/>
			<point x="34" y="551" type="line"/>
			<point x="83" y="551" type="line"/>
			<point x="239" y="727" type="line"/>
			<point x="217" y="749" type="line"/>
			<point x="38" y="611" type="line"/>
			<point x="93" y="611" type="line"/>
		</contour>
	</outline>
	<anchor name="_aboveLC" x="45" y="492"/>
	<anchor name="aboveLC" x="100" y="749"/>
</glyph>
<glyph name="horncmb" format="2">
	<unicode hex="031B"/>
	<outline>
		<contour>
			<point x="101" y="472" type="line"/>
			<point x="192" y="482"/>
			<point x="275" y="552"/>
			<point x="275" y="649" type="curve" smooth="yes"/>
			<point x="275" y="664"/>
			<point x="273" y="675"/>
			<point x="269" y="688" type="curve"/>
			<point x="258" y="699"/>
			<point x="246" y="701"/>
			<point x="232" y="701" type="curve" smooth="yes"/>
			<point x="203" y="701"/>
			<point x="182" y="680"/>
			<point x="182" y="652" type="curve" smooth="yes"/>
			<point x="182" y="626"/>
			<point x="200" y="607"/>
			<point x="200" y="581" type="curve" smooth="yes"/>
			<point x="200" y="540"/>
			<point x="158" y="513"/>
			<point x="101" y="504" type="curve"/>
		</contour>
	</outline>
	<anchor name="_hornLC" x="101" y="472"/>
</glyph>
<glyph name="commabelowcmb" format="2">
	<unicode hex="0326"/>
	<outline>
		<contour>
			<point x="-23" y="-102" type="curve" smooth="yes"/>
			<point x="-23" y="-90"/>
			<point x="-25" y="-80"/>
			<point x="-29" y="-69" type="curve"/>
			<point x="-40" y="-58"/>
			<point x="-53" y="-52"/>
			<point x="-70" y="-52" type="curve" smooth="yes"/>
			<point x="-110" y="-52"/>
			<point x="-131" y="-80"/>
			<point x="-131" y="-111" type="curve" smooth="yes"/>
			<point x="-131" y="-140"/>
			<point x="-112" y="-165"/>
			<point x="-71" y="-176" type="curve"/>
			<point x="-75" y="-152" type="line"/>
			<point x="-89" y="-182"/>
			<point x="-106" y="-200"/>
			<point x="-151" y="-218" type="curve"/>
			<point x="-140" y="-248" type="line"/>
			<point x="-67" y="-225"/>
			<point x="-23" y="-182"/>
		</contour>
	</outline>
	<anchor name="_belowLC" x="-63" y="-20"/>
	<anchor name="belowLC" x="-112" y="-248"/>
</glyph>
<glyph name="cedillacmb" format="2">
	<unicode hex="0327"/>
	<outline>
		<contour>
			<point x="-109" y="-85" type="line"/>
			<point x="-66" y="-93"/>
			<point x="-42" y="-110"/>
			<point x="-42" y="-142" type="curve" smooth="yes"/>
			<point x="-42" y="-172"/>
			<point x="-65" y="-192"/>
			<point x="-102" y="-192" type="curve" smooth="yes"/>
			<point x="-123" y="-192"/>
			<point x="-141" y="-187"/>
			<point x="-160" y="-179" type="curve"/>
			<point x="-172" y="-208" type="line"/>
			<point x="-153" y="-219"/>
			<point x="-123" y="-228"/>
			<point x="-89" y="-228" type="curve" smooth="yes"/>
			<point x="-18" y="-228"/>
			<point x="24" y="-192"/>
			<point x="24" y="-146" type="curve" smooth="yes"/>
			<point x="24" y="-100"/>
			<point x="-10" y="-75"/>
			<point x="-81" y="-56" type="curve"/>
			<point x="-73" y="-78" type="line"/>
			<point x="-38" y="0" type="line"/>
			<point x="-70" y="0" type="line"/>
		</contour>
	</outline>
	<anchor name="_baseLC" x="-59" y="0"/>
</glyph>
<glyph name="ogonekcmb" format="2">
	<unicode hex="0328"/>
	<outline>
		<contour>
			<point x="-179" y="-156" type="curve" smooth="yes"/>
			<point x="-179" y="-202"/>
			<point x="-147" y="-233"/>
			<point x="-92" y="-233" type="curve" smooth="yes"/>
			<point x="-45" y="-233"/>
			<point x="-4" y="-208"/>
			<point x="23" y="-178" type="curve"/>
			<point x="11" y="-158" type="line"/>
			<point x="-9" y="-170"/>
			<point x="-33" y="-178"/>
			<point x="-54" y="-178" type="curve" smooth="yes"/>
			<point x="-84" y="-178"/>
			<point x="-105" y="-160"/>
			<point x="-105" y="-125" type="curve" smooth="yes"/>
			<point x="-105" y="-78"/>
			<point x="-72" y="-32"/>
			<point x="-26" y="11" type="curve"/>
			<point x="-58" y="13" type="line"/>
			<point x="-58" y="8" type="line"/>
			<point x="-122" y="-40"/>
			<point x="-179" y="-93"/>
		</contour>
	</outline>
	<anchor name="_ogonek" x="-59" y="0"/>
</glyph>
<glyph name="verticallinebelowcmb" format="2">
	<unicode hex="0329"/>
	<outline>
		<contour>
			<point x="-154" y="-262" type="line"/>
			<point x="-64" y="-262" type="line"/>
			<point x="-34" y="-66" type="line"/>
			<point x="-111" y="-66" type="line"/>
		</contour>
	</outline>
	<anchor name="_belowLC" x="-63" y="-20"/>
	<anchor name="belowLC" x="-115" y="-262"/>
</glyph>
<glyph name="Delta" format="2">
	<unicode hex="0394"/>
	<unicode hex="2206"/>
	<advance width="588"/>
	<outline>
		<contour>
			<point x="-16" y="0" type="line"/>
			<point x="513" y="0" type="line"/>
			<point x="524" y="60" type="line"/>
			<point x="403" y="665" type="line"/>
			<point x="334" y="665" type="line"/>
			<point x="-3" y="60" type="line"/>
		</contour>
		<contour>
			<point x="44" y="56" type="line"/>
			<point x="322" y="569" type="line"/>
			<point x="328" y="580" type="line"/>
			<point x="311" y="580" type="line"/>
			<point x="411" y="52" type="line"/>
			<point x="430" y="81" type="line"/>
			<point x="32" y="81" type="line"/>
		</contour>
	</outline>
</glyph>
<glyph name="Xi" format="2">
	<unicode hex="039E"/>
	<advance width="571"/>
	<outline>
		<contour>
			<point x="-4" y="0" type="line"/>
			<point x="477" y="0" type="line"/>
			<point x="520" y="192" type="line"/>
			<point x="468" y="192" type="line"/>
			<point x="407" y="43" type="line"/>
			<point x="462" y="89" type="line"/>
			<point x="35" y="89" type="line"/>
			<point x="83" y="43" type="line"/>
			<point x="75" y="192" type="line"/>
			<point x="23" y="192" type="line"/>
		</contour>
		<contour>
			<point x="83" y="479" type="line"/>
			<point x="130" y="479" type="line"/>
			<point x="189" y="617" type="line"/>
			<point x="139" y="575" type="line"/>
			<point x="543" y="575" type="line"/>
			<point x="510" y="617" type="line"/>
			<point x="520" y="479" type="line"/>
			<point x="567" y="479" type="line"/>
			<point x="593" y="664" type="line"/>
			<point x="123" y="664" type="line"/>
		</contour>
		<contour>
			<point x="129" y="233" type="line"/>
			<point x="169" y="233" type="line"/>
			<point x="207" y="328" type="line"/>
			<point x="210" y="347" type="line"/>
			<point x="208" y="438" type="line"/>
			<point x="168" y="438" type="line"/>
		</contour>
		<contour>
			<point x="392" y="233" type="line"/>
			<point x="433" y="233" type="line"/>
			<point x="472" y="438" type="line"/>
			<point x="431" y="438" type="line"/>
			<point x="393" y="345" type="line"/>
			<point x="390" y="326" type="line"/>
		</contour>
		<contour>
			<point x="181" y="303" type="line"/>
			<point x="410" y="303" type="line"/>
			<point x="423" y="370" type="line"/>
			<point x="194" y="370" type="line"/>
		</contour>
	</outline>
</glyph>
<glyph name="Sigma" format="2">
	<unicode hex="03A3"/>
	<advance width="556"/>
	<outline>
		<contour>
			<point x="1" y="0" type="line"/>
			<point x="475" y="0" type="line"/>
			<point x="521" y="227" type="line"/>
			<point x="465" y="227" type="line"/>
			<point x="393" y="51" type="line"/>
			<point x="457" y="93" type="line"/>
			<point x="105" y="93" type="line"/>
			<point x="106" y="116" type="line"/>
			<point x="84" y="62" type="line"/>
			<point x="225" y="209" type="line"/>
			<point x="364" y="355" type="line"/>
			<point x="220" y="651" type="line"/>
			<point x="232" y="600" type="line"/>
			<point x="232" y="617" type="line"/>
			<point x="383" y="617" type="line"/>
			<point x="528" y="617" type="line"/>
			<point x="479" y="660" type="line"/>
			<point x="490" y="480" type="line"/>
			<point x="544" y="480" type="line"/>
			<point x="570" y="664" type="line"/>
			<point x="117" y="664" type="line"/>
			<point x="111" y="626" type="line"/>
			<point x="275" y="293" type="line"/>
			<point x="288" y="348" type="line"/>
			<point x="12" y="57" type="line"/>
		</contour>
	</outline>
</glyph>
<glyph name="alpha" format="2">
	<unicode hex="03B1"/>
	<advance width="573"/>
	<outline>
		<contour>
			<point x="129" y="-14" type="curve" smooth="yes"/>
			<point x="201" y="-14"/>
			<point x="270" y="46"/>
			<point x="354" y="189" type="curve"/>
			<point x="360" y="189" type="line"/>
			<point x="338" y="216" type="line"/>
			<point x="271" y="118"/>
			<point x="217" y="66"/>
			<point x="176" y="66" type="curve" smooth="yes"/>
			<point x="150" y="66"/>
			<point x="131" y="91"/>
			<point x="131" y="157" type="curve" smooth="yes"/>
			<point x="131" y="278"/>
			<point x="194" y="434"/>
			<point x="260" y="434" type="curve" smooth="yes"/>
			<point x="286" y="434"/>
			<point x="300" y="413"/>
			<point x="307" y="350" type="curve" smooth="yes"/>
			<point x="329" y="86" type="line" smooth="yes"/>
			<point x="335" y="14"/>
			<point x="361" y="-14"/>
			<point x="410" y="-14" type="curve" smooth="yes"/>
			<point x="455" y="-14"/>
			<point x="502" y="14"/>
			<point x="541" y="70" type="curve"/>
			<point x="522" y="93" type="line"/>
			<point x="500" y="72"/>
			<point x="481" y="62"/>
			<point x="466" y="62" type="curve" smooth="yes"/>
			<point x="443" y="62"/>
			<point x="433" y="74"/>
			<point x="425" y="132" type="curve" smooth="yes"/>
			<point x="409" y="244" type="line"/>
			<point x="406" y="264" type="line"/>
			<point x="395" y="358" type="line" smooth="yes"/>
			<point x="384" y="446"/>
			<point x="346" y="486"/>
			<point x="275" y="486" type="curve" smooth="yes"/>
			<point x="136" y="486"/>
			<point x="24" y="293"/>
			<point x="24" y="129" type="curve" smooth="yes"/>
			<point x="24" y="39"/>
			<point x="63" y="-14"/>
		</contour>
		<contour>
			<point x="399" y="209" type="line"/>
			<point x="579" y="436" type="line"/>
			<point x="579" y="448" type="line"/>
			<point x="495" y="487" type="line"/>
			<point x="382" y="256" type="line"/>
		</contour>
	</outline>
	<anchor name="aboveLC" x="301" y="492"/>
	<anchor name="belowLC" x="263" y="-20"/>
</glyph>
<glyph name="epsilon" format="2">
	<unicode hex="03B5"/>
	<advance width="429"/>
	<outline>
		<contour>
			<point x="182" y="-14" type="curve" smooth="yes"/>
			<point x="274" y="-14"/>
			<point x="348" y="26"/>
			<point x="402" y="93" type="curve"/>
			<point x="382" y="115" type="line"/>
			<point x="330" y="75"/>
			<point x="282" y="59"/>
			<point x="221" y="59" type="curve" smooth="yes"/>
			<point x="159" y="59"/>
			<point x="128" y="81"/>
			<point x="128" y="128" type="curve" smooth="yes"/>
			<point x="128" y="181"/>
			<point x="178" y="218"/>
			<point x="269" y="218" type="curve" smooth="yes"/>
			<point x="288" y="218"/>
			<point x="304" y="218"/>
			<point x="316" y="217" type="curve"/>
			<point x="328" y="286" type="line"/>
			<point x="304" y="284"/>
			<point x="296" y="284"/>
			<point x="273" y="284" type="curve" smooth="yes"/>
			<point x="208" y="284"/>
			<point x="171" y="315"/>
			<point x="171" y="360" type="curve" smooth="yes"/>
			<point x="171" y="418"/>
			<point x="217" y="449"/>
			<point x="281" y="449" type="curve" smooth="yes"/>
			<point x="302" y="449"/>
			<point x="320" y="448"/>
			<point x="343" y="444" type="curve"/>
			<point x="337" y="464" type="line"/>
			<point x="258" y="462" type="line"/>
			<point x="303" y="411" type="line" smooth="yes"/>
			<point x="326" y="385"/>
			<point x="348" y="371"/>
			<point x="373" y="371" type="curve" smooth="yes"/>
			<point x="403" y="371"/>
			<point x="429" y="391"/>
			<point x="431" y="430" type="curve"/>
			<point x="411" y="463"/>
			<point x="361" y="486"/>
			<point x="275" y="486" type="curve" smooth="yes"/>
			<point x="151" y="486"/>
			<point x="68" y="430"/>
			<point x="68" y="348" type="curve" smooth="yes"/>
			<point x="68" y="285"/>
			<point x="118" y="243"/>
			<point x="208" y="238" type="curve"/>
			<point x="212" y="247" type="line"/>
			<point x="101" y="245"/>
			<point x="15" y="190"/>
			<point x="15" y="108" type="curve" smooth="yes"/>
			<point x="15" y="29"/>
			<point x="82" y="-14"/>
		</contour>
	</outline>
	<anchor name="aboveLC" x="277" y="492"/>
	<anchor name="belowLC" x="182" y="-20"/>
</glyph>
<glyph name="eta" format="2">
	<unicode hex="03B7"/>
	<advance width="521"/>
	<outline>
		<contour>
			<point x="41" y="1" type="curve"/>
			<point x="52" y="-10" type="line"/>
			<point x="154" y="1" type="line"/>
			<point x="224" y="346" type="line"/>
			<point x="239" y="434"/>
			<point x="218" y="485"/>
			<point x="158" y="485" type="curve" smooth="yes"/>
			<point x="117" y="485"/>
			<point x="83" y="466"/>
			<point x="31" y="414" type="curve"/>
			<point x="44" y="389" type="line"/>
			<point x="67" y="399"/>
			<point x="82" y="405"/>
			<point x="102" y="405" type="curve" smooth="yes"/>
			<point x="126" y="405"/>
			<point x="132" y="382"/>
			<point x="122" y="330" type="curve" smooth="yes"/>
			<point x="102" y="236"/>
			<point x="81" y="149"/>
		</contour>
		<contour>
			<point x="260" y="-187" type="line"/>
			<point x="271" y="-198" type="line"/>
			<point x="381" y="-179" type="line"/>
			<point x="441" y="118" type="line" smooth="yes"/>
			<point x="476" y="297"/>
			<point x="483" y="340"/>
			<point x="483" y="389" type="curve" smooth="yes"/>
			<point x="483" y="450"/>
			<point x="453" y="485"/>
			<point x="398" y="485" type="curve" smooth="yes"/>
			<point x="342" y="485"/>
			<point x="275" y="440"/>
			<point x="207" y="349" type="curve"/>
			<point x="195" y="349" type="line"/>
			<point x="202" y="312" type="line"/>
			<point x="251" y="370"/>
			<point x="300" y="401"/>
			<point x="341" y="401" type="curve" smooth="yes"/>
			<point x="370" y="401"/>
			<point x="387" y="385"/>
			<point x="387" y="352" type="curve" smooth="yes"/>
			<point x="387" y="311"/>
			<point x="372" y="246"/>
			<point x="315" y="24" type="curve" smooth="yes"/>
		</contour>
	</outline>
	<anchor name="aboveLC" x="301" y="492"/>
	<anchor name="belowLC" x="95" y="-20"/>
</glyph>
<glyph name="iota" format="2">
	<unicode hex="03B9"/>
	<advance width="283"/>
	<outline>
		<contour>
			<point x="133" y="-14" type="curve" smooth="yes"/>
			<point x="173" y="-14"/>
			<point x="213" y="12"/>
			<point x="253" y="66" type="curve"/>
			<point x="235" y="89" type="line"/>
			<point x="216" y="72"/>
			<point x="200" y="62"/>
			<point x="184" y="62" type="curve" smooth="yes"/>
			<point x="164" y="62"/>
			<point x="155" y="74"/>
			<point x="155" y="99" type="curve" smooth="yes"/>
			<point x="155" y="139"/>
			<point x="173" y="217"/>
			<point x="211" y="356" type="curve" smooth="yes"/>
			<point x="243" y="474" type="line"/>
			<point x="234" y="485" type="line"/>
			<point x="124" y="464" type="line"/>
			<point x="82" y="252" type="line" smooth="yes"/>
			<point x="57" y="121"/>
			<point x="54" y="96"/>
			<point x="54" y="74" type="curve" smooth="yes"/>
			<point x="54" y="17"/>
			<point x="83" y="-14"/>
		</contour>
	</outline>
	<anchor name="aboveLC" x="192" y="492"/>
</glyph>
<glyph name="kappa" format="2">
	<unicode hex="03BA"/>
	<advance width="517"/>
	<outline>
		<contour>
			<point x="40" y="1" type="curve"/>
			<point x="51" y="-10" type="line"/>
			<point x="153" y="1" type="line"/>
			<point x="223" y="346" type="line" smooth="yes"/>
			<point x="241" y="433"/>
			<point x="217" y="485"/>
			<point x="157" y="485" type="curve" smooth="yes"/>
			<point x="117" y="485"/>
			<point x="82" y="466"/>
			<point x="30" y="414" type="curve"/>
			<point x="44" y="389" type="line"/>
			<point x="67" y="399"/>
			<point x="82" y="405"/>
			<point x="101" y="405" type="curve" smooth="yes"/>
			<point x="126" y="405"/>
			<point x="132" y="382"/>
			<point x="121" y="331" type="curve" smooth="yes"/>
			<point x="102" y="237"/>
			<point x="80" y="149"/>
		</contour>
		<contour>
			<point x="375" y="-14" type="curve" smooth="yes"/>
			<point x="420" y="-14"/>
			<point x="464" y="17"/>
			<point x="499" y="69" type="curve"/>
			<point x="481" y="92" type="line"/>
			<point x="462" y="74"/>
			<point x="443" y="62"/>
			<point x="428" y="62" type="curve" smooth="yes"/>
			<point x="407" y="62"/>
			<point x="394" y="71"/>
			<point x="382" y="107" type="curve" smooth="yes"/>
			<point x="367" y="150" type="line" smooth="yes"/>
			<point x="347" y="207"/>
			<point x="310" y="234"/>
			<point x="247" y="243" type="curve" smooth="yes"/>
			<point x="205" y="249" type="line"/>
			<point x="200" y="238" type="line"/>
			<point x="427" y="344" type="line" smooth="yes"/>
			<point x="497" y="375"/>
			<point x="517" y="395"/>
			<point x="517" y="428" type="curve" smooth="yes"/>
			<point x="517" y="457"/>
			<point x="495" y="479"/>
			<point x="463" y="483" type="curve"/>
			<point x="184" y="245" type="line"/>
			<point x="188" y="227" type="line"/>
			<point x="203" y="223" type="line" smooth="yes"/>
			<point x="235" y="215"/>
			<point x="253" y="194"/>
			<point x="271" y="127" type="curve" smooth="yes"/>
			<point x="287" y="67" type="line" smooth="yes"/>
			<point x="303" y="10"/>
			<point x="331" y="-14"/>
		</contour>
	</outline>
</glyph>
<glyph name="omicron" format="2">
	<unicode hex="03BF"/>
	<advance width="493"/>
	<outline>
		<contour>
			<point x="206" y="-14" type="curve" smooth="yes"/>
			<point x="355" y="-14"/>
			<point x="468" y="139"/>
			<point x="468" y="305" type="curve" smooth="yes"/>
			<point x="468" y="427"/>
			<point x="392" y="486"/>
			<point x="295" y="486" type="curve" smooth="yes"/>
			<point x="144" y="486"/>
			<point x="30" y="337"/>
			<point x="30" y="168" type="curve" smooth="yes"/>
			<point x="30" y="46"/>
			<point x="109" y="-14"/>
		</contour>
		<contour>
			<point x="212" y="26" type="curve" smooth="yes"/>
			<point x="168" y="26"/>
			<point x="138" y="62"/>
			<point x="138" y="154" type="curve" smooth="yes"/>
			<point x="138" y="301"/>
			<point x="203" y="446"/>
			<point x="287" y="446" type="curve" smooth="yes"/>
			<point x="331" y="446"/>
			<point x="360" y="411"/>
			<point x="360" y="319" type="curve" smooth="yes"/>
			<point x="360" y="176"/>
			<point x="297" y="26"/>
		</contour>
	</outline>
	<anchor name="aboveLC" x="298" y="492"/>
</glyph>
<glyph name="rho" format="2">
	<unicode hex="03C1"/>
	<advance width="515"/>
	<outline>
		<contour>
			<point x="-7" y="-197" type="line"/>
			<point x="103" y="-180" type="line"/>
			<point x="137" y="68" type="line"/>
			<point x="142" y="71" type="line"/>
			<point x="187" y="289" type="line" smooth="yes"/>
			<point x="210" y="397"/>
			<point x="249" y="446"/>
			<point x="302" y="446" type="curve" smooth="yes"/>
			<point x="352" y="446"/>
			<point x="380" y="399"/>
			<point x="380" y="310" type="curve" smooth="yes"/>
			<point x="380" y="161"/>
			<point x="319" y="44"/>
			<point x="231" y="44" type="curve" smooth="yes"/>
			<point x="186" y="44"/>
			<point x="152" y="67"/>
			<point x="126" y="111" type="curve"/>
			<point x="115" y="90" type="line"/>
			<point x="135" y="23"/>
			<point x="188" y="-14"/>
			<point x="248" y="-14" type="curve" smooth="yes"/>
			<point x="380" y="-14"/>
			<point x="488" y="128"/>
			<point x="488" y="289" type="curve" smooth="yes"/>
			<point x="488" y="420"/>
			<point x="417" y="486"/>
			<point x="312" y="486" type="curve" smooth="yes"/>
			<point x="188" y="486"/>
			<point x="107" y="399"/>
			<point x="75" y="252" type="curve" smooth="yes"/>
			<point x="-21" y="-187" type="line"/>
		</contour>
	</outline>
	<anchor name="aboveLC" x="311" y="492"/>
</glyph>
<glyph name="tau" format="2">
	<unicode hex="03C4"/>
	<advance width="457"/>
	<outline>
		<contour>
			<point x="38" y="366" type="line"/>
			<point x="227" y="388" type="line"/>
			<point x="262" y="388" type="line"/>
			<point x="453" y="382" type="line"/>
			<point x="467" y="475" type="line"/>
			<point x="259" y="475" type="line" smooth="yes"/>
			<point x="150" y="475"/>
			<point x="97" y="457"/>
			<point x="36" y="411" type="curve"/>
		</contour>
		<contour>
			<point x="222" y="-14" type="curve" smooth="yes"/>
			<point x="269" y="-14"/>
			<point x="315" y="15"/>
			<point x="353" y="69" type="curve"/>
			<point x="335" y="91" type="line"/>
			<point x="314" y="73"/>
			<point x="295" y="63"/>
			<point x="277" y="63" type="curve" smooth="yes"/>
			<point x="258" y="63"/>
			<point x="249" y="75"/>
			<point x="249" y="102" type="curve" smooth="yes"/>
			<point x="249" y="136"/>
			<point x="252" y="175"/>
			<point x="296" y="420" type="curve"/>
			<point x="223" y="417" type="line"/>
			<point x="155" y="172"/>
			<point x="140" y="106"/>
			<point x="140" y="66" type="curve" smooth="yes"/>
			<point x="140" y="15"/>
			<point x="173" y="-14"/>
		</contour>
	</outline>
</glyph>
<glyph name="upsilon" format="2">
	<unicode hex="03C5"/>
	<advance width="504"/>
	<outline>
		<contour>
			<point x="221" y="-14" type="curve" smooth="yes"/>
			<point x="380" y="-14"/>
			<point x="464" y="145"/>
			<point x="464" y="357" type="curve" smooth="yes"/>
			<point x="464" y="410"/>
			<point x="462" y="435"/>
			<point x="456" y="464" type="curve"/>
			<point x="448" y="477"/>
			<point x="433" y="485"/>
			<point x="415" y="485" type="curve" smooth="yes"/>
			<point x="381" y="486"/>
			<point x="351" y="464"/>
			<point x="351" y="423" type="curve" smooth="yes"/>
			<point x="351" y="378"/>
			<point x="371" y="335"/>
			<point x="426" y="250" type="curve"/>
			<point x="433" y="329" type="line"/>
			<point x="406" y="368" type="line"/>
			<point x="408" y="341"/>
			<point x="408" y="318"/>
			<point x="407" y="297" type="curve" smooth="yes"/>
			<point x="405" y="127"/>
			<point x="334" y="45"/>
			<point x="257" y="45" type="curve" smooth="yes"/>
			<point x="207" y="45"/>
			<point x="175" y="74"/>
			<point x="175" y="127" type="curve" smooth="yes"/>
			<point x="175" y="185"/>
			<point x="227" y="330"/>
			<point x="227" y="402" type="curve" smooth="yes"/>
			<point x="227" y="455"/>
			<point x="201" y="485"/>
			<point x="153" y="485" type="curve" smooth="yes"/>
			<point x="112" y="485"/>
			<point x="78" y="465"/>
			<point x="28" y="416" type="curve"/>
			<point x="42" y="390" type="line"/>
			<point x="66" y="400"/>
			<point x="83" y="404"/>
			<point x="96" y="404" type="curve" smooth="yes"/>
			<point x="114" y="404"/>
			<point x="123" y="395"/>
			<point x="123" y="374" type="curve" smooth="yes"/>
			<point x="123" y="319"/>
			<point x="73" y="190"/>
			<point x="73" y="119" type="curve" smooth="yes"/>
			<point x="73" y="24"/>
			<point x="145" y="-14"/>
		</contour>
	</outline>
	<anchor name="aboveLC" x="288" y="492"/>
</glyph>
<glyph name="koppa" format="2">
	<unicode hex="03D9"/>
	<advance width="493"/>
	<outline>
		<contour>
			<point x="114" y="-198" type="line"/>
			<point x="223" y="-180" type="line"/>
			<point x="246" y="11" type="line"/>
			<point x="167" y="10" type="line"/>
			<point x="103" y="-187" type="line"/>
		</contour>
		<component base="omicron"/>
	</outline>
	<anchor name="aboveLC" x="298" y="492"/>
</glyph>
<glyph name="Ieukran" format="2">
	<unicode hex="0404"/>
	<advance width="585"/>
	<outline>
		<contour>
			<point x="135" y="317" type="line"/>
			<point x="380" y="317" type="line"/>
			<point x="388" y="362" type="line"/>
			<point x="143" y="362" type="line"/>
		</contour>
		<contour>
			<point x="358" y="223" type="line"/>
			<point x="397" y="223" type="line"/>
			<point x="441" y="452" type="line"/>
			<point x="400" y="452" type="line"/>
			<point x="361" y="352" type="line"/>
			<point x="357" y="333" type="line"/>
		</contour>
		<component base="C"/>
	</outline>
	<anchor name="aboveUC" x="414" y="684"/>
</glyph>
<glyph name="Lje" format="2">
	<unicode hex="0409"/>
	<advance width="892"/>
	<outline>
		<contour>
			<point x="41" y="-17" type="curve" smooth="yes"/>
			<point x="121" y="-17"/>
			<point x="181" y="73"/>
			<point x="234" y="203" type="curve" smooth="yes"/>
			<point x="290" y="326"/>
			<point x="331" y="483"/>
			<point x="366" y="664" type="curve"/>
			<point x="317" y="664" type="line"/>
			<point x="283" y="482"/>
			<point x="244" y="339"/>
			<point x="190" y="217" type="curve" smooth="yes"/>
			<point x="152" y="122"/>
			<point x="121" y="81"/>
			<point x="70" y="33" type="curve"/>
			<point x="75" y="21" type="line"/>
			<point x="118" y="39" type="line"/>
			<point x="101" y="89"/>
			<point x="73" y="109"/>
			<point x="41" y="109" type="curve" smooth="yes"/>
			<point x="8" y="109"/>
			<point x="-20" y="96"/>
			<point x="-34" y="59" type="curve"/>
			<point x="-34" y="8"/>
			<point x="-2" y="-17"/>
		</contour>
		<contour>
			<point x="305" y="0" type="line"/>
			<point x="460" y="0" type="line"/>
			<point x="469" y="54" type="line"/>
			<point x="440" y="54" type="line"/>
			<point x="313" y="39" type="line"/>
		</contour>
		<contour>
			<point x="324" y="618" type="line"/>
			<point x="551" y="618" type="line"/>
			<point x="560" y="664" type="line"/>
			<point x="333" y="664" type="line"/>
		</contour>
		<contour>
			<point x="328" y="610" type="line"/>
			<point x="335" y="610" type="line"/>
			<point x="347" y="664" type="line"/>
			<point x="217" y="664" type="line"/>
			<point x="209" y="624" type="line"/>
		</contour>
		<contour>
			<point x="383" y="0" type="line"/>
			<point x="500" y="0" type="line"/>
			<point x="516" y="103"/>
			<point x="534" y="207"/>
			<point x="554" y="310" type="curve" smooth="yes"/>
			<point x="620" y="664" type="line"/>
			<point x="503" y="664" type="line"/>
			<point x="487" y="561"/>
			<point x="470" y="456"/>
			<point x="450" y="353" type="curve" smooth="yes"/>
		</contour>
		<contour>
			<point x="441" y="0" type="line"/>
			<point x="579" y="0" type="line" smooth="yes"/>
			<point x="764" y="0"/>
			<point x="861" y="98"/>
			<point x="861" y="220" type="curve" smooth="yes"/>
			<point x="861" y="322"/>
			<point x="794" y="391"/>
			<point x="642" y="391" type="curve" smooth="yes"/>
			<point x="595" y="391"/>
			<point x="550" y="384"/>
			<point x="504" y="376" type="curve"/>
			<point x="497" y="333" type="line"/>
			<point x="539" y="341"/>
			<point x="575" y="348"/>
			<point x="615" y="348" type="curve" smooth="yes"/>
			<point x="697" y="348"/>
			<point x="746" y="303"/>
			<point x="746" y="221" type="curve" smooth="yes"/>
			<point x="746" y="122"/>
			<point x="688" y="44"/>
			<point x="572" y="44" type="curve" smooth="yes"/>
			<point x="450" y="44" type="line"/>
		</contour>
		<contour>
			<point x="540" y="610" type="line"/>
			<point x="569" y="610" type="line"/>
			<point x="698" y="624" type="line"/>
			<point x="706" y="664" type="line"/>
			<point x="549" y="664" type="line"/>
		</contour>
	</outline>
</glyph>
<glyph name="De" format="2">
	<unicode hex="0414"/>
	<advance width="667"/>
	<outline>
		<contour>
			<point x="-45" y="-184" type="line"/>
			<point x="7" y="-184" type="line"/>
			<point x="67" y="21" type="line"/>
			<point x="33" y="0" type="line"/>
			<point x="535" y="0" type="line"/>
			<point x="511" y="20" type="line"/>
			<point x="507" y="-184" type="line"/>
			<point x="558" y="-184" type="line"/>
			<point x="600" y="46" type="line"/>
			<point x="-17" y="46" type="line"/>
		</contour>
		<contour>
			<point x="382" y="0" type="line"/>
			<point x="498" y="0" type="line"/>
			<point x="514" y="103"/>
			<point x="532" y="207"/>
			<point x="551" y="310" type="curve" smooth="yes"/>
			<point x="619" y="664" type="line"/>
			<point x="502" y="664" type="line"/>
			<point x="485" y="561"/>
			<point x="468" y="456"/>
			<point x="448" y="353" type="curve" smooth="yes"/>
		</contour>
		<contour>
			<point x="207" y="624" type="line"/>
			<point x="325" y="610" type="line"/>
			<point x="333" y="610" type="line"/>
			<point x="345" y="664" type="line"/>
			<point x="215" y="664" type="line"/>
		</contour>
		<contour>
			<point x="536" y="610" type="line"/>
			<point x="566" y="610" type="line"/>
			<point x="689" y="624" type="line"/>
			<point x="697" y="664" type="line"/>
			<point x="545" y="664" type="line"/>
		</contour>
		<contour>
			<point x="75" y="11" type="line"/>
			<point x="230" y="123"/>
			<point x="300" y="335"/>
			<point x="361" y="664" type="curve"/>
			<point x="310" y="664" type="line"/>
			<point x="255" y="362"/>
			<point x="189" y="157"/>
			<point x="49" y="46" type="curve"/>
		</contour>
		<contour>
			<point x="327" y="618" type="line"/>
			<point x="548" y="618" type="line"/>
			<point x="556" y="664" type="line"/>
			<point x="335" y="664" type="line"/>
		</contour>
	</outline>
</glyph>
<glyph name="Ze" format="2">
	<unicode hex="0417"/>
	<advance width="525"/>
	<outline>
		<contour>
			<point x="196" y="-17" type="curve" smooth="yes"/>
			<point x="353" y="-17"/>
			<point x="470" y="68"/>
			<point x="470" y="192" type="curve" smooth="yes"/>
			<point x="470" y="274"/>
			<point x="417" y="339"/>
			<point x="292" y="353" type="curve"/>
			<point x="282" y="338" type="line"/>
			<point x="427" y="353"/>
			<point x="500" y="438"/>
			<point x="500" y="525" type="curve" smooth="yes"/>
			<point x="500" y="617"/>
			<point x="424" y="680"/>
			<point x="308" y="680" type="curve" smooth="yes"/>
			<point x="234" y="680"/>
			<point x="176" y="663"/>
			<point x="131" y="641" type="curve"/>
			<point x="108" y="494" type="line"/>
			<point x="161" y="494" type="line"/>
			<point x="220" y="655" type="line"/>
			<point x="180" y="635" type="line"/>
			<point x="172" y="607" type="line"/>
			<point x="210" y="626"/>
			<point x="242" y="635"/>
			<point x="286" y="635" type="curve" smooth="yes"/>
			<point x="354" y="635"/>
			<point x="394" y="595"/>
			<point x="394" y="520" type="curve" smooth="yes"/>
			<point x="394" y="427"/>
			<point x="331" y="364"/>
			<point x="229" y="364" type="curve" smooth="yes"/>
			<point x="196" y="364" type="line"/>
			<point x="186" y="320" type="line"/>
			<point x="225" y="320" type="line" smooth="yes"/>
			<point x="317" y="320"/>
			<point x="356" y="272"/>
			<point x="356" y="192" type="curve" smooth="yes"/>
			<point x="356" y="96"/>
			<point x="284" y="30"/>
			<point x="188" y="30" type="curve" smooth="yes"/>
			<point x="150" y="30"/>
			<point x="113" y="37"/>
			<point x="82" y="53" type="curve"/>
			<point x="125" y="12" type="line"/>
			<point x="124" y="99" type="line" smooth="yes"/>
			<point x="123" y="157"/>
			<point x="107" y="175"/>
			<point x="73" y="175" type="curve" smooth="yes"/>
			<point x="51" y="175"/>
			<point x="31" y="165"/>
			<point x="20" y="139" type="curve"/>
			<point x="21" y="32"/>
			<point x="77" y="-17"/>
		</contour>
	</outline>
	<anchor name="aboveUC" x="318" y="684"/>
</glyph>
<glyph name="Icyr" format="2">
	<unicode hex="0418"/>
	<advance width="746"/>
	<outline>
		<contour>
			<point x="-9" y="0" type="line"/>
			<point x="267" y="0" type="line"/>
			<point x="275" y="39" type="line"/>
			<point x="154" y="54" type="line"/>
			<point x="125" y="54" type="line"/>
			<point x="-1" y="39" type="line"/>
		</contour>
		<contour>
			<point x="69" y="0" type="line"/>
			<point x="180" y="0" type="line"/>
			<point x="237" y="310" type="line"/>
			<point x="304" y="664" type="line"/>
			<point x="189" y="664" type="line"/>
			<point x="173" y="561"/>
			<point x="155" y="456"/>
			<point x="136" y="353" type="curve"/>
		</contour>
		<contour>
			<point x="101" y="624" type="line"/>
			<point x="223" y="610" type="line"/>
			<point x="253" y="610" type="line"/>
			<point x="377" y="624" type="line"/>
			<point x="385" y="664" type="line"/>
			<point x="108" y="664" type="line"/>
		</contour>
		<contour>
			<point x="384" y="0" type="line"/>
			<point x="660" y="0" type="line"/>
			<point x="668" y="39" type="line"/>
			<point x="548" y="54" type="line"/>
			<point x="519" y="54" type="line"/>
			<point x="392" y="39" type="line"/>
		</contour>
		<contour>
			<point x="464" y="0" type="line"/>
			<point x="579" y="0" type="line"/>
			<point x="595" y="103"/>
			<point x="613" y="207"/>
			<point x="632" y="310" type="curve"/>
			<point x="699" y="664" type="line"/>
			<point x="588" y="664" type="line"/>
			<point x="531" y="353" type="line"/>
		</contour>
		<contour>
			<point x="494" y="624" type="line"/>
			<point x="617" y="610" type="line"/>
			<point x="647" y="610" type="line"/>
			<point x="770" y="624" type="line"/>
			<point x="778" y="664" type="line"/>
			<point x="502" y="664" type="line"/>
		</contour>
		<contour>
			<point x="139" y="22" type="line"/>
			<point x="627" y="568" type="line"/>
			<point x="638" y="568" type="line"/>
			<point x="633" y="644" type="line"/>
			<point x="147" y="98" type="line"/>
			<point x="132" y="98" type="line"/>
		</contour>
	</outline>
	<anchor name="aboveUC" x="442" y="684"/>
</glyph>
<glyph name="Ka" format="2">
	<unicode hex="041A"/>
	<advance width="658"/>
	<outline>
		<contour>
			<point x="419" y="68" type="line" smooth="yes"/>
			<point x="437" y="8"/>
			<point x="453" y="-11"/>
			<point x="523" y="-11" type="curve" smooth="yes"/>
			<point x="553" y="-11"/>
			<point x="585" y="-8"/>
			<point x="614" y="0" type="curve"/>
			<point x="621" y="39" type="line"/>
			<point x="496" y="52" type="line"/>
			<point x="551" y="28" type="line"/>
			<point x="488" y="195" type="line" smooth="yes"/>
			<point x="454" y="295"/>
			<point x="424" y="344"/>
			<point x="293" y="348" type="curve"/>
			<point x="297" y="327" type="line"/>
			<point x="383" y="335"/>
			<point x="425" y="364"/>
			<point x="480" y="462" type="curve" smooth="yes"/>
			<point x="519" y="527"/>
			<point x="539" y="562"/>
			<point x="577" y="606" type="curve"/>
			<point x="518" y="581" type="line"/>
			<point x="536" y="571"/>
			<point x="571" y="558"/>
			<point x="609" y="558" type="curve" smooth="yes"/>
			<point x="656" y="558"/>
			<point x="687" y="583"/>
			<point x="687" y="621" type="curve" smooth="yes"/>
			<point x="687" y="652"/>
			<point x="664" y="674"/>
			<point x="632" y="680" type="curve"/>
			<point x="559" y="672"/>
			<point x="526" y="631"/>
			<point x="446" y="488" type="curve" smooth="yes"/>
			<point x="387" y="381"/>
			<point x="351" y="363"/>
			<point x="278" y="363" type="curve" smooth="yes"/>
			<point x="192" y="363" type="line"/>
			<point x="183" y="319" type="line"/>
			<point x="271" y="319" type="line" smooth="yes"/>
			<point x="330" y="319"/>
			<point x="343" y="291"/>
			<point x="363" y="231" type="curve" smooth="yes"/>
		</contour>
		<contour>
			<point x="-11" y="0" type="line"/>
			<point x="259" y="0" type="line"/>
			<point x="266" y="39" type="line"/>
			<point x="151" y="54" type="line"/>
			<point x="122" y="54" type="line"/>
			<point x="-3" y="39" type="line"/>
		</contour>
		<contour>
			<point x="67" y="0" type="line"/>
			<point x="184" y="0" type="line"/>
			<point x="200" y="103"/>
			<point x="218" y="207"/>
			<point x="237" y="310" type="curve" smooth="yes"/>
			<point x="304" y="664" type="line"/>
			<point x="187" y="664" type="line"/>
			<point x="171" y="561"/>
			<point x="153" y="456"/>
			<point x="134" y="353" type="curve" smooth="yes"/>
		</contour>
		<contour>
			<point x="100" y="624" type="line"/>
			<point x="221" y="610" type="line"/>
			<point x="250" y="610" type="line"/>
			<point x="372" y="624" type="line"/>
			<point x="381" y="664" type="line"/>
			<point x="108" y="664" type="line"/>
		</contour>
	</outline>
	<anchor name="aboveUC" x="428" y="684"/>
</glyph>
<glyph name="Pe" format="2">
	<unicode hex="041F"/>
	<advance width="721"/>
	<outline>
		<contour>
			<point x="-9" y="0" type="line"/>
			<point x="266" y="0" type="line"/>
			<point x="274" y="39" type="line"/>
			<point x="154" y="54" type="line"/>
			<point x="125" y="54" type="line"/>
			<point x="-1" y="39" type="line"/>
		</contour>
		<contour>
			<point x="69" y="0" type="line"/>
			<point x="186" y="0" type="line"/>
			<point x="202" y="103"/>
			<point x="220" y="207"/>
			<point x="239" y="310" type="curve" smooth="yes"/>
			<point x="306" y="664" type="line"/>
			<point x="189" y="664" type="line"/>
			<point x="173" y="561"/>
			<point x="155" y="456"/>
			<point x="136" y="353" type="curve" smooth="yes"/>
		</contour>
		<contour>
			<point x="101" y="624" type="line"/>
			<point x="226" y="610" type="line"/>
			<point x="247" y="664" type="line"/>
			<point x="108" y="664" type="line"/>
		</contour>
		<contour>
			<point x="232" y="618" type="line"/>
			<point x="610" y="618" type="line"/>
			<point x="618" y="664" type="line"/>
			<point x="241" y="664" type="line"/>
		</contour>
		<contour>
			<point x="361" y="0" type="line"/>
			<point x="634" y="0" type="line"/>
			<point x="642" y="39" type="line"/>
			<point x="522" y="54" type="line"/>
			<point x="493" y="54" type="line"/>
			<point x="368" y="39" type="line"/>
		</contour>
		<contour>
			<point x="436" y="0" type="line"/>
			<point x="553" y="0" type="line"/>
			<point x="569" y="103"/>
			<point x="587" y="207"/>
			<point x="606" y="310" type="curve" smooth="yes"/>
			<point x="673" y="664" type="line"/>
			<point x="557" y="664" type="line"/>
			<point x="540" y="561"/>
			<point x="523" y="456"/>
			<point x="503" y="353" type="curve" smooth="yes"/>
		</contour>
		<contour>
			<point x="612" y="610" type="line"/>
			<point x="744" y="624" type="line"/>
			<point x="752" y="664" type="line"/>
			<point x="608" y="664" type="line"/>
		</contour>
	</outline>
</glyph>
<glyph name="Ucyr" format="2">
	<unicode hex="0423"/>
	<advance width="600"/>
	<outline>
		<contour>
			<point x="41" y="9" type="curve"/>
			<point x="45" y="-31"/>
			<point x="77" y="-55"/>
			<point x="130" y="-55" type="curve" smooth="yes"/>
			<point x="206" y="-55"/>
			<point x="261" y="14"/>
			<point x="325" y="125" type="curve" smooth="yes"/>
			<point x="636" y="664" type="line"/>
			<point x="582" y="664" type="line"/>
			<point x="451" y="431" type="line"/>
			<point x="318" y="192" type="line"/>
			<point x="301" y="165" type="line"/>
			<point x="253" y="80"/>
			<point x="219" y="29"/>
			<point x="169" y="-2" type="curve"/>
			<point x="172" y="-25" type="line"/>
			<point x="208" y="-2" type="line"/>
			<point x="179" y="36"/>
			<point x="144" y="60"/>
			<point x="109" y="60" type="curve" smooth="yes"/>
			<point x="78" y="60"/>
			<point x="49" y="40"/>
		</contour>
		<contour>
			<point x="65" y="624" type="line"/>
			<point x="173" y="610" type="line"/>
			<point x="210" y="610" type="line"/>
			<point x="331" y="624" type="line"/>
			<point x="337" y="664" type="line"/>
			<point x="71" y="664" type="line"/>
		</contour>
		<contour>
			<point x="479" y="624" type="line"/>
			<point x="571" y="611" type="line"/>
			<point x="590" y="611" type="line"/>
			<point x="678" y="624" type="line"/>
			<point x="684" y="664" type="line"/>
			<point x="485" y="664" type="line"/>
		</contour>
		<contour>
			<point x="270" y="75" type="line"/>
			<point x="344" y="203" type="line"/>
			<point x="238" y="664" type="line"/>
			<point x="112" y="664" type="line"/>
		</contour>
	</outline>
	<anchor name="aboveUC" x="400" y="684"/>
</glyph>
<glyph name="Tse" format="2">
	<unicode hex="0426"/>
	<advance width="707"/>
	<outline>
		<contour>
			<point x="556" y="-184" type="line"/>
			<point x="608" y="-184" type="line"/>
			<point x="652" y="46" type="line"/>
			<point x="116" y="46" type="line"/>
			<point x="108" y="0" type="line"/>
			<point x="588" y="0" type="line"/>
			<point x="562" y="21" type="line"/>
		</contour>
		<contour>
			<point x="48" y="0" type="line"/>
			<point x="165" y="0" type="line"/>
			<point x="182" y="103"/>
			<point x="200" y="207"/>
			<point x="219" y="310" type="curve" smooth="yes"/>
			<point x="286" y="664" type="line"/>
			<point x="169" y="664" type="line"/>
			<point x="153" y="561"/>
			<point x="135" y="456"/>
			<point x="115" y="353" type="curve" smooth="yes"/>
		</contour>
		<contour>
			<point x="80" y="624" type="line"/>
			<point x="203" y="610" type="line"/>
			<point x="233" y="610" type="line"/>
			<point x="354" y="624" type="line"/>
			<point x="362" y="664" type="line"/>
			<point x="88" y="664" type="line"/>
		</contour>
		<contour>
			<point x="421" y="0" type="line"/>
			<point x="538" y="0" type="line"/>
			<point x="554" y="103"/>
			<point x="572" y="207"/>
			<point x="591" y="310" type="curve" smooth="yes"/>
			<point x="658" y="664" type="line"/>
			<point x="541" y="664" type="line"/>
			<point x="525" y="561"/>
			<point x="507" y="456"/>
			<point x="488" y="353" type="curve" smooth="yes"/>
		</contour>
		<contour>
			<point x="455" y="624" type="line"/>
			<point x="576" y="610" type="line"/>
			<point x="605" y="610" type="line"/>
			<point x="729" y="624" type="line"/>
			<point x="737" y="664" type="line"/>
			<point x="463" y="664" type="line"/>
		</contour>
		<contour>
			<point x="-29" y="0" type="line"/>
			<point x="126" y="0" type="line"/>
			<point x="134" y="54" type="line"/>
			<point x="105" y="54" type="line"/>
			<point x="-21" y="39" type="line"/>
		</contour>
	</outline>
	<anchor name="aboveUC" x="411" y="684"/>
</glyph>
<glyph name="Sha" format="2">
	<unicode hex="0428"/>
	<advance width="996"/>
	<outline>
		<contour>
			<point x="68" y="0" type="line"/>
			<point x="186" y="0" type="line"/>
			<point x="202" y="103"/>
			<point x="220" y="207"/>
			<point x="239" y="310" type="curve" smooth="yes"/>
			<point x="306" y="664" type="line"/>
			<point x="189" y="664" type="line"/>
			<point x="173" y="561"/>
			<point x="155" y="456"/>
			<point x="135" y="353" type="curve" smooth="yes"/>
		</contour>
		<contour>
			<point x="101" y="624" type="line"/>
			<point x="220" y="610" type="line"/>
			<point x="249" y="610" type="line"/>
			<point x="373" y="624" type="line"/>
			<point x="381" y="664" type="line"/>
			<point x="108" y="664" type="line"/>
		</contour>
		<contour>
			<point x="390" y="0" type="line"/>
			<point x="508" y="0" type="line"/>
			<point x="524" y="103"/>
			<point x="541" y="207"/>
			<point x="561" y="310" type="curve" smooth="yes"/>
			<point x="628" y="664" type="line"/>
			<point x="511" y="664" type="line"/>
			<point x="495" y="561"/>
			<point x="477" y="456"/>
			<point x="457" y="353" type="curve" smooth="yes"/>
		</contour>
		<contour>
			<point x="426" y="624" type="line"/>
			<point x="542" y="610" type="line"/>
			<point x="571" y="610" type="line"/>
			<point x="695" y="624" type="line"/>
			<point x="703" y="664" type="line"/>
			<point x="434" y="664" type="line"/>
		</contour>
		<contour>
			<point x="712" y="0" type="line"/>
			<point x="830" y="0" type="line"/>
			<point x="846" y="103"/>
			<point x="863" y="207"/>
			<point x="883" y="310" type="curve" smooth="yes"/>
			<point x="950" y="664" type="line"/>
			<point x="833" y="664" type="line"/>
			<point x="817" y="561"/>
			<point x="799" y="456"/>
			<point x="779" y="353" type="curve" smooth="yes"/>
		</contour>
		<contour>
			<point x="748" y="624" type="line"/>
			<point x="864" y="610" type="line"/>
			<point x="893" y="610" type="line"/>
			<point x="1021" y="624" type="line"/>
			<point x="1028" y="664" type="line"/>
			<point x="755" y="664" type="line"/>
		</contour>
		<contour>
			<point x="-10" y="0" type="line"/>
			<point x="133" y="0" type="line"/>
			<point x="130" y="54" type="line"/>
			<point x="-1" y="39" type="line"/>
		</contour>
		<contour>
			<point x="124" y="0" type="line"/>
			<point x="779" y="0" type="line"/>
			<point x="788" y="45" type="line"/>
			<point x="133" y="45" type="line"/>
		</contour>
		<contour>
			<point x="772" y="0" type="line"/>
			<point x="910" y="0" type="line"/>
			<point x="918" y="39" type="line"/>
			<point x="792" y="54" type="line"/>
		</contour>
	</outline>
</glyph>
<glyph name="Ecyr" format="2">
	<unicode hex="042D"/>
	<advance width="594"/>
	<outline>
		<contour>
			<point x="194" y="-17" type="curve" smooth="yes"/>
			<point x="424" y="-17"/>
			<point x="577" y="179"/>
			<point x="577" y="393" type="curve" smooth="yes"/>
			<point x="577" y="568"/>
			<point x="471" y="680"/>
			<point x="309" y="680" type="curve" smooth="yes"/>
			<point x="231" y="680"/>
			<point x="174" y="661"/>
			<point x="121" y="634" type="curve"/>
			<point x="96" y="482" type="line"/>
			<point x="150" y="482" type="line"/>
			<point x="211" y="640" type="line"/>
			<point x="159" y="600" type="line"/>
			<point x="200" y="621"/>
			<point x="242" y="635"/>
			<point x="285" y="635" type="curve" smooth="yes"/>
			<point x="390" y="635"/>
			<point x="459" y="548"/>
			<point x="459" y="403" type="curve" smooth="yes"/>
			<point x="459" y="215"/>
			<point x="356" y="29"/>
			<point x="192" y="29" type="curve" smooth="yes"/>
			<point x="147" y="29"/>
			<point x="103" y="42"/>
			<point x="67" y="72" type="curve"/>
			<point x="105" y="31" type="line"/>
			<point x="94" y="184" type="line"/>
			<point x="40" y="184" type="line"/>
			<point x="18" y="34" type="line"/>
			<point x="76" y="-4"/>
			<point x="135" y="-17"/>
		</contour>
		<contour>
			<point x="166" y="221" type="line"/>
			<point x="206" y="221" type="line"/>
			<point x="246" y="325" type="line"/>
			<point x="250" y="344" type="line"/>
			<point x="249" y="451" type="line"/>
			<point x="210" y="451" type="line"/>
		</contour>
		<contour>
			<point x="219" y="315" type="line"/>
			<point x="464" y="315" type="line"/>
			<point x="472" y="360" type="line"/>
			<point x="227" y="360" type="line"/>
		</contour>
	</outline>
	<anchor name="aboveUC" x="315" y="684"/>
</glyph>
<glyph name="ghe" format="2">
	<unicode hex="0433"/>
	<advance width="395"/>
	<outline>
		<contour>
			<point x="145" y="-13" type="curve" smooth="yes"/>
			<point x="231" y="-13"/>
			<point x="290" y="28"/>
			<point x="346" y="99" type="curve"/>
			<point x="327" y="120" type="line"/>
			<point x="280" y="75"/>
			<point x="236" y="53"/>
			<point x="186" y="53" type="curve" smooth="yes"/>
			<point x="147" y="53"/>
			<point x="120" y="73"/>
			<point x="120" y="115" type="curve" smooth="yes"/>
			<point x="120" y="156"/>
			<point x="148" y="189"/>
			<point x="226" y="231" type="curve" smooth="yes"/>
			<point x="330" y="284"/>
			<point x="382" y="325"/>
			<point x="382" y="386" type="curve" smooth="yes"/>
			<point x="382" y="443"/>
			<point x="339" y="486"/>
			<point x="264" y="486" type="curve" smooth="yes"/>
			<point x="175" y="486"/>
			<point x="116" y="438"/>
			<point x="72" y="369" type="curve"/>
			<point x="93" y="350" type="line"/>
			<point x="136" y="398"/>
			<point x="173" y="426"/>
			<point x="224" y="426" type="curve" smooth="yes"/>
			<point x="261" y="426"/>
			<point x="285" y="406"/>
			<point x="285" y="369" type="curve" smooth="yes"/>
			<point x="285" y="328"/>
			<point x="258" y="299"/>
			<point x="179" y="259" type="curve" smooth="yes"/>
			<point x="64" y="202"/>
			<point x="19" y="158"/>
			<point x="19" y="92" type="curve" smooth="yes"/>
			<point x="19" y="29"/>
			<point x="70" y="-13"/>
		</contour>
	</outline>
	<anchor name="aboveLC" x="258" y="492"/>
</glyph>
<glyph name="de" format="2">
	<unicode hex="0434"/>
	<advance width="494"/>
	<outline>
		<contour>
			<point x="190" y="-11" type="curve" smooth="yes"/>
			<point x="369" y="-11"/>
			<point x="495" y="213"/>
			<point x="495" y="498" type="curve" smooth="yes"/>
			<point x="495" y="658"/>
			<point x="427" y="734"/>
			<point x="311" y="734" type="curve" smooth="yes"/>
			<point x="244" y="734"/>
			<point x="188" y="706"/>
			<point x="145" y="665" type="curve"/>
			<point x="163" y="639" type="line"/>
			<point x="201" y="665"/>
			<point x="240" y="679"/>
			<point x="279" y="679" type="curve" smooth="yes"/>
			<point x="351" y="679"/>
			<point x="393" y="630"/>
			<point x="393" y="501" type="curve" smooth="yes"/>
			<point x="393" y="226"/>
			<point x="299" y="31"/>
			<point x="207" y="31" type="curve" smooth="yes"/>
			<point x="165" y="31"/>
			<point x="138" y="57"/>
			<point x="138" y="145" type="curve" smooth="yes"/>
			<point x="138" y="301"/>
			<point x="215" y="436"/>
			<point x="310" y="436" type="curve" smooth="yes"/>
			<point x="359" y="436"/>
			<point x="393" y="410"/>
			<point x="409" y="360" type="curve"/>
			<point x="431" y="399" type="line"/>
			<point x="420" y="399" type="line"/>
			<point x="399" y="450"/>
			<point x="355" y="476"/>
			<point x="304" y="476" type="curve" smooth="yes"/>
			<point x="153" y="476"/>
			<point x="31" y="326"/>
			<point x="31" y="164" type="curve" smooth="yes"/>
			<point x="31" y="48"/>
			<point x="92" y="-11"/>
		</contour>
	</outline>
</glyph>
<glyph name="ze" format="2">
	<unicode hex="0437"/>
	<advance width="422"/>
	<outline>
		<contour>
			<point x="155" y="-14" type="curve" smooth="yes"/>
			<point x="285" y="-14"/>
			<point x="371" y="56"/>
			<point x="371" y="140" type="curve" smooth="yes"/>
			<point x="371" y="205"/>
			<point x="328" y="242"/>
			<point x="226" y="249" type="curve"/>
			<point x="227" y="240" type="line"/>
			<point x="355" y="256"/>
			<point x="408" y="313"/>
			<point x="408" y="374" type="curve" smooth="yes"/>
			<point x="408" y="439"/>
			<point x="361" y="486"/>
			<point x="275" y="486" type="curve" smooth="yes"/>
			<point x="188" y="486"/>
			<point x="128" y="450"/>
			<point x="77" y="384" type="curve"/>
			<point x="98" y="362" type="line"/>
			<point x="147" y="408"/>
			<point x="189" y="431"/>
			<point x="240" y="431" type="curve" smooth="yes"/>
			<point x="284" y="431"/>
			<point x="309" y="407"/>
			<point x="309" y="363" type="curve" smooth="yes"/>
			<point x="309" y="310"/>
			<point x="268" y="265"/>
			<point x="190" y="265" type="curve" smooth="yes"/>
			<point x="144" y="265" type="line"/>
			<point x="135" y="227" type="line"/>
			<point x="177" y="227" type="line" smooth="yes"/>
			<point x="249" y="227"/>
			<point x="268" y="195"/>
			<point x="268" y="140" type="curve" smooth="yes"/>
			<point x="268" y="68"/>
			<point x="222" y="24"/>
			<point x="147" y="24" type="curve" smooth="yes"/>
			<point x="123" y="24"/>
			<point x="91" y="27"/>
			<point x="59" y="40" type="curve"/>
			<point x="111" y="9" type="line"/>
			<point x="106" y="87" type="line" smooth="yes"/>
			<point x="104" y="128"/>
			<point x="85" y="146"/>
			<point x="56" y="146" type="curve" smooth="yes"/>
			<point x="35" y="146"/>
			<point x="17" y="135"/>
			<point x="9" y="111" type="curve"/>
			<point x="10" y="27"/>
			<point x="69" y="-14"/>
		</contour>
	</outline>
</glyph>
<glyph name="ka" format="2">
	<unicode hex="043A"/>
	<advance width="510"/>
	<outline>
		<contour>
			<point x="57" y="-8" type="line"/>
			<point x="153" y="0" type="line"/>
			<point x="165" y="71"/>
			<point x="177" y="140"/>
			<point x="192" y="209" type="curve" smooth="yes"/>
			<point x="223" y="352" type="line"/>
			<point x="247" y="475" type="line"/>
			<point x="233" y="487" type="line"/>
			<point x="51" y="435" type="line"/>
			<point x="46" y="407" type="line"/>
			<point x="161" y="392" type="line"/>
			<point x="131" y="410" type="line"/>
			<point x="45" y="2" type="line"/>
		</contour>
		<contour>
			<point x="488" y="1" type="curve"/>
			<point x="492" y="28" type="line"/>
			<point x="456" y="32" type="line" smooth="yes"/>
			<point x="427" y="35"/>
			<point x="416" y="49"/>
			<point x="395" y="91" type="curve" smooth="yes"/>
			<point x="367" y="146" type="line" smooth="yes"/>
			<point x="339" y="201"/>
			<point x="303" y="230"/>
			<point x="241" y="239" type="curve" smooth="yes"/>
			<point x="202" y="244" type="line"/>
			<point x="200" y="237" type="line"/>
			<point x="434" y="361" type="line" smooth="yes"/>
			<point x="482" y="384"/>
			<point x="505" y="398"/>
			<point x="505" y="428" type="curve" smooth="yes"/>
			<point x="505" y="456"/>
			<point x="484" y="478"/>
			<point x="456" y="481" type="curve"/>
			<point x="195" y="252" type="line"/>
			<point x="184" y="244" type="line"/>
			<point x="177" y="244" type="line"/>
			<point x="177" y="228" type="line"/>
			<point x="197" y="222" type="line" smooth="yes"/>
			<point x="229" y="212"/>
			<point x="242" y="197"/>
			<point x="262" y="147" type="curve" smooth="yes"/>
			<point x="291" y="73" type="line" smooth="yes"/>
			<point x="319" y="1"/>
			<point x="355" y="-14"/>
			<point x="408" y="-14" type="curve" smooth="yes"/>
			<point x="437" y="-14"/>
			<point x="461" y="-9"/>
		</contour>
	</outline>
	<anchor name="aboveLC" x="336" y="492"/>
</glyph>
<glyph name="sha" format="2">
	<unicode hex="0448"/>
	<advance width="808"/>
	<outline>
		<contour>
			<point x="137" y="-14" type="curve" smooth="yes"/>
			<point x="203" y="-14"/>
			<point x="277" y="37"/>
			<point x="350" y="115" type="curve"/>
			<point x="359" y="115" type="line"/>
			<point x="347" y="142" type="line"/>
			<point x="284" y="88"/>
			<point x="241" y="67"/>
			<point x="206" y="67" type="curve" smooth="yes"/>
			<point x="185" y="67"/>
			<point x="171" y="79"/>
			<point x="171" y="106" type="curve" smooth="yes"/>
			<point x="171" y="126"/>
			<point x="178" y="156"/>
			<point x="185" y="188" type="curve" smooth="yes"/>
			<point x="250" y="475" type="line"/>
			<point x="236" y="487" type="line"/>
			<point x="51" y="435" type="line"/>
			<point x="46" y="407" type="line"/>
			<point x="157" y="392" type="line"/>
			<point x="133" y="414" type="line"/>
			<point x="79" y="168" type="line" smooth="yes"/>
			<point x="71" y="134"/>
			<point x="62" y="95"/>
			<point x="62" y="63" type="curve" smooth="yes"/>
			<point x="62" y="10"/>
			<point x="95" y="-14"/>
		</contour>
		<contour>
			<point x="389" y="-14" type="curve" smooth="yes"/>
			<point x="455" y="-14"/>
			<point x="528" y="37"/>
			<point x="602" y="115" type="curve"/>
			<point x="612" y="115" type="line"/>
			<point x="598" y="142" type="line"/>
			<point x="535" y="88"/>
			<point x="494" y="67"/>
			<point x="458" y="67" type="curve" smooth="yes"/>
			<point x="438" y="67"/>
			<point x="424" y="79"/>
			<point x="424" y="106" type="curve" smooth="yes"/>
			<point x="424" y="126"/>
			<point x="430" y="157"/>
			<point x="437" y="188" type="curve" smooth="yes"/>
			<point x="499" y="475" type="line"/>
			<point x="484" y="487" type="line"/>
			<point x="388" y="457" type="line"/>
			<point x="379" y="398"/>
			<point x="368" y="342"/>
			<point x="356" y="282" type="curve" smooth="yes"/>
			<point x="331" y="166" type="line" smooth="yes"/>
			<point x="327" y="146"/>
			<point x="322" y="125"/>
			<point x="318" y="104" type="curve"/>
			<point x="320" y="104" type="line"/>
			<point x="317" y="90"/>
			<point x="315" y="76"/>
			<point x="315" y="63" type="curve" smooth="yes"/>
			<point x="315" y="10"/>
			<point x="348" y="-14"/>
		</contour>
		<contour>
			<point x="627" y="-14" type="curve" smooth="yes"/>
			<point x="701" y="-14"/>
			<point x="757" y="49"/>
			<point x="796" y="109" type="curve"/>
			<point x="773" y="127" type="line"/>
			<point x="737" y="83"/>
			<point x="710" y="62"/>
			<point x="689" y="62" type="curve" smooth="yes"/>
			<point x="679" y="62"/>
			<point x="671" y="69"/>
			<point x="671" y="81" type="curve" smooth="yes"/>
			<point x="671" y="92"/>
			<point x="674" y="109"/>
			<point x="678" y="130" type="curve" smooth="yes"/>
			<point x="752" y="475" type="line"/>
			<point x="737" y="487" type="line"/>
			<point x="641" y="457" type="line"/>
			<point x="632" y="398"/>
			<point x="620" y="341"/>
			<point x="608" y="282" type="curve" smooth="yes"/>
			<point x="573" y="114" type="line"/>
			<point x="572" y="108" type="line" smooth="yes"/>
			<point x="567" y="82"/>
			<point x="565" y="66"/>
			<point x="565" y="54" type="curve" smooth="yes"/>
			<point x="565" y="10"/>
			<point x="592" y="-14"/>
		</contour>
	</outline>
</glyph>
<glyph name="yeru" format="2">
	<unicode hex="044B"/>
	<advance width="727"/>
	<outline>
		<contour>
			<point x="547" y="-14" type="curve" smooth="yes"/>
			<point x="621" y="-14"/>
			<point x="676" y="49"/>
			<point x="716" y="109" type="curve"/>
			<point x="692" y="127" type="line"/>
			<point x="656" y="83"/>
			<point x="631" y="62"/>
			<point x="609" y="62" type="curve" smooth="yes"/>
			<point x="599" y="62"/>
			<point x="590" y="69"/>
			<point x="590" y="81" type="curve" smooth="yes"/>
			<point x="590" y="92"/>
			<point x="594" y="109"/>
			<point x="598" y="130" type="curve" smooth="yes"/>
			<point x="671" y="475" type="line"/>
			<point x="657" y="487" type="line"/>
			<point x="559" y="461" type="line"/>
			<point x="550" y="402"/>
			<point x="539" y="344"/>
			<point x="527" y="285" type="curve" smooth="yes"/>
			<point x="494" y="126" type="line" smooth="yes"/>
			<point x="487" y="92"/>
			<point x="484" y="72"/>
			<point x="484" y="53" type="curve" smooth="yes"/>
			<point x="484" y="10"/>
			<point x="511" y="-14"/>
		</contour>
		<component base="soft"/>
	</outline>
	<anchor name="aboveLC" x="406" y="492"/>
</glyph>
<glyph name="ieukran" format="2">
	<unicode hex="0454"/>
	<advance width="428"/>
	<outline>
		<contour>
			<point x="100" y="230" type="line"/>
			<point x="308" y="224" type="line"/>
			<point x="318" y="271" type="line"/>
			<point x="107" y="263" type="line"/>
		</contour>
		<component base="es"/>
	</outline>
	<anchor name="aboveLC" x="287" y="492"/>
</glyph>
<glyph name="nje" format="2">
	<unicode hex="045A"/>
	<advance width="742"/>
	<outline>
		<contour>
			<point x="56" y="-8" type="line"/>
			<point x="152" y="0" type="line"/>
			<point x="164" y="71"/>
			<point x="176" y="140"/>
			<point x="191" y="209" type="curve" smooth="yes"/>
			<point x="221" y="352" type="line"/>
			<point x="246" y="475" type="line"/>
			<point x="231" y="487" type="line"/>
			<point x="49" y="435" type="line"/>
			<point x="45" y="407" type="line"/>
			<point x="159" y="392" type="line"/>
			<point x="130" y="410" type="line"/>
			<point x="44" y="2" type="line"/>
		</contour>
		<contour>
			<point x="125" y="224" type="line"/>
			<point x="417" y="236" type="line"/>
			<point x="417" y="269" type="line"/>
			<point x="125" y="266" type="line"/>
		</contour>
		<contour>
			<point x="480" y="-14" type="curve" smooth="yes"/>
			<point x="612" y="-14"/>
			<point x="717" y="94"/>
			<point x="717" y="213" type="curve" smooth="yes"/>
			<point x="717" y="272"/>
			<point x="686" y="316"/>
			<point x="610" y="316" type="curve" smooth="yes"/>
			<point x="538" y="316"/>
			<point x="471" y="277"/>
			<point x="425" y="224" type="curve"/>
			<point x="414" y="224" type="line"/>
			<point x="434" y="197" type="line"/>
			<point x="470" y="239"/>
			<point x="517" y="263"/>
			<point x="565" y="263" type="curve" smooth="yes"/>
			<point x="596" y="263"/>
			<point x="613" y="243"/>
			<point x="613" y="203" type="curve" smooth="yes"/>
			<point x="613" y="108"/>
			<point x="558" y="28"/>
			<point x="502" y="28" type="curve" smooth="yes"/>
			<point x="461" y="28"/>
			<point x="436" y="54"/>
			<point x="436" y="110" type="curve" smooth="yes"/>
			<point x="436" y="155"/>
			<point x="449" y="196"/>
			<point x="462" y="244" type="curve"/>
			<point x="460" y="253" type="line"/>
			<point x="510" y="476" type="line"/>
			<point x="496" y="488" type="line"/>
			<point x="397" y="461" type="line"/>
			<point x="388" y="406"/>
			<point x="377" y="344"/>
			<point x="365" y="287" type="curve" smooth="yes"/>
			<point x="350" y="218"/>
			<point x="335" y="154"/>
			<point x="335" y="117" type="curve" smooth="yes"/>
			<point x="335" y="33"/>
			<point x="390" y="-14"/>
		</contour>
	</outline>
</glyph>
<glyph name="Izhitsa" format="2">
	<unicode hex="0474"/>
	<advance width="622"/>
	<outline>
		<contour>
			<point x="218" y="-6" type="line"/>
			<point x="277" y="-6" type="line"/>
			<point x="498" y="438" type="line" smooth="yes"/>
			<point x="533" y="510"/>
			<point x="558" y="563"/>
			<point x="599" y="604" type="curve" smooth="yes"/>
			<point x="630" y="634" type="line"/>
			<point x="566" y="628" type="line"/>
			<point x="580" y="599" type="line" smooth="yes"/>
			<point x="596" y="568"/>
			<point x="617" y="551"/>
			<point x="646" y="551" type="curve" smooth="yes"/>
			<point x="681" y="551"/>
			<point x="707" y="573"/>
			<point x="713" y="618" type="curve"/>
			<point x="706" y="659"/>
			<point x="678" y="680"/>
			<point x="642" y="680" type="curve" smooth="yes"/>
			<point x="572" y="680"/>
			<point x="537" y="624"/>
			<point x="473" y="490" type="curve" smooth="yes"/>
			<point x="298" y="125" type="line"/>
			<point x="287" y="104" type="line"/>
			<point x="312" y="104" type="line"/>
			<point x="235" y="664" type="line"/>
			<point x="114" y="664" type="line"/>
		</contour>
		<contour>
			<point x="54" y="624" type="line"/>
			<point x="169" y="610" type="line"/>
			<point x="204" y="610" type="line"/>
			<point x="330" y="625" type="line"/>
			<point x="338" y="664" type="line"/>
			<point x="62" y="664" type="line"/>
		</contour>
	</outline>
	<anchor name="aboveUC" x="415" y="684"/>
</glyph>
<glyph name="izhitsa" format="2">
	<unicode hex="0475"/>
	<advance width="535"/>
	<outline>
		<contour>
			<point x="168" y="-7" type="line"/>
			<point x="221" y="-2" type="line"/>
			<point x="313" y="187"/>
			<point x="361" y="298"/>
			<point x="441" y="405" type="curve" smooth="yes"/>
			<point x="451" y="417"/>
			<point x="462" y="427"/>
			<point x="475" y="437" type="curve"/>
			<point x="423" y="438" type="line"/>
			<point x="441" y="409" type="line" smooth="yes"/>
			<point x="459" y="381"/>
			<point x="479" y="367"/>
			<point x="505" y="367" type="curve" smooth="yes"/>
			<point x="534" y="367"/>
			<point x="557" y="387"/>
			<point x="562" y="426" type="curve"/>
			<point x="555" y="467"/>
			<point x="526" y="486"/>
			<point x="495" y="486" type="curve" smooth="yes"/>
			<point x="461" y="486"/>
			<point x="436" y="476"/>
			<point x="405" y="436" type="curve" smooth="yes"/>
			<point x="363" y="381"/>
			<point x="298" y="245"/>
			<point x="240" y="107" type="curve"/>
			<point x="230" y="83" type="line"/>
			<point x="252" y="83" type="line"/>
			<point x="250" y="193"/>
			<point x="237" y="306"/>
			<point x="222" y="402" type="curve" smooth="yes"/>
			<point x="213" y="461"/>
			<point x="194" y="486"/>
			<point x="148" y="486" type="curve" smooth="yes"/>
			<point x="99" y="486"/>
			<point x="55" y="447"/>
			<point x="14" y="368" type="curve"/>
			<point x="34" y="350" type="line"/>
			<point x="63" y="391"/>
			<point x="78" y="405"/>
			<point x="93" y="405" type="curve" smooth="yes"/>
			<point x="105" y="405"/>
			<point x="114" y="399"/>
			<point x="119" y="364" type="curve" smooth="yes"/>
			<point x="136" y="250"/>
			<point x="153" y="142"/>
			<point x="160" y="-1" type="curve"/>
		</contour>
	</outline>
</glyph>
<glyph name="Gheup" format="2">
	<unicode hex="0490"/>
	<advance width="523"/>
	<outline>
		<contour>
			<point x="233" y="618" type="line"/>
			<point x="555" y="618" type="line"/>
			<point x="598" y="808" type="line"/>
			<point x="546" y="808" type="line"/>
			<point x="466" y="621" type="line"/>
			<point x="530" y="664" type="line"/>
			<point x="242" y="664" type="line"/>
		</contour>
		<contour>
			<point x="-10" y="0" type="line"/>
			<point x="275" y="0" type="line"/>
			<point x="283" y="39" type="line"/>
			<point x="159" y="54" type="line"/>
			<point x="124" y="54" type="line"/>
			<point x="-1" y="39" type="line"/>
		</contour>
		<contour>
			<point x="69" y="0" type="line"/>
			<point x="186" y="0" type="line"/>
			<point x="202" y="103"/>
			<point x="220" y="207"/>
			<point x="239" y="310" type="curve" smooth="yes"/>
			<point x="306" y="664" type="line"/>
			<point x="189" y="664" type="line"/>
			<point x="173" y="561"/>
			<point x="155" y="457"/>
			<point x="136" y="354" type="curve" smooth="yes"/>
		</contour>
		<contour>
			<point x="101" y="624" type="line"/>
			<point x="222" y="610" type="line"/>
			<point x="244" y="610" type="line"/>
			<point x="254" y="664" type="line"/>
			<point x="108" y="664" type="line"/>
		</contour>
	</outline>
</glyph>
<glyph name="Zhedescender" format="2">
	<unicode hex="0496"/>
	<advance width="946"/>
	<outline>
		<contour>
			<point x="770" y="0" type="line"/>
			<point x="863" y="0" type="line"/>
			<point x="818" y="38" type="line"/>
			<point x="812" y="-184" type="line"/>
			<point x="863" y="-184" type="line"/>
			<point x="905" y="40" type="line"/>
			<point x="774" y="53" type="line"/>
		</contour>
		<component base="Zhe"/>
	</outline>
</glyph>
<glyph name="Kadescender" format="2">
	<unicode hex="049A"/>
	<advance width="658"/>
	<outline>
		<contour>
			<point x="496" y="0" type="line"/>
			<point x="588" y="0" type="line"/>
			<point x="543" y="38" type="line"/>
			<point x="537" y="-184" type="line"/>
			<point x="588" y="-184" type="line"/>
			<point x="629" y="40" type="line"/>
			<point x="500" y="53" type="line"/>
		</contour>
		<component base="Ka"/>
	</outline>
</glyph>
<glyph name="Endescender" format="2">
	<unicode hex="04A2"/>
	<advance width="734"/>
	<outline>
		<contour>
			<point x="534" y="0" type="line"/>
			<point x="607" y="0" type="line"/>
			<point x="583" y="20" type="line"/>
			<point x="588" y="-184" type="line"/>
			<point x="639" y="-184" type="line"/>
			<point x="671" y="39" type="line"/>
			<point x="538" y="55" type="line"/>
		</contour>
		<component base="En"/>
	</outline>
</glyph>
<glyph name="Chedescender" format="2">
	<unicode hex="04B6"/>
	<advance width="653"/>
	<outline>
		<contour>
			<point x="446" y="0" type="line"/>
			<point x="538" y="0" type="line"/>
			<point x="494" y="38" type="line"/>
			<point x="488" y="-184" type="line"/>
			<point x="539" y="-184" type="line"/>
			<point x="580" y="40" type="line"/>
			<point x="450" y="55" type="line"/>
		</contour>
		<component base="Che"/>
	</outline>
</glyph>
<glyph name="a.sups" format="2">
	<unicode hex="1D43"/>
	<advance width="371"/>
	<outline>
		<contour>
			<point x="155" y="409" type="curve" smooth="yes"/>
			<point x="204" y="409"/>
			<point x="256" y="455"/>
			<point x="296" y="508" type="curve"/>
			<point x="301" y="508" type="line"/>
			<point x="292" y="526" type="line"/>
			<point x="253" y="485"/>
			<point x="224" y="466"/>
			<point x="201" y="466" type="curve" smooth="yes"/>
			<point x="177" y="466"/>
			<point x="164" y="484"/>
			<point x="164" y="522" type="curve" smooth="yes"/>
			<point x="164" y="606"/>
			<point x="219" y="692"/>
			<point x="275" y="692" type="curve" smooth="yes"/>
			<point x="297" y="692"/>
			<point x="316" y="682"/>
			<point x="332" y="669" type="curve"/>
			<point x="371" y="697" type="line"/>
			<point x="352" y="721"/>
			<point x="328" y="736"/>
			<point x="299" y="736" type="curve" smooth="yes"/>
			<point x="205" y="736"/>
			<point x="85" y="605"/>
			<point x="85" y="495" type="curve" smooth="yes"/>
			<point x="85" y="433"/>
			<point x="120" y="409"/>
		</contour>
		<contour>
			<point x="316" y="409" type="curve" smooth="yes"/>
			<point x="364" y="409"/>
			<point x="405" y="452"/>
			<point x="429" y="492" type="curve"/>
			<point x="412" y="503" type="line"/>
			<point x="391" y="478"/>
			<point x="372" y="463"/>
			<point x="359" y="463" type="curve" smooth="yes"/>
			<point x="351" y="463"/>
			<point x="346" y="467"/>
			<point x="346" y="475" type="curve" smooth="yes"/>
			<point x="346" y="482"/>
			<point x="347" y="492"/>
			<point x="350" y="504" type="curve" smooth="yes"/>
			<point x="401" y="732" type="line"/>
			<point x="390" y="740" type="line"/>
			<point x="322" y="701" type="line"/>
			<point x="316" y="698" type="line"/>
			<point x="277" y="514" type="line"/>
			<point x="276" y="510" type="line" smooth="yes"/>
			<point x="272" y="488"/>
			<point x="269" y="474"/>
			<point x="269" y="460" type="curve" smooth="yes"/>
			<point x="269" y="427"/>
			<point x="289" y="409"/>
		</contour>
	</outline>
</glyph>
<glyph name="g.sups" format="2">
	<unicode hex="1D4D"/>
	<advance width="352"/>
	<outline>
		<contour>
			<point x="90" y="460" type="curve" smooth="yes"/>
			<point x="90" y="438"/>
			<point x="105" y="420"/>
			<point x="134" y="412" type="curve"/>
			<point x="134" y="409" type="line"/>
			<point x="139" y="410" type="line"/>
			<point x="227" y="401" type="line" smooth="yes"/>
			<point x="283" y="395"/>
			<point x="299" y="380"/>
			<point x="299" y="357" type="curve" smooth="yes"/>
			<point x="299" y="323"/>
			<point x="260" y="298"/>
			<point x="192" y="298" type="curve" smooth="yes"/>
			<point x="139" y="298"/>
			<point x="105" y="319"/>
			<point x="105" y="353" type="curve" smooth="yes"/>
			<point x="105" y="379"/>
			<point x="124" y="400"/>
			<point x="155" y="418" type="curve"/>
			<point x="144" y="424" type="line"/>
			<point x="90" y="407"/>
			<point x="41" y="374"/>
			<point x="41" y="332" type="curve" smooth="yes"/>
			<point x="41" y="289"/>
			<point x="87" y="266"/>
			<point x="158" y="266" type="curve" smooth="yes"/>
			<point x="279" y="266"/>
			<point x="366" y="322"/>
			<point x="366" y="391" type="curve" smooth="yes"/>
			<point x="366" y="432"/>
			<point x="339" y="459"/>
			<point x="266" y="466" type="curve" smooth="yes"/>
			<point x="186" y="474" type="line" smooth="yes"/>
			<point x="160" y="477"/>
			<point x="151" y="488"/>
			<point x="151" y="499" type="curve" smooth="yes"/>
			<point x="151" y="509"/>
			<point x="154" y="518"/>
			<point x="180" y="541" type="curve"/>
			<point x="170" y="558" type="line"/>
			<point x="170" y="549" type="line"/>
			<point x="122" y="522"/>
			<point x="90" y="498"/>
		</contour>
		<contour>
			<point x="224" y="541" type="curve" smooth="yes"/>
			<point x="195" y="541"/>
			<point x="181" y="571"/>
			<point x="181" y="611" type="curve" smooth="yes"/>
			<point x="181" y="671"/>
			<point x="203" y="717"/>
			<point x="241" y="717" type="curve" smooth="yes"/>
			<point x="265" y="717"/>
			<point x="283" y="692"/>
			<point x="283" y="649" type="curve" smooth="yes"/>
			<point x="283" y="578"/>
			<point x="258" y="541"/>
		</contour>
		<contour>
			<point x="109" y="607" type="curve" smooth="yes"/>
			<point x="109" y="557"/>
			<point x="151" y="519"/>
			<point x="215" y="519" type="curve" smooth="yes"/>
			<point x="287" y="519"/>
			<point x="332" y="562"/>
			<point x="349" y="633" type="curve" smooth="yes"/>
			<point x="357" y="665"/>
			<point x="366" y="692"/>
			<point x="378" y="715" type="curve"/>
			<point x="353" y="676" type="line"/>
			<point x="400" y="683"/>
			<point x="434" y="698"/>
			<point x="434" y="730" type="curve" smooth="yes"/>
			<point x="434" y="737"/>
			<point x="432" y="742"/>
			<point x="430" y="746" type="curve"/>
			<point x="424" y="750"/>
			<point x="416" y="752"/>
			<point x="405" y="752" type="curve" smooth="yes"/>
			<point x="372" y="752"/>
			<point x="348" y="728"/>
			<point x="337" y="662" type="curve"/>
			<point x="343" y="662" type="line"/>
			<point x="340" y="706"/>
			<point x="301" y="740"/>
			<point x="246" y="740" type="curve" smooth="yes"/>
			<point x="168" y="740"/>
			<point x="109" y="679"/>
		</contour>
	</outline>
</glyph>
<glyph name="k.sups" format="2">
	<unicode hex="1D4F"/>
	<advance width="349"/>
	<outline>
		<contour>
			<point x="93" y="423" type="line"/>
			<point x="101" y="417" type="line"/>
			<point x="169" y="422" type="line"/>
			<point x="264" y="886" type="line"/>
			<point x="257" y="893" type="line"/>
			<point x="126" y="857" type="line"/>
			<point x="123" y="838" type="line"/>
			<point x="201" y="827" type="line"/>
			<point x="180" y="846" type="line"/>
		</contour>
		<contour>
			<point x="400" y="422" type="curve"/>
			<point x="402" y="441" type="line"/>
			<point x="379" y="443" type="line" smooth="yes"/>
			<point x="360" y="445"/>
			<point x="351" y="454"/>
			<point x="338" y="481" type="curve" smooth="yes"/>
			<point x="319" y="524" type="line" smooth="yes"/>
			<point x="301" y="563"/>
			<point x="275" y="584"/>
			<point x="231" y="589" type="curve" smooth="yes"/>
			<point x="203" y="592" type="line"/>
			<point x="201" y="587" type="line"/>
			<point x="356" y="647" type="line" smooth="yes"/>
			<point x="392" y="661"/>
			<point x="408" y="673"/>
			<point x="408" y="696" type="curve" smooth="yes"/>
			<point x="408" y="716"/>
			<point x="393" y="734"/>
			<point x="372" y="736" type="curve"/>
			<point x="190" y="590" type="line"/>
			<point x="190" y="581" type="line"/>
			<point x="199" y="579" type="line" smooth="yes"/>
			<point x="220" y="572"/>
			<point x="227" y="561"/>
			<point x="241" y="527" type="curve" smooth="yes"/>
			<point x="262" y="472" type="line" smooth="yes"/>
			<point x="280" y="423"/>
			<point x="306" y="412"/>
			<point x="343" y="412" type="curve" smooth="yes"/>
			<point x="364" y="412"/>
			<point x="381" y="415"/>
		</contour>
	</outline>
</glyph>
<glyph name="o.sups" format="2">
	<unicode hex="1D52"/>
	<advance width="345"/>
	<outline>
		<contour>
			<point x="210" y="409" type="curve" smooth="yes"/>
			<point x="316" y="409"/>
			<point x="391" y="509"/>
			<point x="391" y="617" type="curve" smooth="yes"/>
			<point x="391" y="698"/>
			<point x="337" y="736"/>
			<point x="270" y="736" type="curve" smooth="yes"/>
			<point x="163" y="736"/>
			<point x="86" y="638"/>
			<point x="86" y="530" type="curve" smooth="yes"/>
			<point x="86" y="448"/>
			<point x="143" y="409"/>
		</contour>
		<contour>
			<point x="215" y="438" type="curve" smooth="yes"/>
			<point x="186" y="438"/>
			<point x="165" y="457"/>
			<point x="165" y="513" type="curve" smooth="yes"/>
			<point x="165" y="606"/>
			<point x="206" y="708"/>
			<point x="264" y="708" type="curve" smooth="yes"/>
			<point x="293" y="708"/>
			<point x="313" y="689"/>
			<point x="313" y="633" type="curve" smooth="yes"/>
			<point x="313" y="541"/>
			<point x="273" y="438"/>
		</contour>
	</outline>
</glyph>
<glyph name="p.sups" format="2">
	<unicode hex="1D56"/>
	<advance width="361"/>
	<outline>
		<contour>
			<point x="64" y="266" type="line"/>
			<point x="142" y="266" type="line"/>
			<point x="172" y="429" type="line"/>
			<point x="176" y="440" type="line"/>
			<point x="218" y="647" type="line"/>
			<point x="219" y="649" type="line"/>
			<point x="236" y="728" type="line"/>
			<point x="225" y="737" type="line"/>
			<point x="98" y="701" type="line"/>
			<point x="95" y="681" type="line"/>
			<point x="173" y="670" type="line"/>
			<point x="151" y="685" type="line"/>
		</contour>
		<contour>
			<point x="129" y="444" type="line"/>
			<point x="150" y="420"/>
			<point x="174" y="409"/>
			<point x="203" y="409" type="curve" smooth="yes"/>
			<point x="302" y="409"/>
			<point x="412" y="538"/>
			<point x="412" y="651" type="curve" smooth="yes"/>
			<point x="412" y="714"/>
			<point x="380" y="736"/>
			<point x="344" y="736" type="curve" smooth="yes"/>
			<point x="294" y="736"/>
			<point x="235" y="693"/>
			<point x="199" y="635" type="curve"/>
			<point x="188" y="635" type="line"/>
			<point x="203" y="622" type="line"/>
			<point x="238" y="659"/>
			<point x="272" y="680"/>
			<point x="297" y="680" type="curve" smooth="yes"/>
			<point x="322" y="680"/>
			<point x="334" y="662"/>
			<point x="334" y="625" type="curve" smooth="yes"/>
			<point x="334" y="546"/>
			<point x="286" y="453"/>
			<point x="224" y="453" type="curve" smooth="yes"/>
			<point x="201" y="453"/>
			<point x="181" y="469"/>
			<point x="163" y="492" type="curve"/>
		</contour>
		<contour>
			<point x="16" y="266" type="line"/>
			<point x="198" y="266" type="line"/>
			<point x="202" y="287" type="line"/>
			<point x="125" y="298" type="line"/>
			<point x="94" y="298" type="line"/>
			<point x="20" y="287" type="line"/>
		</contour>
	</outline>
</glyph>
<glyph name="t.sups" format="2">
	<unicode hex="1D57"/>
	<advance width="229"/>
	<outline>
		<contour>
			<point x="95" y="696" type="line"/>
			<point x="179" y="696" type="line"/>
			<point x="304" y="696" type="line"/>
			<point x="309" y="727" type="line"/>
			<point x="182" y="727" type="line"/>
			<point x="182" y="731" type="line"/>
			<point x="99" y="721" type="line"/>
		</contour>
		<contour>
			<point x="112" y="508" type="line" smooth="yes"/>
			<point x="107" y="486"/>
			<point x="104" y="466"/>
			<point x="104" y="450" type="curve" smooth="yes"/>
			<point x="104" y="424"/>
			<point x="122" y="409"/>
			<point x="149" y="409" type="curve" smooth="yes"/>
			<point x="201" y="409"/>
			<point x="241" y="451"/>
			<point x="267" y="492" type="curve"/>
			<point x="250" y="503" type="line"/>
			<point x="227" y="476"/>
			<point x="210" y="463"/>
			<point x="196" y="463" type="curve" smooth="yes"/>
			<point x="183" y="463"/>
			<point x="181" y="474"/>
			<point x="187" y="506" type="curve" smooth="yes"/>
			<point x="253" y="819" type="line"/>
			<point x="209" y="819" type="line"/>
			<point x="156" y="712" type="line"/>
		</contour>
	</outline>
</glyph>
<glyph name="c.sups" format="2">
	<unicode hex="1D9C"/>
	<advance width="299"/>
	<outline>
		<contour>
			<point x="199" y="409" type="curve" smooth="yes"/>
			<point x="260" y="409"/>
			<point x="310" y="452"/>
			<point x="338" y="503" type="curve"/>
			<point x="322" y="514" type="line"/>
			<point x="299" y="488"/>
			<point x="269" y="468"/>
			<point x="237" y="468" type="curve" smooth="yes"/>
			<point x="195" y="468"/>
			<point x="165" y="493"/>
			<point x="165" y="547" type="curve" smooth="yes"/>
			<point x="165" y="616"/>
			<point x="202" y="688"/>
			<point x="260" y="714" type="curve"/>
			<point x="276" y="716" type="line"/>
			<point x="276" y="722" type="line"/>
			<point x="242" y="722" type="line"/>
			<point x="273" y="676" type="line" smooth="yes"/>
			<point x="286" y="659"/>
			<point x="298" y="645"/>
			<point x="318" y="645" type="curve" smooth="yes"/>
			<point x="338" y="645"/>
			<point x="355" y="658"/>
			<point x="356" y="680" type="curve"/>
			<point x="347" y="716"/>
			<point x="315" y="736"/>
			<point x="271" y="736" type="curve" smooth="yes"/>
			<point x="171" y="736"/>
			<point x="88" y="638"/>
			<point x="88" y="530" type="curve" smooth="yes"/>
			<point x="88" y="453"/>
			<point x="135" y="409"/>
		</contour>
	</outline>
</glyph>
<glyph name="f.sups" format="2">
	<unicode hex="1DA0"/>
	<advance width="220"/>
	<outline>
		<contour>
			<point x="27" y="261" type="curve" smooth="yes"/>
			<point x="59" y="261"/>
			<point x="91" y="277"/>
			<point x="119" y="305" type="curve" smooth="yes"/>
			<point x="153" y="339"/>
			<point x="172" y="388"/>
			<point x="182" y="448" type="curve" smooth="yes"/>
			<point x="228" y="744" type="line" smooth="yes"/>
			<point x="242" y="836"/>
			<point x="260" y="868"/>
			<point x="304" y="884" type="curve"/>
			<point x="304" y="891" type="line"/>
			<point x="278" y="891" type="line"/>
			<point x="278" y="884" type="line"/>
			<point x="302" y="851" type="line" smooth="yes"/>
			<point x="318" y="829"/>
			<point x="333" y="817"/>
			<point x="353" y="817" type="curve" smooth="yes"/>
			<point x="370" y="817"/>
			<point x="387" y="830"/>
			<point x="390" y="851" type="curve"/>
			<point x="383" y="879"/>
			<point x="346" y="899"/>
			<point x="306" y="899" type="curve" smooth="yes"/>
			<point x="227" y="899"/>
			<point x="166" y="834"/>
			<point x="150" y="723" type="curve" smooth="yes"/>
			<point x="110" y="446" type="line" smooth="yes"/>
			<point x="103" y="399"/>
			<point x="93" y="360"/>
			<point x="78" y="328" type="curve" smooth="yes"/>
			<point x="67" y="307"/>
			<point x="56" y="293"/>
			<point x="43" y="282" type="curve"/>
			<point x="43" y="278" type="line"/>
			<point x="60" y="279" type="line"/>
			<point x="60" y="284" type="line"/>
			<point x="41" y="307" type="line" smooth="yes"/>
			<point x="26" y="326"/>
			<point x="9" y="340"/>
			<point x="-13" y="340" type="curve" smooth="yes"/>
			<point x="-33" y="340"/>
			<point x="-48" y="327"/>
			<point x="-51" y="307" type="curve"/>
			<point x="-41" y="275"/>
			<point x="-10" y="261"/>
		</contour>
		<contour>
			<point x="88" y="696" type="line"/>
			<point x="169" y="696" type="line"/>
			<point x="301" y="694" type="line"/>
			<point x="307" y="727" type="line"/>
			<point x="175" y="727" type="line"/>
			<point x="175" y="731" type="line"/>
			<point x="93" y="721" type="line"/>
		</contour>
	</outline>
</glyph>
<glyph name="z.sups" format="2">
	<unicode hex="1DBB"/>
	<advance width="319"/>
	<outline>
		<contour>
			<point x="244" y="402" type="curve" smooth="yes"/>
			<point x="299" y="402"/>
			<point x="362" y="466"/>
			<point x="362" y="523" type="curve" smooth="yes"/>
			<point x="362" y="543"/>
			<point x="352" y="559"/>
			<point x="333" y="565" type="curve"/>
			<point x="312" y="563"/>
			<point x="295" y="548"/>
			<point x="295" y="525" type="curve" smooth="yes"/>
			<point x="295" y="510"/>
			<point x="302" y="496"/>
			<point x="328" y="473" type="curve"/>
			<point x="340" y="477" type="line"/>
			<point x="339" y="488" type="line"/>
			<point x="323" y="479"/>
			<point x="301" y="470"/>
			<point x="274" y="470" type="curve" smooth="yes"/>
			<point x="238" y="470"/>
			<point x="204" y="481"/>
			<point x="145" y="514" type="curve"/>
			<point x="123" y="480" type="line"/>
			<point x="171" y="423"/>
			<point x="208" y="402"/>
		</contour>
		<contour>
			<point x="111" y="419" type="line"/>
			<point x="135" y="482" type="line"/>
			<point x="176" y="515"/>
			<point x="279" y="600"/>
			<point x="321" y="637" type="curve" smooth="yes"/>
			<point x="359" y="669"/>
			<point x="382" y="700"/>
			<point x="392" y="727" type="curve"/>
			<point x="386" y="733" type="line"/>
			<point x="342" y="728" type="line"/>
			<point x="316" y="665" type="line"/>
			<point x="275" y="628"/>
			<point x="161" y="531"/>
			<point x="118" y="495" type="curve" smooth="yes"/>
			<point x="87" y="469"/>
			<point x="74" y="446"/>
			<point x="58" y="419" type="curve"/>
			<point x="64" y="413" type="line"/>
		</contour>
		<contour>
			<point x="98" y="587" type="line"/>
			<point x="124" y="583" type="line"/>
			<point x="168" y="698" type="line"/>
			<point x="124" y="662" type="line"/>
			<point x="191" y="651"/>
			<point x="238" y="641"/>
			<point x="297" y="626" type="curve"/>
			<point x="332" y="671" type="line"/>
			<point x="273" y="700"/>
			<point x="226" y="718"/>
			<point x="165" y="737" type="curve"/>
			<point x="111" y="693" type="line"/>
		</contour>
	</outline>
</glyph>
<glyph name="figuredash" format="2">
	<unicode hex="2012"/>
	<advance width="518"/>
	<outline>
		<contour>
			<point x="53" y="276" type="line"/>
			<point x="487" y="276" type="line"/>
			<point x="487" y="343" type="line"/>
			<point x="53" y="343" type="line"/>
		</contour>
	</outline>
</glyph>
<glyph name="quoteleft" format="2">
	<unicode hex="2018"/>
	<unicode hex="02BB"/>
	<advance width="271"/>
	<outline>
		<contour>
			<point x="186" y="471" type="curve" smooth="yes"/>
			<point x="228" y="471"/>
			<point x="257" y="503"/>
			<point x="257" y="543" type="curve" smooth="yes"/>
			<point x="257" y="572"/>
			<point x="243" y="592"/>
			<point x="213" y="606" type="curve" smooth="yes"/>
			<point x="173" y="626" type="line"/>
			<point x="183" y="597" type="line"/>
			<point x="204" y="653"/>
			<point x="236" y="679"/>
			<point x="297" y="709" type="curve"/>
			<point x="281" y="742" type="line"/>
			<point x="187" y="704"/>
			<point x="125" y="634"/>
			<point x="125" y="531" type="curve" smooth="yes"/>
			<point x="125" y="516"/>
			<point x="127" y="507"/>
			<point x="131" y="495" type="curve"/>
			<point x="147" y="479"/>
			<point x="162" y="471"/>
		</contour>
	</outline>
</glyph>
<glyph name="i.sups" format="2">
	<unicode hex="2071"/>
	<advance width="212"/>
	<outline>
		<contour>
			<point x="110" y="452" type="curve" smooth="yes"/>
			<point x="110" y="426"/>
			<point x="129" y="412"/>
			<point x="155" y="412" type="curve" smooth="yes"/>
			<point x="208" y="412"/>
			<point x="245" y="453"/>
			<point x="272" y="495" type="curve"/>
			<point x="255" y="506" type="line"/>
			<point x="232" y="479"/>
			<point x="214" y="465"/>
			<point x="202" y="465" type="curve" smooth="yes"/>
			<point x="187" y="465"/>
			<point x="187" y="477"/>
			<point x="194" y="507" type="curve" smooth="yes"/>
			<point x="241" y="732" type="line"/>
			<point x="231" y="740" type="line"/>
			<point x="102" y="704" type="line"/>
			<point x="99" y="684" type="line"/>
			<point x="168" y="675" type="line"/>
			<point x="156" y="688" type="line"/>
			<point x="118" y="509" type="line" smooth="yes"/>
			<point x="114" y="489"/>
			<point x="110" y="466"/>
		</contour>
		<contour>
			<point x="224" y="808" type="curve" smooth="yes"/>
			<point x="251" y="808"/>
			<point x="275" y="830"/>
			<point x="275" y="859" type="curve" smooth="yes"/>
			<point x="275" y="885"/>
			<point x="257" y="902"/>
			<point x="231" y="902" type="curve" smooth="yes"/>
			<point x="204" y="902"/>
			<point x="181" y="880"/>
			<point x="181" y="850" type="curve" smooth="yes"/>
			<point x="181" y="824"/>
			<point x="200" y="808"/>
		</contour>
	</outline>
</glyph>
<glyph name="four.sups" format="2">
	<unicode hex="2074"/>
	<advance width="355"/>
	<outline>
		<contour>
			<point x="220" y="411" type="line"/>
			<point x="299" y="411" type="line"/>
			<point x="381" y="819" type="line"/>
			<point x="317" y="819" type="line"/>
			<point x="82" y="566" type="line"/>
			<point x="71" y="511" type="line"/>
			<point x="384" y="511" type="line"/>
			<point x="395" y="568" type="line"/>
			<point x="109" y="568" type="line"/>
			<point x="109" y="556" type="line"/>
			<point x="303" y="764" type="line"/>
			<point x="291" y="764" type="line"/>
			<point x="247" y="548" type="line"/>
			<point x="245" y="538" type="line"/>
		</contour>
	</outline>
</glyph>
